{"glyphs":{"0":{"ha":1321,"x_min":87,"x_max":1234,"o":"m 1104 534 l 1104 507 q 1096 316 1104 392 q 1066 195 1088 240 q 1002 127 1044 149 q 894 98 960 104 q 730 91 827 91 l 591 91 q 427 98 494 91 q 319 127 361 104 q 255 195 277 149 q 225 316 233 240 q 217 507 217 392 l 217 534 q 225 731 217 654 q 255 853 233 808 q 319 919 277 898 q 427 945 361 939 q 591 951 494 951 l 730 951 q 894 945 827 951 q 1002 919 960 939 q 1066 853 1044 898 q 1096 731 1088 808 q 1104 534 1104 654 m 87 507 q 109 235 87 340 q 186 75 131 131 q 340 -1 241 20 q 591 -22 438 -22 l 730 -22 q 981 -1 883 -22 q 1135 75 1080 20 q 1212 235 1190 131 q 1234 507 1234 340 l 1234 534 q 1221 767 1234 673 q 1174 920 1207 861 q 1083 1010 1141 979 q 939 1052 1026 1041 q 730 1063 852 1063 l 591 1063 q 382 1052 469 1063 q 238 1010 295 1041 q 147 920 180 979 q 100 767 114 861 q 87 534 87 673 l 87 507 "},"1":{"ha":1321,"x_min":250,"x_max":1173,"o":"m 263 0 l 1173 0 l 1173 109 l 810 109 l 810 1042 l 670 1042 l 250 903 l 291 802 l 680 932 l 680 109 l 263 109 l 263 0 "},"2":{"ha":1321,"x_min":113,"x_max":1240,"o":"m 113 252 l 113 0 l 1199 0 l 1199 109 l 243 109 l 243 252 q 253 361 243 319 q 296 426 262 404 q 401 457 330 449 q 593 465 471 465 l 891 465 q 1104 493 1029 465 q 1210 588 1180 522 q 1240 768 1240 654 q 1221 914 1240 857 q 1150 1004 1201 972 q 1005 1050 1099 1037 q 764 1063 911 1063 l 603 1063 q 354 1050 450 1063 q 205 1004 258 1037 q 133 914 153 972 q 113 768 113 857 l 243 768 q 255 870 243 833 q 305 924 268 907 q 415 946 342 941 q 610 951 488 951 l 758 951 q 944 946 873 951 q 1050 924 1014 941 q 1098 870 1086 907 q 1110 768 1110 833 q 1104 667 1110 705 q 1070 609 1097 629 q 984 582 1043 589 q 819 574 924 574 l 576 574 q 335 557 427 574 q 195 503 243 541 q 130 404 146 466 q 113 252 113 342 "},"3":{"ha":1321,"x_min":90,"x_max":1232,"o":"m 563 -22 l 758 -22 q 1004 -5 911 -22 q 1147 48 1098 11 q 1214 148 1197 85 q 1232 301 1232 210 q 1192 469 1232 410 q 1090 540 1153 527 q 1192 607 1152 551 q 1232 768 1232 663 q 1212 914 1232 857 q 1139 1004 1192 972 q 990 1050 1086 1037 q 741 1063 894 1063 l 580 1063 q 331 1050 427 1063 q 182 1004 235 1037 q 110 914 130 972 q 90 768 90 857 l 220 768 q 232 870 220 833 q 282 924 245 907 q 392 946 319 941 q 587 951 465 951 l 734 951 q 929 946 856 951 q 1039 924 1002 941 q 1089 870 1076 907 q 1101 768 1101 833 q 1093 679 1101 713 q 1053 626 1084 644 q 958 602 1022 608 q 782 595 893 595 l 553 595 l 553 486 l 755 486 q 946 479 876 486 q 1049 454 1016 473 q 1092 398 1082 435 q 1101 301 1101 361 q 1092 192 1101 233 q 1048 129 1082 151 q 943 99 1014 106 q 751 91 873 91 l 570 91 q 378 99 448 91 q 273 129 307 106 q 230 192 239 151 q 220 301 220 233 l 90 301 q 107 148 90 210 q 174 48 124 85 q 317 -5 223 11 q 563 -22 410 -22 "},"4":{"ha":1389,"x_min":87,"x_max":1302,"o":"m 998 0 l 1128 0 l 1128 217 l 1302 217 l 1302 326 l 1128 326 l 1128 1042 l 955 1042 l 87 347 l 87 217 l 998 217 l 998 0 m 217 326 l 998 955 l 998 326 l 217 326 "},"5":{"ha":1321,"x_min":120,"x_max":1234,"o":"m 138 498 l 292 498 q 391 543 319 532 q 614 553 463 553 l 758 553 q 949 547 879 553 q 1052 522 1019 541 q 1095 466 1085 503 q 1104 369 1104 429 l 1104 301 q 1094 192 1104 233 q 1050 128 1084 150 q 946 98 1017 106 q 754 91 876 91 l 600 91 q 408 99 479 91 q 304 129 338 106 q 260 192 270 151 q 250 301 250 233 l 120 301 q 137 148 120 210 q 204 48 155 85 q 347 -5 254 11 q 593 -22 441 -22 l 761 -22 q 1007 -5 913 -22 q 1150 48 1101 11 q 1217 147 1200 85 q 1234 301 1234 210 l 1234 369 q 1220 505 1234 449 q 1161 596 1205 561 q 1032 647 1118 631 q 805 663 947 663 l 492 663 q 268 592 329 663 l 268 933 l 1188 933 l 1188 1042 l 138 1042 l 138 498 "},"6":{"ha":1321,"x_min":105,"x_max":1247,"o":"m 578 -22 l 774 -22 q 1020 -5 926 -22 q 1163 48 1114 11 q 1230 148 1213 85 q 1247 301 1247 210 q 1233 437 1247 381 q 1174 528 1218 493 q 1045 579 1131 563 q 818 595 960 595 l 460 595 q 235 524 297 595 l 235 761 q 248 864 235 826 q 298 921 260 903 q 408 945 335 939 q 602 951 481 951 l 750 951 q 938 946 869 951 q 1041 924 1007 941 q 1084 870 1074 907 q 1094 768 1094 833 l 1224 768 q 1207 914 1224 857 q 1141 1004 1190 972 q 999 1050 1092 1037 q 757 1063 907 1063 l 595 1063 q 347 1049 443 1063 q 198 1001 250 1035 q 125 908 145 967 q 105 761 105 850 l 105 301 q 122 148 105 210 q 189 48 140 85 q 332 -5 239 11 q 578 -22 426 -22 m 1117 301 q 1107 192 1117 233 q 1063 129 1097 151 q 959 99 1029 106 q 767 91 888 91 l 585 91 q 393 99 464 91 q 289 129 323 106 q 245 192 255 151 q 235 301 235 233 q 245 398 235 361 q 288 454 254 435 q 391 479 321 473 q 582 486 460 486 l 770 486 q 962 479 892 486 q 1065 454 1031 473 q 1107 398 1098 435 q 1117 301 1117 361 "},"7":{"ha":1345,"x_min":87,"x_max":1259,"o":"m 304 0 l 477 0 l 1259 911 l 1259 1042 l 87 1042 l 87 933 l 1107 933 l 304 0 "},"8":{"ha":1321,"x_min":90,"x_max":1232,"o":"m 1101 768 q 1093 679 1101 713 q 1053 626 1084 644 q 958 602 1022 608 q 782 595 893 595 l 539 595 q 363 602 428 595 q 268 626 299 608 q 229 679 237 644 q 220 768 220 713 q 232 870 220 833 q 282 924 245 907 q 392 946 319 941 q 587 951 465 951 l 734 951 q 929 946 856 951 q 1039 924 1002 941 q 1089 870 1076 907 q 1101 768 1101 833 m 90 301 q 107 148 90 210 q 174 48 124 85 q 317 -5 223 11 q 563 -22 410 -22 l 758 -22 q 1004 -5 911 -22 q 1147 48 1098 11 q 1214 148 1197 85 q 1232 301 1232 210 q 1192 469 1232 410 q 1090 540 1153 527 q 1192 607 1152 551 q 1232 768 1232 663 q 1212 914 1232 857 q 1139 1004 1192 972 q 990 1050 1086 1037 q 741 1063 894 1063 l 580 1063 q 331 1050 427 1063 q 182 1004 235 1037 q 110 914 130 972 q 90 768 90 857 q 129 607 90 663 q 231 540 169 551 q 129 469 168 527 q 90 301 90 410 m 1101 301 q 1092 192 1101 233 q 1048 129 1082 151 q 943 99 1014 106 q 751 91 873 91 l 570 91 q 378 99 448 91 q 273 129 307 106 q 230 192 239 151 q 220 301 220 233 q 229 398 220 361 q 272 454 239 435 q 375 479 305 473 q 566 486 445 486 l 755 486 q 946 479 876 486 q 1049 454 1016 473 q 1092 398 1082 435 q 1101 301 1101 361 "},"9":{"ha":1345,"x_min":90,"x_max":1232,"o":"m 580 -22 l 741 -22 q 990 -6 894 -22 q 1139 44 1086 9 q 1212 139 1192 79 q 1232 288 1232 199 l 1232 741 q 1214 894 1232 832 q 1147 994 1197 956 q 1004 1047 1098 1031 q 758 1063 911 1063 l 563 1063 q 317 1047 410 1063 q 174 994 223 1031 q 107 894 124 956 q 90 741 90 832 q 104 605 90 661 q 162 514 119 549 q 292 463 206 479 q 519 447 377 447 l 877 447 q 1101 518 1040 447 l 1101 288 q 1089 183 1101 222 q 1039 124 1076 144 q 929 98 1002 104 q 734 91 856 91 l 587 91 q 395 96 466 91 q 291 117 325 100 q 247 172 256 134 q 237 274 237 209 l 106 274 q 124 127 106 185 q 191 37 142 70 q 334 -8 240 5 q 580 -22 427 -22 m 1101 741 q 1092 644 1101 680 q 1049 588 1082 607 q 946 563 1016 569 q 755 556 876 556 l 566 556 q 375 563 445 556 q 272 588 305 569 q 229 644 239 607 q 220 741 220 680 q 230 850 220 808 q 273 913 239 891 q 378 943 307 935 q 570 951 448 951 l 751 951 q 943 943 873 951 q 1048 913 1014 935 q 1092 850 1082 891 q 1101 741 1101 808 "},"A":{"ha":1476,"x_min":43,"x_max":1432,"o":"m 43 0 l 195 0 l 326 239 l 1150 239 l 1280 0 l 1432 0 l 825 1042 l 651 1042 l 43 0 m 391 347 l 738 955 l 1085 347 l 391 347 "},"Á":{"ha":1476,"x_min":43,"x_max":1432,"o":"m 43 0 l 195 0 l 326 239 l 1150 239 l 1280 0 l 1432 0 l 825 1042 l 651 1042 l 43 0 m 391 347 l 738 955 l 1085 347 l 391 347 m 586 1171 l 1013 1444 l 933 1561 l 543 1236 l 586 1171 "},"Ă":{"ha":1476,"x_min":43,"x_max":1432,"o":"m 43 0 l 195 0 l 326 239 l 1150 239 l 1280 0 l 1432 0 l 825 1042 l 651 1042 l 43 0 m 391 347 l 738 955 l 1085 347 l 391 347 m 738 1147 q 879 1170 821 1147 q 967 1250 937 1193 q 998 1411 998 1308 l 890 1411 q 846 1257 890 1283 q 738 1240 819 1240 q 633 1255 656 1240 q 586 1411 586 1283 l 477 1411 q 508 1250 477 1308 q 597 1170 539 1193 q 738 1147 656 1147 "},"Ǎ":{"ha":1476,"x_min":43,"x_max":1432,"o":"m 43 0 l 195 0 l 326 239 l 1150 239 l 1280 0 l 1432 0 l 825 1042 l 651 1042 l 43 0 m 391 347 l 738 955 l 1085 347 l 391 347 m 673 1153 l 803 1153 l 1020 1478 l 933 1544 l 738 1240 l 543 1544 l 456 1478 l 673 1153 "},"Â":{"ha":1476,"x_min":43,"x_max":1432,"o":"m 43 0 l 195 0 l 326 239 l 1150 239 l 1280 0 l 1432 0 l 825 1042 l 651 1042 l 43 0 m 391 347 l 738 955 l 1085 347 l 391 347 m 543 1149 l 738 1453 l 933 1149 l 1020 1214 l 803 1539 l 673 1539 l 456 1214 l 543 1149 "},"Ȁ":{"ha":1476,"x_min":43,"x_max":1432,"o":"m 43 0 l 195 0 l 326 239 l 1150 239 l 1280 0 l 1432 0 l 825 1042 l 651 1042 l 43 0 m 391 347 l 738 955 l 1085 347 l 391 347 "},"Ä":{"ha":1476,"x_min":43,"x_max":1432,"o":"m 43 0 l 195 0 l 326 239 l 1150 239 l 1280 0 l 1432 0 l 825 1042 l 651 1042 l 43 0 m 391 347 l 738 955 l 1085 347 l 391 347 m 913 1172 l 1043 1172 l 1043 1302 l 913 1302 l 913 1172 m 433 1172 l 563 1172 l 563 1302 l 433 1302 l 433 1172 "},"Ȧ":{"ha":1476,"x_min":43,"x_max":1432,"o":"m 43 0 l 195 0 l 326 239 l 1150 239 l 1280 0 l 1432 0 l 825 1042 l 651 1042 l 43 0 m 391 347 l 738 955 l 1085 347 l 391 347 m 673 1172 l 803 1172 l 803 1302 l 673 1302 l 673 1172 "},"À":{"ha":1476,"x_min":43,"x_max":1432,"o":"m 43 0 l 195 0 l 326 239 l 1150 239 l 1280 0 l 1432 0 l 825 1042 l 651 1042 l 43 0 m 391 347 l 738 955 l 1085 347 l 391 347 m 975 1169 l 1019 1234 l 628 1560 l 548 1443 l 975 1169 "},"Ȃ":{"ha":1476,"x_min":43,"x_max":1432,"o":"m 43 0 l 195 0 l 326 239 l 1150 239 l 1280 0 l 1432 0 l 825 1042 l 651 1042 l 43 0 m 391 347 l 738 955 l 1085 347 l 391 347 m 738 1411 q 597 1389 656 1411 q 508 1308 539 1366 q 477 1147 477 1251 l 586 1147 q 633 1303 586 1275 q 738 1318 656 1318 q 846 1301 819 1318 q 890 1147 890 1275 l 998 1147 q 967 1308 998 1251 q 879 1389 937 1366 q 738 1411 821 1411 "},"Ā":{"ha":1476,"x_min":43,"x_max":1432,"o":"m 43 0 l 195 0 l 326 239 l 1150 239 l 1280 0 l 1432 0 l 825 1042 l 651 1042 l 43 0 m 391 347 l 738 955 l 1085 347 l 391 347 m 477 1145 l 998 1145 l 998 1254 l 477 1254 l 477 1145 "},"Ą":{"ha":1476,"x_min":43,"x_max":1432,"o":"m 43 0 l 195 0 l 326 239 l 1150 239 l 1280 0 l 1432 0 l 825 1042 l 651 1042 l 43 0 m 391 347 l 738 955 l 1085 347 l 391 347 m 1412 -376 l 1412 -268 q 1318 -251 1354 -268 q 1282 -181 1282 -235 q 1412 14 1282 -72 l 1325 14 q 1179 -114 1225 -41 q 1159 -157 1166 -135 q 1152 -215 1152 -179 q 1174 -285 1152 -251 q 1412 -376 1236 -376 "},"Å":{"ha":1476,"x_min":43,"x_max":1432,"o":"m 43 0 l 195 0 l 326 239 l 1150 239 l 1280 0 l 1432 0 l 825 1042 l 651 1042 l 43 0 m 391 347 l 738 955 l 1085 347 l 391 347 m 738 1169 q 910 1225 844 1169 q 977 1386 977 1282 q 913 1545 977 1487 q 738 1603 850 1603 q 565 1547 631 1603 q 499 1386 499 1491 q 562 1227 499 1286 q 738 1169 625 1169 m 738 1256 q 639 1289 670 1256 q 608 1386 608 1321 q 627 1469 608 1445 q 738 1516 664 1516 q 837 1484 806 1516 q 868 1386 868 1451 q 849 1303 868 1327 q 738 1256 812 1256 "},"Ǻ":{"ha":1476,"x_min":43,"x_max":1432,"o":"m 43 0 l 195 0 l 326 239 l 1150 239 l 1280 0 l 1432 0 l 825 1042 l 651 1042 l 43 0 m 391 347 l 738 955 l 1085 347 l 391 347 m 738 1169 q 910 1225 844 1169 q 977 1386 977 1282 q 913 1545 977 1487 q 738 1603 850 1603 q 565 1547 631 1603 q 499 1386 499 1491 q 562 1227 499 1286 q 738 1169 625 1169 m 738 1256 q 639 1289 670 1256 q 608 1386 608 1321 q 627 1469 608 1445 q 738 1516 664 1516 q 837 1484 806 1516 q 868 1386 868 1451 q 849 1303 868 1327 q 738 1256 812 1256 m 586 1671 l 1013 1945 l 933 2062 l 543 1736 l 586 1671 "},"Ã":{"ha":1476,"x_min":43,"x_max":1432,"o":"m 43 0 l 195 0 l 326 239 l 1150 239 l 1280 0 l 1432 0 l 825 1042 l 651 1042 l 43 0 m 391 347 l 738 955 l 1085 347 l 391 347 m 434 1171 l 564 1171 q 573 1223 564 1211 q 617 1236 583 1236 q 671 1224 644 1236 q 720 1203 697 1213 q 868 1171 797 1171 q 979 1207 930 1171 q 1042 1344 1042 1254 l 911 1344 q 901 1292 911 1304 q 859 1279 891 1279 q 805 1291 831 1279 q 756 1312 779 1302 q 608 1345 678 1345 q 484 1300 534 1345 q 434 1171 434 1255 "},"Æ":{"ha":2083,"x_min":0,"x_max":1997,"o":"m 0 0 l 174 0 l 395 239 l 998 239 l 998 0 l 1997 0 l 1997 109 l 1128 109 l 1128 477 l 1953 477 l 1953 586 l 1128 586 l 1128 933 l 1997 933 l 1997 1042 l 955 1042 l 0 0 m 477 347 l 998 933 l 998 347 l 477 347 "},"Ǽ":{"ha":2083,"x_min":0,"x_max":1997,"o":"m 0 0 l 174 0 l 395 239 l 998 239 l 998 0 l 1997 0 l 1997 109 l 1128 109 l 1128 477 l 1953 477 l 1953 586 l 1128 586 l 1128 933 l 1997 933 l 1997 1042 l 955 1042 l 0 0 m 477 347 l 998 933 l 998 347 l 477 347 m 1371 1171 l 1799 1444 l 1718 1561 l 1328 1236 l 1371 1171 "},"Ǣ":{"ha":2083,"x_min":0,"x_max":1997,"o":"m 0 0 l 174 0 l 395 239 l 998 239 l 998 0 l 1997 0 l 1997 109 l 1128 109 l 1128 477 l 1953 477 l 1953 586 l 1128 586 l 1128 933 l 1997 933 l 1997 1042 l 955 1042 l 0 0 m 477 347 l 998 933 l 998 347 l 477 347 m 1263 1145 l 1784 1145 l 1784 1254 l 1263 1254 l 1263 1145 "},"B":{"ha":1432,"x_min":130,"x_max":1345,"o":"m 130 0 l 903 0 q 1117 13 1031 0 q 1253 59 1202 26 q 1324 151 1303 92 q 1345 304 1345 211 q 1295 482 1345 411 q 1128 564 1244 553 q 1259 631 1217 570 q 1302 783 1302 691 q 1266 942 1302 886 q 1154 1020 1230 998 q 960 1042 1078 1042 l 130 1042 l 130 0 m 260 608 l 260 933 l 960 933 q 1087 924 1041 933 q 1153 884 1133 916 q 1172 783 1172 852 q 1139 659 1172 696 q 1040 615 1107 623 q 867 608 972 608 l 260 608 m 260 109 l 260 499 l 867 499 q 1003 495 940 499 q 1114 473 1066 491 q 1188 416 1162 456 q 1215 304 1215 376 q 1201 194 1215 234 q 1152 136 1187 155 q 1056 113 1117 118 q 903 109 996 109 l 260 109 "},"Ḃ":{"ha":1432,"x_min":130,"x_max":1345,"o":"m 130 0 l 903 0 q 1117 13 1031 0 q 1253 59 1202 26 q 1324 151 1303 92 q 1345 304 1345 211 q 1295 482 1345 411 q 1128 564 1244 553 q 1259 631 1217 570 q 1302 783 1302 691 q 1266 942 1302 886 q 1154 1020 1230 998 q 960 1042 1078 1042 l 130 1042 l 130 0 m 260 608 l 260 933 l 960 933 q 1087 924 1041 933 q 1153 884 1133 916 q 1172 783 1172 852 q 1139 659 1172 696 q 1040 615 1107 623 q 867 608 972 608 l 260 608 m 260 109 l 260 499 l 867 499 q 1003 495 940 499 q 1114 473 1066 491 q 1188 416 1162 456 q 1215 304 1215 376 q 1201 194 1215 234 q 1152 136 1187 155 q 1056 113 1117 118 q 903 109 996 109 l 260 109 m 671 1172 l 802 1172 l 802 1302 l 671 1302 l 671 1172 "},"C":{"ha":1455,"x_min":87,"x_max":1366,"o":"m 87 507 q 109 235 87 340 q 186 75 131 131 q 340 -1 241 20 q 591 -22 438 -22 l 864 -22 q 1100 -9 1004 -22 q 1254 40 1196 3 q 1339 153 1313 78 q 1366 352 1366 227 l 1236 352 q 1218 200 1236 254 q 1159 123 1200 146 q 1045 96 1117 100 q 864 91 973 91 l 591 91 q 427 98 494 91 q 319 127 361 104 q 255 195 277 149 q 225 316 233 240 q 217 507 217 392 l 217 534 q 225 731 217 654 q 255 853 233 808 q 319 919 277 898 q 427 945 361 939 q 591 951 494 951 l 864 951 q 1045 945 973 951 q 1159 915 1117 939 q 1218 836 1200 890 q 1236 683 1236 781 l 1366 683 q 1339 883 1366 808 q 1254 998 1313 959 q 1100 1050 1196 1037 q 864 1063 1004 1063 l 591 1063 q 382 1052 469 1063 q 238 1010 295 1041 q 147 920 180 979 q 100 767 114 861 q 87 534 87 673 l 87 507 "},"Ć":{"ha":1455,"x_min":87,"x_max":1366,"o":"m 87 507 q 109 235 87 340 q 186 75 131 131 q 340 -1 241 20 q 591 -22 438 -22 l 864 -22 q 1100 -9 1004 -22 q 1254 40 1196 3 q 1339 153 1313 78 q 1366 352 1366 227 l 1236 352 q 1218 200 1236 254 q 1159 123 1200 146 q 1045 96 1117 100 q 864 91 973 91 l 591 91 q 427 98 494 91 q 319 127 361 104 q 255 195 277 149 q 225 316 233 240 q 217 507 217 392 l 217 534 q 225 731 217 654 q 255 853 233 808 q 319 919 277 898 q 427 945 361 939 q 591 951 494 951 l 864 951 q 1045 945 973 951 q 1159 915 1117 939 q 1218 836 1200 890 q 1236 683 1236 781 l 1366 683 q 1339 883 1366 808 q 1254 998 1313 959 q 1100 1050 1196 1037 q 864 1063 1004 1063 l 591 1063 q 382 1052 469 1063 q 238 1010 295 1041 q 147 920 180 979 q 100 767 114 861 q 87 534 87 673 l 87 507 m 569 1171 l 996 1444 l 916 1561 l 526 1236 l 569 1171 "},"Č":{"ha":1455,"x_min":87,"x_max":1366,"o":"m 87 507 q 109 235 87 340 q 186 75 131 131 q 340 -1 241 20 q 591 -22 438 -22 l 864 -22 q 1100 -9 1004 -22 q 1254 40 1196 3 q 1339 153 1313 78 q 1366 352 1366 227 l 1236 352 q 1218 200 1236 254 q 1159 123 1200 146 q 1045 96 1117 100 q 864 91 973 91 l 591 91 q 427 98 494 91 q 319 127 361 104 q 255 195 277 149 q 225 316 233 240 q 217 507 217 392 l 217 534 q 225 731 217 654 q 255 853 233 808 q 319 919 277 898 q 427 945 361 939 q 591 951 494 951 l 864 951 q 1045 945 973 951 q 1159 915 1117 939 q 1218 836 1200 890 q 1236 683 1236 781 l 1366 683 q 1339 883 1366 808 q 1254 998 1313 959 q 1100 1050 1196 1037 q 864 1063 1004 1063 l 591 1063 q 382 1052 469 1063 q 238 1010 295 1041 q 147 920 180 979 q 100 767 114 861 q 87 534 87 673 l 87 507 m 656 1153 l 786 1153 l 1003 1478 l 916 1544 l 721 1240 l 526 1544 l 439 1478 l 656 1153 "},"Ç":{"ha":1455,"x_min":87,"x_max":1366,"o":"m 87 507 q 109 235 87 340 q 186 75 131 131 q 340 -1 241 20 q 591 -22 438 -22 l 864 -22 q 1100 -9 1004 -22 q 1254 40 1196 3 q 1339 153 1313 78 q 1366 352 1366 227 l 1236 352 q 1218 200 1236 254 q 1159 123 1200 146 q 1045 96 1117 100 q 864 91 973 91 l 591 91 q 427 98 494 91 q 319 127 361 104 q 255 195 277 149 q 225 316 233 240 q 217 507 217 392 l 217 534 q 225 731 217 654 q 255 853 233 808 q 319 919 277 898 q 427 945 361 939 q 591 951 494 951 l 864 951 q 1045 945 973 951 q 1159 915 1117 939 q 1218 836 1200 890 q 1236 683 1236 781 l 1366 683 q 1339 883 1366 808 q 1254 998 1313 959 q 1100 1050 1196 1037 q 864 1063 1004 1063 l 591 1063 q 382 1052 469 1063 q 238 1010 295 1041 q 147 920 180 979 q 100 767 114 861 q 87 534 87 673 l 87 507 m 653 -369 q 789 -355 730 -369 q 881 -308 848 -342 q 913 -216 913 -275 q 870 -116 913 -146 q 740 -87 827 -87 l 740 43 l 653 43 l 653 -152 q 747 -162 711 -152 q 783 -203 783 -172 q 764 -241 783 -229 q 714 -257 744 -254 q 653 -260 684 -260 l 653 -369 "},"Ĉ":{"ha":1455,"x_min":87,"x_max":1366,"o":"m 87 507 q 109 235 87 340 q 186 75 131 131 q 340 -1 241 20 q 591 -22 438 -22 l 864 -22 q 1100 -9 1004 -22 q 1254 40 1196 3 q 1339 153 1313 78 q 1366 352 1366 227 l 1236 352 q 1218 200 1236 254 q 1159 123 1200 146 q 1045 96 1117 100 q 864 91 973 91 l 591 91 q 427 98 494 91 q 319 127 361 104 q 255 195 277 149 q 225 316 233 240 q 217 507 217 392 l 217 534 q 225 731 217 654 q 255 853 233 808 q 319 919 277 898 q 427 945 361 939 q 591 951 494 951 l 864 951 q 1045 945 973 951 q 1159 915 1117 939 q 1218 836 1200 890 q 1236 683 1236 781 l 1366 683 q 1339 883 1366 808 q 1254 998 1313 959 q 1100 1050 1196 1037 q 864 1063 1004 1063 l 591 1063 q 382 1052 469 1063 q 238 1010 295 1041 q 147 920 180 979 q 100 767 114 861 q 87 534 87 673 l 87 507 m 526 1149 l 721 1453 l 916 1149 l 1003 1214 l 786 1539 l 656 1539 l 439 1214 l 526 1149 "},"Ċ":{"ha":1455,"x_min":87,"x_max":1366,"o":"m 87 507 q 109 235 87 340 q 186 75 131 131 q 340 -1 241 20 q 591 -22 438 -22 l 864 -22 q 1100 -9 1004 -22 q 1254 40 1196 3 q 1339 153 1313 78 q 1366 352 1366 227 l 1236 352 q 1218 200 1236 254 q 1159 123 1200 146 q 1045 96 1117 100 q 864 91 973 91 l 591 91 q 427 98 494 91 q 319 127 361 104 q 255 195 277 149 q 225 316 233 240 q 217 507 217 392 l 217 534 q 225 731 217 654 q 255 853 233 808 q 319 919 277 898 q 427 945 361 939 q 591 951 494 951 l 864 951 q 1045 945 973 951 q 1159 915 1117 939 q 1218 836 1200 890 q 1236 683 1236 781 l 1366 683 q 1339 883 1366 808 q 1254 998 1313 959 q 1100 1050 1196 1037 q 864 1063 1004 1063 l 591 1063 q 382 1052 469 1063 q 238 1010 295 1041 q 147 920 180 979 q 100 767 114 861 q 87 534 87 673 l 87 507 m 656 1172 l 786 1172 l 786 1302 l 656 1302 l 656 1172 "},"D":{"ha":1497,"x_min":133,"x_max":1410,"o":"m 133 0 l 906 0 q 1157 20 1059 0 q 1311 94 1255 40 q 1388 248 1366 148 q 1410 507 1410 348 l 1410 534 q 1388 800 1410 699 q 1311 952 1366 900 q 1157 1023 1255 1005 q 906 1042 1059 1042 l 133 1042 l 133 0 m 263 113 l 263 929 l 906 929 q 1069 924 1003 929 q 1178 898 1136 918 q 1241 836 1219 878 q 1272 720 1263 793 q 1280 534 1280 647 l 1280 507 q 1266 292 1280 372 q 1214 174 1253 213 q 1101 124 1175 136 q 906 113 1027 113 l 263 113 "},"Ǳ":{"ha":2884,"x_min":133,"x_max":2799,"o":"m 133 0 l 906 0 q 1157 20 1059 0 q 1311 94 1255 40 q 1388 248 1366 148 q 1410 507 1410 348 l 1410 534 q 1388 800 1410 699 q 1311 952 1366 900 q 1157 1023 1255 1005 q 906 1042 1059 1042 l 133 1042 l 133 0 m 263 113 l 263 929 l 906 929 q 1069 924 1003 929 q 1178 898 1136 918 q 1241 836 1219 878 q 1272 720 1263 793 q 1280 534 1280 647 l 1280 507 q 1266 292 1280 372 q 1214 174 1253 213 q 1101 124 1175 136 q 906 113 1027 113 l 263 113 m 1584 0 l 2799 0 l 2799 109 l 1764 109 l 2777 933 l 2777 1042 l 1627 1042 l 1627 933 l 2591 933 l 1584 109 l 1584 0 "},"Ǆ":{"ha":2884,"x_min":133,"x_max":2799,"o":"m 133 0 l 906 0 q 1157 20 1059 0 q 1311 94 1255 40 q 1388 248 1366 148 q 1410 507 1410 348 l 1410 534 q 1388 800 1410 699 q 1311 952 1366 900 q 1157 1023 1255 1005 q 906 1042 1059 1042 l 133 1042 l 133 0 m 263 113 l 263 929 l 906 929 q 1069 924 1003 929 q 1178 898 1136 918 q 1241 836 1219 878 q 1272 720 1263 793 q 1280 534 1280 647 l 1280 507 q 1266 292 1280 372 q 1214 174 1253 213 q 1101 124 1175 136 q 906 113 1027 113 l 263 113 m 1584 0 l 2799 0 l 2799 109 l 1764 109 l 2777 933 l 2777 1042 l 1627 1042 l 1627 933 l 2591 933 l 1584 109 l 1584 0 m 2125 1153 l 2256 1153 l 2473 1478 l 2386 1544 l 2190 1240 l 1995 1544 l 1908 1478 l 2125 1153 "},"Ď":{"ha":1497,"x_min":133,"x_max":1410,"o":"m 133 0 l 906 0 q 1157 20 1059 0 q 1311 94 1255 40 q 1388 248 1366 148 q 1410 507 1410 348 l 1410 534 q 1388 800 1410 699 q 1311 952 1366 900 q 1157 1023 1255 1005 q 906 1042 1059 1042 l 133 1042 l 133 0 m 263 113 l 263 929 l 906 929 q 1069 924 1003 929 q 1178 898 1136 918 q 1241 836 1219 878 q 1272 720 1263 793 q 1280 534 1280 647 l 1280 507 q 1266 292 1280 372 q 1214 174 1253 213 q 1101 124 1175 136 q 906 113 1027 113 l 263 113 m 692 1153 l 822 1153 l 1039 1478 l 952 1544 l 757 1240 l 562 1544 l 475 1478 l 692 1153 "},"Đ":{"ha":1432,"x_min":0,"x_max":1345,"o":"m 87 0 l 867 0 q 1203 56 1098 0 q 1309 173 1278 96 q 1343 359 1339 249 q 1345 436 1344 396 q 1345 521 1345 477 l 1345 556 q 1337 757 1345 663 q 1286 914 1329 850 q 1203 985 1258 956 q 867 1042 1098 1042 l 87 1042 l 87 586 l 0 586 l 0 477 l 87 477 l 87 0 m 217 109 l 217 477 l 521 477 l 521 586 l 217 586 l 217 933 l 867 933 q 1099 914 1048 933 q 1169 870 1147 897 q 1202 793 1191 844 q 1215 521 1215 730 q 1204 256 1215 312 q 1173 177 1193 206 q 1112 133 1154 149 q 867 109 1048 109 l 217 109 "},"Ḋ":{"ha":1497,"x_min":133,"x_max":1410,"o":"m 133 0 l 906 0 q 1157 20 1059 0 q 1311 94 1255 40 q 1388 248 1366 148 q 1410 507 1410 348 l 1410 534 q 1388 800 1410 699 q 1311 952 1366 900 q 1157 1023 1255 1005 q 906 1042 1059 1042 l 133 1042 l 133 0 m 263 113 l 263 929 l 906 929 q 1069 924 1003 929 q 1178 898 1136 918 q 1241 836 1219 878 q 1272 720 1263 793 q 1280 534 1280 647 l 1280 507 q 1266 292 1280 372 q 1214 174 1253 213 q 1101 124 1175 136 q 906 113 1027 113 l 263 113 m 692 1172 l 822 1172 l 822 1302 l 692 1302 l 692 1172 "},"Ɖ":{"ha":1432,"x_min":0,"x_max":1345,"o":"m 87 0 l 867 0 q 1203 56 1098 0 q 1309 173 1278 96 q 1343 359 1339 249 q 1345 436 1344 396 q 1345 521 1345 477 l 1345 556 q 1337 757 1345 663 q 1286 914 1329 850 q 1203 985 1258 956 q 867 1042 1098 1042 l 87 1042 l 87 586 l 0 586 l 0 477 l 87 477 l 87 0 m 217 109 l 217 477 l 521 477 l 521 586 l 217 586 l 217 933 l 867 933 q 1099 914 1048 933 q 1169 870 1147 897 q 1202 793 1191 844 q 1215 521 1215 730 q 1204 256 1215 312 q 1173 177 1193 206 q 1112 133 1154 149 q 867 109 1048 109 l 217 109 "},"ǲ":{"ha":2495,"x_min":133,"x_max":2408,"o":"m 133 0 l 906 0 q 1157 20 1059 0 q 1311 94 1255 40 q 1388 248 1366 148 q 1410 507 1410 348 l 1410 534 q 1388 800 1410 699 q 1311 952 1366 900 q 1157 1023 1255 1005 q 906 1042 1059 1042 l 133 1042 l 133 0 m 263 113 l 263 929 l 906 929 q 1069 924 1003 929 q 1178 898 1136 918 q 1241 836 1219 878 q 1272 720 1263 793 q 1280 534 1280 647 l 1280 507 q 1266 292 1280 372 q 1214 174 1253 213 q 1101 124 1175 136 q 906 113 1027 113 l 263 113 m 1584 0 l 2408 0 l 2408 102 l 1758 102 l 2408 673 l 2408 781 l 1627 781 l 1627 681 l 2243 681 l 1584 109 l 1584 0 "},"ǅ":{"ha":2495,"x_min":133,"x_max":2408,"o":"m 133 0 l 906 0 q 1157 20 1059 0 q 1311 94 1255 40 q 1388 248 1366 148 q 1410 507 1410 348 l 1410 534 q 1388 800 1410 699 q 1311 952 1366 900 q 1157 1023 1255 1005 q 906 1042 1059 1042 l 133 1042 l 133 0 m 263 113 l 263 929 l 906 929 q 1069 924 1003 929 q 1178 898 1136 918 q 1241 836 1219 878 q 1272 720 1263 793 q 1280 534 1280 647 l 1280 507 q 1266 292 1280 372 q 1214 174 1253 213 q 1101 124 1175 136 q 906 113 1027 113 l 263 113 m 1584 0 l 2408 0 l 2408 102 l 1758 102 l 2408 673 l 2408 781 l 1627 781 l 1627 681 l 2243 681 l 1584 109 l 1584 0 m 1931 892 l 2061 892 l 2278 1218 l 2191 1283 l 1996 979 l 1801 1283 l 1714 1218 l 1931 892 "},"Ð":{"ha":1432,"x_min":0,"x_max":1345,"o":"m 87 0 l 867 0 q 1203 56 1098 0 q 1309 173 1278 96 q 1343 359 1339 249 q 1345 436 1344 396 q 1345 521 1345 477 l 1345 556 q 1337 757 1345 663 q 1286 914 1329 850 q 1203 985 1258 956 q 867 1042 1098 1042 l 87 1042 l 87 586 l 0 586 l 0 477 l 87 477 l 87 0 m 217 109 l 217 477 l 521 477 l 521 586 l 217 586 l 217 933 l 867 933 q 1099 914 1048 933 q 1169 870 1147 897 q 1202 793 1191 844 q 1215 521 1215 730 q 1204 256 1215 312 q 1173 177 1193 206 q 1112 133 1154 149 q 867 109 1048 109 l 217 109 "},"E":{"ha":1215,"x_min":130,"x_max":1172,"o":"m 130 0 l 1172 0 l 1172 109 l 260 109 l 260 477 l 1116 477 l 1116 586 l 260 586 l 260 933 l 1153 933 l 1153 1042 l 130 1042 l 130 0 "},"É":{"ha":1215,"x_min":130,"x_max":1172,"o":"m 130 0 l 1172 0 l 1172 109 l 260 109 l 260 477 l 1116 477 l 1116 586 l 260 586 l 260 933 l 1153 933 l 1153 1042 l 130 1042 l 130 0 m 496 1171 l 924 1444 l 844 1561 l 453 1236 l 496 1171 "},"Ĕ":{"ha":1215,"x_min":130,"x_max":1172,"o":"m 130 0 l 1172 0 l 1172 109 l 260 109 l 260 477 l 1116 477 l 1116 586 l 260 586 l 260 933 l 1153 933 l 1153 1042 l 130 1042 l 130 0 m 648 1147 q 789 1170 731 1147 q 878 1250 847 1193 q 909 1411 909 1308 l 800 1411 q 757 1257 800 1283 q 648 1240 730 1240 q 543 1255 567 1240 q 496 1411 496 1283 l 388 1411 q 419 1250 388 1308 q 508 1170 450 1193 q 648 1147 566 1147 "},"Ě":{"ha":1215,"x_min":130,"x_max":1172,"o":"m 130 0 l 1172 0 l 1172 109 l 260 109 l 260 477 l 1116 477 l 1116 586 l 260 586 l 260 933 l 1153 933 l 1153 1042 l 130 1042 l 130 0 m 583 1153 l 713 1153 l 930 1478 l 844 1544 l 648 1240 l 453 1544 l 366 1478 l 583 1153 "},"Ȩ":{"ha":1215,"x_min":130,"x_max":1172,"o":"m 130 0 l 1172 0 l 1172 109 l 260 109 l 260 477 l 1116 477 l 1116 586 l 260 586 l 260 933 l 1153 933 l 1153 1042 l 130 1042 l 130 0 m 554 -369 q 690 -355 631 -369 q 782 -308 749 -342 q 814 -216 814 -275 q 771 -116 814 -146 q 641 -87 728 -87 l 641 43 l 554 43 l 554 -152 q 648 -162 612 -152 q 684 -203 684 -172 q 665 -241 684 -229 q 615 -257 645 -254 q 554 -260 585 -260 l 554 -369 "},"Ê":{"ha":1215,"x_min":130,"x_max":1172,"o":"m 130 0 l 1172 0 l 1172 109 l 260 109 l 260 477 l 1116 477 l 1116 586 l 260 586 l 260 933 l 1153 933 l 1153 1042 l 130 1042 l 130 0 m 453 1149 l 648 1453 l 844 1149 l 930 1214 l 713 1539 l 583 1539 l 366 1214 l 453 1149 "},"Ȅ":{"ha":1215,"x_min":130,"x_max":1172,"o":"m 130 0 l 1172 0 l 1172 109 l 260 109 l 260 477 l 1116 477 l 1116 586 l 260 586 l 260 933 l 1153 933 l 1153 1042 l 130 1042 l 130 0 "},"Ë":{"ha":1215,"x_min":130,"x_max":1172,"o":"m 130 0 l 1172 0 l 1172 109 l 260 109 l 260 477 l 1116 477 l 1116 586 l 260 586 l 260 933 l 1153 933 l 1153 1042 l 130 1042 l 130 0 m 823 1172 l 954 1172 l 954 1302 l 823 1302 l 823 1172 m 343 1172 l 473 1172 l 473 1302 l 343 1302 l 343 1172 "},"Ė":{"ha":1215,"x_min":130,"x_max":1172,"o":"m 130 0 l 1172 0 l 1172 109 l 260 109 l 260 477 l 1116 477 l 1116 586 l 260 586 l 260 933 l 1153 933 l 1153 1042 l 130 1042 l 130 0 m 583 1172 l 713 1172 l 713 1302 l 583 1302 l 583 1172 "},"È":{"ha":1215,"x_min":130,"x_max":1172,"o":"m 130 0 l 1172 0 l 1172 109 l 260 109 l 260 477 l 1116 477 l 1116 586 l 260 586 l 260 933 l 1153 933 l 1153 1042 l 130 1042 l 130 0 m 886 1169 l 929 1234 l 538 1560 l 458 1443 l 886 1169 "},"Ȇ":{"ha":1215,"x_min":130,"x_max":1172,"o":"m 130 0 l 1172 0 l 1172 109 l 260 109 l 260 477 l 1116 477 l 1116 586 l 260 586 l 260 933 l 1153 933 l 1153 1042 l 130 1042 l 130 0 m 648 1411 q 508 1389 566 1411 q 419 1308 450 1366 q 388 1147 388 1251 l 496 1147 q 543 1303 496 1275 q 648 1318 567 1318 q 757 1301 730 1318 q 800 1147 800 1275 l 909 1147 q 878 1308 909 1251 q 789 1389 847 1366 q 648 1411 731 1411 "},"Ē":{"ha":1215,"x_min":130,"x_max":1172,"o":"m 130 0 l 1172 0 l 1172 109 l 260 109 l 260 477 l 1116 477 l 1116 586 l 260 586 l 260 933 l 1153 933 l 1153 1042 l 130 1042 l 130 0 m 388 1145 l 909 1145 l 909 1254 l 388 1254 l 388 1145 "},"Ę":{"ha":1215,"x_min":130,"x_max":1172,"o":"m 130 0 l 1172 0 l 1172 109 l 260 109 l 260 477 l 1116 477 l 1116 586 l 260 586 l 260 933 l 1153 933 l 1153 1042 l 130 1042 l 130 0 m 1162 -376 l 1162 -268 q 1068 -251 1105 -268 q 1032 -181 1032 -235 q 1162 14 1032 -72 l 1076 14 q 929 -114 975 -41 q 909 -157 916 -135 q 902 -215 902 -179 q 924 -285 902 -251 q 1162 -376 987 -376 "},"Ẽ":{"ha":1215,"x_min":130,"x_max":1172,"o":"m 130 0 l 1172 0 l 1172 109 l 260 109 l 260 477 l 1116 477 l 1116 586 l 260 586 l 260 933 l 1153 933 l 1153 1042 l 130 1042 l 130 0 m 345 1171 l 475 1171 q 484 1223 475 1211 q 528 1236 493 1236 q 581 1224 555 1236 q 630 1203 608 1213 q 779 1171 707 1171 q 890 1207 841 1171 q 952 1344 952 1254 l 822 1344 q 812 1292 822 1304 q 769 1279 802 1279 q 715 1291 742 1279 q 667 1312 689 1302 q 518 1345 589 1345 q 394 1300 444 1345 q 345 1171 345 1255 "},"F":{"ha":1172,"x_min":130,"x_max":1112,"o":"m 130 0 l 260 0 l 260 477 l 1074 477 l 1074 586 l 260 586 l 260 933 l 1112 933 l 1112 1042 l 130 1042 l 130 0 "},"Ḟ":{"ha":1172,"x_min":130,"x_max":1112,"o":"m 130 0 l 260 0 l 260 477 l 1074 477 l 1074 586 l 260 586 l 260 933 l 1112 933 l 1112 1042 l 130 1042 l 130 0 m 521 1172 l 651 1172 l 651 1302 l 521 1302 l 521 1172 "},"G":{"ha":1476,"x_min":87,"x_max":1366,"o":"m 87 507 q 109 235 87 340 q 186 75 131 131 q 340 -1 241 20 q 591 -22 438 -22 l 891 -22 q 1123 -5 1031 -22 q 1268 57 1215 12 q 1343 184 1321 102 q 1366 399 1366 267 l 1366 548 l 737 548 l 737 439 l 1236 439 l 1236 399 q 1223 232 1236 294 q 1176 139 1211 170 q 1072 100 1140 109 q 891 91 1003 91 l 591 91 q 427 98 494 91 q 319 127 361 104 q 255 195 277 149 q 225 316 233 240 q 217 507 217 392 l 217 534 q 225 731 217 654 q 255 853 233 808 q 319 919 277 898 q 427 945 361 939 q 591 951 494 951 l 846 951 q 1042 946 967 951 q 1156 921 1117 941 q 1210 856 1196 901 q 1224 730 1224 811 l 1354 730 q 1334 904 1354 838 q 1260 1004 1314 970 q 1106 1051 1206 1039 q 846 1063 1006 1063 l 591 1063 q 382 1052 469 1063 q 238 1010 295 1041 q 147 920 180 979 q 100 767 114 861 q 87 534 87 673 l 87 507 "},"Ǵ":{"ha":1476,"x_min":87,"x_max":1366,"o":"m 87 507 q 109 235 87 340 q 186 75 131 131 q 340 -1 241 20 q 591 -22 438 -22 l 891 -22 q 1123 -5 1031 -22 q 1268 57 1215 12 q 1343 184 1321 102 q 1366 399 1366 267 l 1366 548 l 737 548 l 737 439 l 1236 439 l 1236 399 q 1223 232 1236 294 q 1176 139 1211 170 q 1072 100 1140 109 q 891 91 1003 91 l 591 91 q 427 98 494 91 q 319 127 361 104 q 255 195 277 149 q 225 316 233 240 q 217 507 217 392 l 217 534 q 225 731 217 654 q 255 853 233 808 q 319 919 277 898 q 427 945 361 939 q 591 951 494 951 l 846 951 q 1042 946 967 951 q 1156 921 1117 941 q 1210 856 1196 901 q 1224 730 1224 811 l 1354 730 q 1334 904 1354 838 q 1260 1004 1314 970 q 1106 1051 1206 1039 q 846 1063 1006 1063 l 591 1063 q 382 1052 469 1063 q 238 1010 295 1041 q 147 920 180 979 q 100 767 114 861 q 87 534 87 673 l 87 507 m 587 1171 l 1014 1444 l 934 1561 l 543 1236 l 587 1171 "},"Ğ":{"ha":1476,"x_min":87,"x_max":1366,"o":"m 87 507 q 109 235 87 340 q 186 75 131 131 q 340 -1 241 20 q 591 -22 438 -22 l 891 -22 q 1123 -5 1031 -22 q 1268 57 1215 12 q 1343 184 1321 102 q 1366 399 1366 267 l 1366 548 l 737 548 l 737 439 l 1236 439 l 1236 399 q 1223 232 1236 294 q 1176 139 1211 170 q 1072 100 1140 109 q 891 91 1003 91 l 591 91 q 427 98 494 91 q 319 127 361 104 q 255 195 277 149 q 225 316 233 240 q 217 507 217 392 l 217 534 q 225 731 217 654 q 255 853 233 808 q 319 919 277 898 q 427 945 361 939 q 591 951 494 951 l 846 951 q 1042 946 967 951 q 1156 921 1117 941 q 1210 856 1196 901 q 1224 730 1224 811 l 1354 730 q 1334 904 1354 838 q 1260 1004 1314 970 q 1106 1051 1206 1039 q 846 1063 1006 1063 l 591 1063 q 382 1052 469 1063 q 238 1010 295 1041 q 147 920 180 979 q 100 767 114 861 q 87 534 87 673 l 87 507 m 739 1147 q 879 1170 821 1147 q 968 1250 937 1193 q 999 1411 999 1308 l 890 1411 q 847 1257 890 1283 q 739 1240 820 1240 q 633 1255 657 1240 q 587 1411 587 1283 l 478 1411 q 509 1250 478 1308 q 598 1170 540 1193 q 739 1147 656 1147 "},"Ǧ":{"ha":1476,"x_min":87,"x_max":1366,"o":"m 87 507 q 109 235 87 340 q 186 75 131 131 q 340 -1 241 20 q 591 -22 438 -22 l 891 -22 q 1123 -5 1031 -22 q 1268 57 1215 12 q 1343 184 1321 102 q 1366 399 1366 267 l 1366 548 l 737 548 l 737 439 l 1236 439 l 1236 399 q 1223 232 1236 294 q 1176 139 1211 170 q 1072 100 1140 109 q 891 91 1003 91 l 591 91 q 427 98 494 91 q 319 127 361 104 q 255 195 277 149 q 225 316 233 240 q 217 507 217 392 l 217 534 q 225 731 217 654 q 255 853 233 808 q 319 919 277 898 q 427 945 361 939 q 591 951 494 951 l 846 951 q 1042 946 967 951 q 1156 921 1117 941 q 1210 856 1196 901 q 1224 730 1224 811 l 1354 730 q 1334 904 1354 838 q 1260 1004 1314 970 q 1106 1051 1206 1039 q 846 1063 1006 1063 l 591 1063 q 382 1052 469 1063 q 238 1010 295 1041 q 147 920 180 979 q 100 767 114 861 q 87 534 87 673 l 87 507 m 673 1153 l 804 1153 l 1021 1478 l 934 1544 l 739 1240 l 543 1544 l 456 1478 l 673 1153 "},"Ĝ":{"ha":1476,"x_min":87,"x_max":1366,"o":"m 87 507 q 109 235 87 340 q 186 75 131 131 q 340 -1 241 20 q 591 -22 438 -22 l 891 -22 q 1123 -5 1031 -22 q 1268 57 1215 12 q 1343 184 1321 102 q 1366 399 1366 267 l 1366 548 l 737 548 l 737 439 l 1236 439 l 1236 399 q 1223 232 1236 294 q 1176 139 1211 170 q 1072 100 1140 109 q 891 91 1003 91 l 591 91 q 427 98 494 91 q 319 127 361 104 q 255 195 277 149 q 225 316 233 240 q 217 507 217 392 l 217 534 q 225 731 217 654 q 255 853 233 808 q 319 919 277 898 q 427 945 361 939 q 591 951 494 951 l 846 951 q 1042 946 967 951 q 1156 921 1117 941 q 1210 856 1196 901 q 1224 730 1224 811 l 1354 730 q 1334 904 1354 838 q 1260 1004 1314 970 q 1106 1051 1206 1039 q 846 1063 1006 1063 l 591 1063 q 382 1052 469 1063 q 238 1010 295 1041 q 147 920 180 979 q 100 767 114 861 q 87 534 87 673 l 87 507 m 543 1149 l 739 1453 l 934 1149 l 1021 1214 l 804 1539 l 673 1539 l 456 1214 l 543 1149 "},"Ģ":{"ha":1476,"x_min":87,"x_max":1366,"o":"m 87 507 q 109 235 87 340 q 186 75 131 131 q 340 -1 241 20 q 591 -22 438 -22 l 891 -22 q 1123 -5 1031 -22 q 1268 57 1215 12 q 1343 184 1321 102 q 1366 399 1366 267 l 1366 548 l 737 548 l 737 439 l 1236 439 l 1236 399 q 1223 232 1236 294 q 1176 139 1211 170 q 1072 100 1140 109 q 891 91 1003 91 l 591 91 q 427 98 494 91 q 319 127 361 104 q 255 195 277 149 q 225 316 233 240 q 217 507 217 392 l 217 534 q 225 731 217 654 q 255 853 233 808 q 319 919 277 898 q 427 945 361 939 q 591 951 494 951 l 846 951 q 1042 946 967 951 q 1156 921 1117 941 q 1210 856 1196 901 q 1224 730 1224 811 l 1354 730 q 1334 904 1354 838 q 1260 1004 1314 970 q 1106 1051 1206 1039 q 846 1063 1006 1063 l 591 1063 q 382 1052 469 1063 q 238 1010 295 1041 q 147 920 180 979 q 100 767 114 861 q 87 534 87 673 l 87 507 m 804 -103 l 673 -103 l 630 -363 l 717 -363 l 804 -103 "},"Ġ":{"ha":1476,"x_min":87,"x_max":1366,"o":"m 87 507 q 109 235 87 340 q 186 75 131 131 q 340 -1 241 20 q 591 -22 438 -22 l 891 -22 q 1123 -5 1031 -22 q 1268 57 1215 12 q 1343 184 1321 102 q 1366 399 1366 267 l 1366 548 l 737 548 l 737 439 l 1236 439 l 1236 399 q 1223 232 1236 294 q 1176 139 1211 170 q 1072 100 1140 109 q 891 91 1003 91 l 591 91 q 427 98 494 91 q 319 127 361 104 q 255 195 277 149 q 225 316 233 240 q 217 507 217 392 l 217 534 q 225 731 217 654 q 255 853 233 808 q 319 919 277 898 q 427 945 361 939 q 591 951 494 951 l 846 951 q 1042 946 967 951 q 1156 921 1117 941 q 1210 856 1196 901 q 1224 730 1224 811 l 1354 730 q 1334 904 1354 838 q 1260 1004 1314 970 q 1106 1051 1206 1039 q 846 1063 1006 1063 l 591 1063 q 382 1052 469 1063 q 238 1010 295 1041 q 147 920 180 979 q 100 767 114 861 q 87 534 87 673 l 87 507 m 673 1172 l 804 1172 l 804 1302 l 673 1302 l 673 1172 "},"H":{"ha":1481,"x_min":133,"x_max":1348,"o":"m 133 0 l 263 0 l 263 477 l 1218 477 l 1218 0 l 1348 0 l 1348 1042 l 1218 1042 l 1218 586 l 263 586 l 263 1042 l 133 1042 l 133 0 "},"Ħ":{"ha":1476,"x_min":130,"x_max":1345,"o":"m 130 0 l 260 0 l 260 477 l 1215 477 l 1215 0 l 1345 0 l 1345 1042 l 1215 1042 l 1215 586 l 260 586 l 260 1042 l 130 1042 l 130 0 "},"Ȟ":{"ha":1481,"x_min":133,"x_max":1348,"o":"m 133 0 l 263 0 l 263 477 l 1218 477 l 1218 0 l 1348 0 l 1348 1042 l 1218 1042 l 1218 586 l 263 586 l 263 1042 l 133 1042 l 133 0 m 675 1153 l 806 1153 l 1023 1478 l 936 1544 l 741 1240 l 545 1544 l 458 1478 l 675 1153 "},"Ĥ":{"ha":1481,"x_min":133,"x_max":1348,"o":"m 133 0 l 263 0 l 263 477 l 1218 477 l 1218 0 l 1348 0 l 1348 1042 l 1218 1042 l 1218 586 l 263 586 l 263 1042 l 133 1042 l 133 0 m 545 1149 l 741 1453 l 936 1149 l 1023 1214 l 806 1539 l 675 1539 l 458 1214 l 545 1149 "},"I":{"ha":391,"x_min":130,"x_max":260,"o":"m 130 0 l 260 0 l 260 1042 l 130 1042 l 130 0 "},"Ĳ":{"ha":1554,"x_min":130,"x_max":1432,"o":"m 130 0 l 260 0 l 260 1042 l 130 1042 l 130 0 m 781 0 l 1085 0 q 1356 71 1278 0 q 1432 304 1432 138 l 1432 1042 l 1302 1042 l 1302 304 q 1252 148 1302 189 q 1085 106 1202 106 l 781 106 q 700 113 734 106 q 646 145 667 119 q 608 347 608 193 l 608 391 l 477 391 l 477 347 q 488 183 477 248 q 579 37 506 75 q 781 0 652 0 "},"Í":{"ha":391,"x_min":0,"x_max":471,"o":"m 130 0 l 260 0 l 260 1042 l 130 1042 l 130 0 m 43 1171 l 471 1444 l 391 1561 l 0 1236 l 43 1171 "},"Ĭ":{"ha":391,"x_min":-65,"x_max":456,"o":"m 130 0 l 260 0 l 260 1042 l 130 1042 l 130 0 m 195 1147 q 336 1170 278 1147 q 425 1250 394 1193 q 456 1411 456 1308 l 347 1411 q 304 1257 347 1283 q 195 1240 277 1240 q 90 1255 114 1240 q 43 1411 43 1283 l -65 1411 q -34 1250 -65 1308 q 55 1170 -3 1193 q 195 1147 113 1147 "},"Ǐ":{"ha":391,"x_min":-87,"x_max":477,"o":"m 130 0 l 260 0 l 260 1042 l 130 1042 l 130 0 m 130 1153 l 260 1153 l 477 1478 l 391 1544 l 195 1240 l 0 1544 l -87 1478 l 130 1153 "},"Î":{"ha":391,"x_min":-87,"x_max":477,"o":"m 130 0 l 260 0 l 260 1042 l 130 1042 l 130 0 m 0 1149 l 195 1453 l 391 1149 l 477 1214 l 260 1539 l 130 1539 l -87 1214 l 0 1149 "},"Ȉ":{"ha":391,"x_min":130,"x_max":260,"o":"m 130 0 l 260 0 l 260 1042 l 130 1042 l 130 0 "},"Ï":{"ha":391,"x_min":-110,"x_max":500,"o":"m 130 0 l 260 0 l 260 1042 l 130 1042 l 130 0 m 370 1172 l 500 1172 l 500 1302 l 370 1302 l 370 1172 m -110 1172 l 20 1172 l 20 1302 l -110 1302 l -110 1172 "},"İ":{"ha":391,"x_min":130,"x_max":260,"o":"m 130 0 l 260 0 l 260 1042 l 130 1042 l 130 0 m 130 1172 l 260 1172 l 260 1302 l 130 1302 l 130 1172 "},"Ì":{"ha":391,"x_min":5,"x_max":476,"o":"m 130 0 l 260 0 l 260 1042 l 130 1042 l 130 0 m 433 1169 l 476 1234 l 85 1560 l 5 1443 l 433 1169 "},"Ȋ":{"ha":391,"x_min":-65,"x_max":456,"o":"m 130 0 l 260 0 l 260 1042 l 130 1042 l 130 0 m 195 1411 q 55 1389 113 1411 q -34 1308 -3 1366 q -65 1147 -65 1251 l 43 1147 q 90 1303 43 1275 q 195 1318 114 1318 q 304 1301 277 1318 q 347 1147 347 1275 l 456 1147 q 425 1308 456 1251 q 336 1389 394 1366 q 195 1411 278 1411 "},"Ī":{"ha":391,"x_min":-65,"x_max":456,"o":"m 130 0 l 260 0 l 260 1042 l 130 1042 l 130 0 m -65 1145 l 456 1145 l 456 1254 l -65 1254 l -65 1145 "},"Į":{"ha":391,"x_min":-5,"x_max":260,"o":"m 130 0 l 260 0 l 260 1042 l 130 1042 l 130 0 m 256 -377 l 256 -269 q 162 -252 198 -269 q 125 -182 125 -235 q 256 14 125 -73 l 169 14 q 22 -115 68 -41 q 2 -158 9 -136 q -5 -216 -5 -180 q 18 -286 -5 -252 q 256 -377 80 -377 "},"Ĩ":{"ha":391,"x_min":-109,"x_max":499,"o":"m 130 0 l 260 0 l 260 1042 l 130 1042 l 130 0 m -109 1171 l 22 1171 q 31 1223 22 1211 q 75 1236 40 1236 q 128 1224 102 1236 q 177 1203 155 1213 q 326 1171 254 1171 q 437 1207 388 1171 q 499 1344 499 1254 l 369 1344 q 359 1292 369 1304 q 316 1279 349 1279 q 262 1291 289 1279 q 214 1312 236 1302 q 65 1345 136 1345 q -59 1300 -9 1345 q -109 1171 -109 1255 "},"J":{"ha":1163,"x_min":87,"x_max":1042,"o":"m 391 0 l 694 0 q 966 71 887 0 q 1042 304 1042 138 l 1042 1042 l 911 1042 l 911 304 q 862 148 911 189 q 694 106 812 106 l 391 106 q 310 113 343 106 q 255 145 276 119 q 217 347 217 193 l 217 391 l 87 391 l 87 347 q 98 183 87 248 q 188 37 115 75 q 391 0 261 0 "},"Ĵ":{"ha":1163,"x_min":87,"x_max":1259,"o":"m 391 0 l 694 0 q 966 71 887 0 q 1042 304 1042 138 l 1042 1042 l 911 1042 l 911 304 q 862 148 911 189 q 694 106 812 106 l 391 106 q 310 113 343 106 q 255 145 276 119 q 217 347 217 193 l 217 391 l 87 391 l 87 347 q 98 183 87 248 q 188 37 115 75 q 391 0 261 0 m 782 1149 l 977 1453 l 1173 1149 l 1259 1214 l 1042 1539 l 912 1539 l 695 1214 l 782 1149 "},"K":{"ha":1367,"x_min":130,"x_max":1324,"o":"m 130 0 l 260 0 l 260 477 l 434 477 l 1128 0 l 1324 0 l 564 532 l 1302 1042 l 1107 1042 l 433 586 l 260 586 l 260 1042 l 130 1042 l 130 0 "},"Ǩ":{"ha":1367,"x_min":130,"x_max":1324,"o":"m 130 0 l 260 0 l 260 477 l 434 477 l 1128 0 l 1324 0 l 564 532 l 1302 1042 l 1107 1042 l 433 586 l 260 586 l 260 1042 l 130 1042 l 130 0 m 618 1153 l 749 1153 l 966 1478 l 879 1544 l 684 1240 l 488 1544 l 401 1478 l 618 1153 "},"Ķ":{"ha":1367,"x_min":130,"x_max":1324,"o":"m 130 0 l 260 0 l 260 477 l 434 477 l 1128 0 l 1324 0 l 564 532 l 1302 1042 l 1107 1042 l 433 586 l 260 586 l 260 1042 l 130 1042 l 130 0 m 749 -103 l 618 -103 l 575 -363 l 662 -363 l 749 -103 "},"L":{"ha":1128,"x_min":130,"x_max":1085,"o":"m 130 0 l 1085 0 l 1085 109 l 260 109 l 260 1042 l 130 1042 l 130 0 "},"Ǉ":{"ha":2292,"x_min":130,"x_max":2170,"o":"m 130 0 l 1085 0 l 1085 109 l 260 109 l 260 1042 l 130 1042 l 130 0 m 1519 0 l 1823 0 q 2094 71 2016 0 q 2170 304 2170 138 l 2170 1042 l 2040 1042 l 2040 304 q 1990 148 2040 189 q 1823 106 1940 106 l 1519 106 q 1438 113 1472 106 q 1383 145 1404 119 q 1345 347 1345 193 l 1345 391 l 1215 391 l 1215 347 q 1226 183 1215 248 q 1317 37 1244 75 q 1519 0 1390 0 "},"Ĺ":{"ha":1128,"x_min":130,"x_max":1085,"o":"m 130 0 l 1085 0 l 1085 109 l 260 109 l 260 1042 l 130 1042 l 130 0 m 412 1171 l 840 1444 l 760 1561 l 369 1236 l 412 1171 "},"Ľ":{"ha":1128,"x_min":130,"x_max":1085,"o":"m 130 0 l 1085 0 l 1085 109 l 260 109 l 260 1042 l 130 1042 l 130 0 m 521 803 l 608 803 l 694 1063 l 564 1063 l 521 803 "},"Ļ":{"ha":1128,"x_min":130,"x_max":1085,"o":"m 130 0 l 1085 0 l 1085 109 l 260 109 l 260 1042 l 130 1042 l 130 0 m 629 -103 l 499 -103 l 456 -363 l 543 -363 l 629 -103 "},"Ŀ":{"ha":1128,"x_min":130,"x_max":1085,"o":"m 130 0 l 1085 0 l 1085 109 l 260 109 l 260 1042 l 130 1042 l 130 0 m 544 477 l 674 477 l 674 608 l 544 608 l 544 477 "},"ǈ":{"ha":1584,"x_min":130,"x_max":1454,"o":"m 130 0 l 1085 0 l 1085 109 l 260 109 l 260 1042 l 130 1042 l 130 0 m 1324 911 l 1454 911 l 1454 1042 l 1324 1042 l 1324 911 m 1103 -260 l 1202 -260 q 1398 -200 1341 -260 q 1454 -16 1454 -139 l 1454 781 l 1324 781 l 1324 -16 q 1296 -127 1324 -102 q 1202 -152 1267 -152 l 1103 -152 l 1103 -260 "},"Ł":{"ha":1128,"x_min":43,"x_max":1085,"o":"m 130 0 l 1085 0 l 1085 109 l 260 109 l 260 570 l 521 629 l 521 738 l 260 679 l 260 1042 l 130 1042 l 130 649 l 43 629 l 43 521 l 130 541 l 130 0 "},"M":{"ha":1904,"x_min":133,"x_max":1771,"o":"m 133 0 l 263 0 l 263 924 l 901 68 l 1019 68 l 1641 924 l 1641 0 l 1771 0 l 1771 1042 l 1577 1042 l 957 192 l 327 1042 l 133 1042 l 133 0 "},"Ṁ":{"ha":1904,"x_min":133,"x_max":1771,"o":"m 133 0 l 263 0 l 263 924 l 901 68 l 1019 68 l 1641 924 l 1641 0 l 1771 0 l 1771 1042 l 1577 1042 l 957 192 l 327 1042 l 133 1042 l 133 0 m 887 1172 l 1017 1172 l 1017 1302 l 887 1302 l 887 1172 "},"N":{"ha":1574,"x_min":130,"x_max":1444,"o":"m 130 0 l 260 0 l 260 888 l 262 888 l 1308 0 l 1444 0 l 1444 1042 l 1314 1042 l 1314 161 l 1312 161 l 266 1042 l 130 1042 l 130 0 "},"Ǌ":{"ha":2737,"x_min":130,"x_max":2616,"o":"m 130 0 l 260 0 l 260 888 l 262 888 l 1308 0 l 1444 0 l 1444 1042 l 1314 1042 l 1314 161 l 1312 161 l 266 1042 l 130 1042 l 130 0 m 1965 0 l 2268 0 q 2540 71 2461 0 q 2616 304 2616 138 l 2616 1042 l 2485 1042 l 2485 304 q 2436 148 2485 189 q 2268 106 2386 106 l 1965 106 q 1884 113 1917 106 q 1829 145 1850 119 q 1791 347 1791 193 l 1791 391 l 1661 391 l 1661 347 q 1672 183 1661 248 q 1762 37 1689 75 q 1965 0 1835 0 "},"Ń":{"ha":1574,"x_min":130,"x_max":1444,"o":"m 130 0 l 260 0 l 260 888 l 262 888 l 1308 0 l 1444 0 l 1444 1042 l 1314 1042 l 1314 161 l 1312 161 l 266 1042 l 130 1042 l 130 0 m 635 1171 l 1063 1444 l 983 1561 l 592 1236 l 635 1171 "},"Ň":{"ha":1574,"x_min":130,"x_max":1444,"o":"m 130 0 l 260 0 l 260 888 l 262 888 l 1308 0 l 1444 0 l 1444 1042 l 1314 1042 l 1314 161 l 1312 161 l 266 1042 l 130 1042 l 130 0 m 722 1153 l 852 1153 l 1069 1478 l 983 1544 l 787 1240 l 592 1544 l 505 1478 l 722 1153 "},"Ņ":{"ha":1574,"x_min":130,"x_max":1444,"o":"m 130 0 l 260 0 l 260 888 l 262 888 l 1308 0 l 1444 0 l 1444 1042 l 1314 1042 l 1314 161 l 1312 161 l 266 1042 l 130 1042 l 130 0 m 852 -103 l 722 -103 l 679 -363 l 766 -363 l 852 -103 "},"Ǹ":{"ha":1574,"x_min":130,"x_max":1444,"o":"m 130 0 l 260 0 l 260 888 l 262 888 l 1308 0 l 1444 0 l 1444 1042 l 1314 1042 l 1314 161 l 1312 161 l 266 1042 l 130 1042 l 130 0 m 1025 1169 l 1068 1234 l 677 1560 l 597 1443 l 1025 1169 "},"ǋ":{"ha":2030,"x_min":130,"x_max":1900,"o":"m 130 0 l 260 0 l 260 888 l 262 888 l 1308 0 l 1444 0 l 1444 1042 l 1314 1042 l 1314 161 l 1312 161 l 266 1042 l 130 1042 l 130 0 m 1769 911 l 1900 911 l 1900 1042 l 1769 1042 l 1769 911 m 1549 -260 l 1647 -260 q 1843 -200 1787 -260 q 1900 -16 1900 -139 l 1900 781 l 1769 781 l 1769 -16 q 1741 -127 1769 -102 q 1647 -152 1713 -152 l 1549 -152 l 1549 -260 "},"Ñ":{"ha":1574,"x_min":130,"x_max":1444,"o":"m 130 0 l 260 0 l 260 888 l 262 888 l 1308 0 l 1444 0 l 1444 1042 l 1314 1042 l 1314 161 l 1312 161 l 266 1042 l 130 1042 l 130 0 m 484 1171 l 614 1171 q 623 1223 614 1211 q 667 1236 632 1236 q 720 1224 694 1236 q 769 1203 747 1213 q 918 1171 846 1171 q 1029 1207 980 1171 q 1091 1344 1091 1254 l 961 1344 q 951 1292 961 1304 q 908 1279 941 1279 q 854 1291 881 1279 q 806 1312 828 1302 q 657 1345 728 1345 q 533 1300 583 1345 q 484 1171 484 1255 "},"Ŋ":{"ha":1086,"x_min":133,"x_max":1045,"o":"m 521 867 l 651 867 l 868 1193 l 781 1258 l 586 954 l 391 1258 l 304 1193 l 521 867 m 133 0 l 263 0 l 263 471 q 295 595 263 547 q 404 665 327 643 q 617 688 481 688 q 764 679 706 688 q 854 646 821 671 q 901 572 887 621 q 914 443 914 523 l 914 0 l 1045 0 l 1045 443 q 1008 660 1045 583 q 882 766 970 736 q 640 796 793 796 q 451 783 523 796 q 335 743 378 770 q 263 677 292 717 l 263 781 l 133 781 l 133 0 "},"O":{"ha":1455,"x_min":87,"x_max":1368,"o":"m 591 -22 l 864 -22 q 1115 -1 1017 -22 q 1269 75 1213 20 q 1346 235 1324 131 q 1368 507 1368 340 l 1368 534 q 1354 767 1368 673 q 1308 920 1341 861 q 1217 1010 1274 979 q 1073 1052 1160 1041 q 864 1063 986 1063 l 591 1063 q 382 1052 469 1063 q 238 1010 295 1041 q 147 920 180 979 q 100 767 114 861 q 87 534 87 673 l 87 507 q 109 235 87 340 q 186 75 131 131 q 340 -1 241 20 q 591 -22 438 -22 m 591 91 q 427 98 494 91 q 319 127 361 104 q 255 195 277 149 q 225 316 233 240 q 217 507 217 392 l 217 534 q 225 731 217 654 q 255 853 233 808 q 319 919 277 898 q 427 945 361 939 q 591 951 494 951 l 864 951 q 1027 945 961 951 q 1136 919 1094 939 q 1199 853 1177 898 q 1230 731 1221 808 q 1238 534 1238 654 l 1238 507 q 1230 316 1238 392 q 1199 195 1221 240 q 1136 127 1177 149 q 1027 98 1094 104 q 864 91 961 91 l 591 91 "},"Ó":{"ha":1455,"x_min":87,"x_max":1368,"o":"m 591 -22 l 864 -22 q 1115 -1 1017 -22 q 1269 75 1213 20 q 1346 235 1324 131 q 1368 507 1368 340 l 1368 534 q 1354 767 1368 673 q 1308 920 1341 861 q 1217 1010 1274 979 q 1073 1052 1160 1041 q 864 1063 986 1063 l 591 1063 q 382 1052 469 1063 q 238 1010 295 1041 q 147 920 180 979 q 100 767 114 861 q 87 534 87 673 l 87 507 q 109 235 87 340 q 186 75 131 131 q 340 -1 241 20 q 591 -22 438 -22 m 591 91 q 427 98 494 91 q 319 127 361 104 q 255 195 277 149 q 225 316 233 240 q 217 507 217 392 l 217 534 q 225 731 217 654 q 255 853 233 808 q 319 919 277 898 q 427 945 361 939 q 591 951 494 951 l 864 951 q 1027 945 961 951 q 1136 919 1094 939 q 1199 853 1177 898 q 1230 731 1221 808 q 1238 534 1238 654 l 1238 507 q 1230 316 1238 392 q 1199 195 1221 240 q 1136 127 1177 149 q 1027 98 1094 104 q 864 91 961 91 l 591 91 m 576 1171 l 1003 1444 l 923 1561 l 532 1236 l 576 1171 "},"Ŏ":{"ha":1455,"x_min":87,"x_max":1368,"o":"m 591 -22 l 864 -22 q 1115 -1 1017 -22 q 1269 75 1213 20 q 1346 235 1324 131 q 1368 507 1368 340 l 1368 534 q 1354 767 1368 673 q 1308 920 1341 861 q 1217 1010 1274 979 q 1073 1052 1160 1041 q 864 1063 986 1063 l 591 1063 q 382 1052 469 1063 q 238 1010 295 1041 q 147 920 180 979 q 100 767 114 861 q 87 534 87 673 l 87 507 q 109 235 87 340 q 186 75 131 131 q 340 -1 241 20 q 591 -22 438 -22 m 591 91 q 427 98 494 91 q 319 127 361 104 q 255 195 277 149 q 225 316 233 240 q 217 507 217 392 l 217 534 q 225 731 217 654 q 255 853 233 808 q 319 919 277 898 q 427 945 361 939 q 591 951 494 951 l 864 951 q 1027 945 961 951 q 1136 919 1094 939 q 1199 853 1177 898 q 1230 731 1221 808 q 1238 534 1238 654 l 1238 507 q 1230 316 1238 392 q 1199 195 1221 240 q 1136 127 1177 149 q 1027 98 1094 104 q 864 91 961 91 l 591 91 m 728 1147 q 868 1170 810 1147 q 957 1250 926 1193 q 988 1411 988 1308 l 880 1411 q 836 1257 880 1283 q 728 1240 809 1240 q 623 1255 646 1240 q 576 1411 576 1283 l 467 1411 q 498 1250 467 1308 q 587 1170 529 1193 q 728 1147 646 1147 "},"Ǒ":{"ha":1455,"x_min":87,"x_max":1368,"o":"m 591 -22 l 864 -22 q 1115 -1 1017 -22 q 1269 75 1213 20 q 1346 235 1324 131 q 1368 507 1368 340 l 1368 534 q 1354 767 1368 673 q 1308 920 1341 861 q 1217 1010 1274 979 q 1073 1052 1160 1041 q 864 1063 986 1063 l 591 1063 q 382 1052 469 1063 q 238 1010 295 1041 q 147 920 180 979 q 100 767 114 861 q 87 534 87 673 l 87 507 q 109 235 87 340 q 186 75 131 131 q 340 -1 241 20 q 591 -22 438 -22 m 591 91 q 427 98 494 91 q 319 127 361 104 q 255 195 277 149 q 225 316 233 240 q 217 507 217 392 l 217 534 q 225 731 217 654 q 255 853 233 808 q 319 919 277 898 q 427 945 361 939 q 591 951 494 951 l 864 951 q 1027 945 961 951 q 1136 919 1094 939 q 1199 853 1177 898 q 1230 731 1221 808 q 1238 534 1238 654 l 1238 507 q 1230 316 1238 392 q 1199 195 1221 240 q 1136 127 1177 149 q 1027 98 1094 104 q 864 91 961 91 l 591 91 m 663 1153 l 793 1153 l 1010 1478 l 923 1544 l 728 1240 l 532 1544 l 446 1478 l 663 1153 "},"Ô":{"ha":1455,"x_min":87,"x_max":1368,"o":"m 591 -22 l 864 -22 q 1115 -1 1017 -22 q 1269 75 1213 20 q 1346 235 1324 131 q 1368 507 1368 340 l 1368 534 q 1354 767 1368 673 q 1308 920 1341 861 q 1217 1010 1274 979 q 1073 1052 1160 1041 q 864 1063 986 1063 l 591 1063 q 382 1052 469 1063 q 238 1010 295 1041 q 147 920 180 979 q 100 767 114 861 q 87 534 87 673 l 87 507 q 109 235 87 340 q 186 75 131 131 q 340 -1 241 20 q 591 -22 438 -22 m 591 91 q 427 98 494 91 q 319 127 361 104 q 255 195 277 149 q 225 316 233 240 q 217 507 217 392 l 217 534 q 225 731 217 654 q 255 853 233 808 q 319 919 277 898 q 427 945 361 939 q 591 951 494 951 l 864 951 q 1027 945 961 951 q 1136 919 1094 939 q 1199 853 1177 898 q 1230 731 1221 808 q 1238 534 1238 654 l 1238 507 q 1230 316 1238 392 q 1199 195 1221 240 q 1136 127 1177 149 q 1027 98 1094 104 q 864 91 961 91 l 591 91 m 532 1149 l 728 1453 l 923 1149 l 1010 1214 l 793 1539 l 663 1539 l 446 1214 l 532 1149 "},"Ȍ":{"ha":1455,"x_min":87,"x_max":1368,"o":"m 591 -22 l 864 -22 q 1115 -1 1017 -22 q 1269 75 1213 20 q 1346 235 1324 131 q 1368 507 1368 340 l 1368 534 q 1354 767 1368 673 q 1308 920 1341 861 q 1217 1010 1274 979 q 1073 1052 1160 1041 q 864 1063 986 1063 l 591 1063 q 382 1052 469 1063 q 238 1010 295 1041 q 147 920 180 979 q 100 767 114 861 q 87 534 87 673 l 87 507 q 109 235 87 340 q 186 75 131 131 q 340 -1 241 20 q 591 -22 438 -22 m 591 91 q 427 98 494 91 q 319 127 361 104 q 255 195 277 149 q 225 316 233 240 q 217 507 217 392 l 217 534 q 225 731 217 654 q 255 853 233 808 q 319 919 277 898 q 427 945 361 939 q 591 951 494 951 l 864 951 q 1027 945 961 951 q 1136 919 1094 939 q 1199 853 1177 898 q 1230 731 1221 808 q 1238 534 1238 654 l 1238 507 q 1230 316 1238 392 q 1199 195 1221 240 q 1136 127 1177 149 q 1027 98 1094 104 q 864 91 961 91 l 591 91 "},"Ö":{"ha":1455,"x_min":87,"x_max":1368,"o":"m 591 -22 l 864 -22 q 1115 -1 1017 -22 q 1269 75 1213 20 q 1346 235 1324 131 q 1368 507 1368 340 l 1368 534 q 1354 767 1368 673 q 1308 920 1341 861 q 1217 1010 1274 979 q 1073 1052 1160 1041 q 864 1063 986 1063 l 591 1063 q 382 1052 469 1063 q 238 1010 295 1041 q 147 920 180 979 q 100 767 114 861 q 87 534 87 673 l 87 507 q 109 235 87 340 q 186 75 131 131 q 340 -1 241 20 q 591 -22 438 -22 m 591 91 q 427 98 494 91 q 319 127 361 104 q 255 195 277 149 q 225 316 233 240 q 217 507 217 392 l 217 534 q 225 731 217 654 q 255 853 233 808 q 319 919 277 898 q 427 945 361 939 q 591 951 494 951 l 864 951 q 1027 945 961 951 q 1136 919 1094 939 q 1199 853 1177 898 q 1230 731 1221 808 q 1238 534 1238 654 l 1238 507 q 1230 316 1238 392 q 1199 195 1221 240 q 1136 127 1177 149 q 1027 98 1094 104 q 864 91 961 91 l 591 91 m 903 1172 l 1033 1172 l 1033 1302 l 903 1302 l 903 1172 m 422 1172 l 553 1172 l 553 1302 l 422 1302 l 422 1172 "},"Ȯ":{"ha":1455,"x_min":87,"x_max":1368,"o":"m 591 -22 l 864 -22 q 1115 -1 1017 -22 q 1269 75 1213 20 q 1346 235 1324 131 q 1368 507 1368 340 l 1368 534 q 1354 767 1368 673 q 1308 920 1341 861 q 1217 1010 1274 979 q 1073 1052 1160 1041 q 864 1063 986 1063 l 591 1063 q 382 1052 469 1063 q 238 1010 295 1041 q 147 920 180 979 q 100 767 114 861 q 87 534 87 673 l 87 507 q 109 235 87 340 q 186 75 131 131 q 340 -1 241 20 q 591 -22 438 -22 m 591 91 q 427 98 494 91 q 319 127 361 104 q 255 195 277 149 q 225 316 233 240 q 217 507 217 392 l 217 534 q 225 731 217 654 q 255 853 233 808 q 319 919 277 898 q 427 945 361 939 q 591 951 494 951 l 864 951 q 1027 945 961 951 q 1136 919 1094 939 q 1199 853 1177 898 q 1230 731 1221 808 q 1238 534 1238 654 l 1238 507 q 1230 316 1238 392 q 1199 195 1221 240 q 1136 127 1177 149 q 1027 98 1094 104 q 864 91 961 91 l 591 91 m 663 1172 l 793 1172 l 793 1302 l 663 1302 l 663 1172 "},"Ò":{"ha":1455,"x_min":87,"x_max":1368,"o":"m 591 -22 l 864 -22 q 1115 -1 1017 -22 q 1269 75 1213 20 q 1346 235 1324 131 q 1368 507 1368 340 l 1368 534 q 1354 767 1368 673 q 1308 920 1341 861 q 1217 1010 1274 979 q 1073 1052 1160 1041 q 864 1063 986 1063 l 591 1063 q 382 1052 469 1063 q 238 1010 295 1041 q 147 920 180 979 q 100 767 114 861 q 87 534 87 673 l 87 507 q 109 235 87 340 q 186 75 131 131 q 340 -1 241 20 q 591 -22 438 -22 m 591 91 q 427 98 494 91 q 319 127 361 104 q 255 195 277 149 q 225 316 233 240 q 217 507 217 392 l 217 534 q 225 731 217 654 q 255 853 233 808 q 319 919 277 898 q 427 945 361 939 q 591 951 494 951 l 864 951 q 1027 945 961 951 q 1136 919 1094 939 q 1199 853 1177 898 q 1230 731 1221 808 q 1238 534 1238 654 l 1238 507 q 1230 316 1238 392 q 1199 195 1221 240 q 1136 127 1177 149 q 1027 98 1094 104 q 864 91 961 91 l 591 91 m 965 1169 l 1008 1234 l 618 1560 l 538 1443 l 965 1169 "},"Ő":{"ha":1455,"x_min":87,"x_max":1368,"o":"m 591 -22 l 864 -22 q 1115 -1 1017 -22 q 1269 75 1213 20 q 1346 235 1324 131 q 1368 507 1368 340 l 1368 534 q 1354 767 1368 673 q 1308 920 1341 861 q 1217 1010 1274 979 q 1073 1052 1160 1041 q 864 1063 986 1063 l 591 1063 q 382 1052 469 1063 q 238 1010 295 1041 q 147 920 180 979 q 100 767 114 861 q 87 534 87 673 l 87 507 q 109 235 87 340 q 186 75 131 131 q 340 -1 241 20 q 591 -22 438 -22 m 591 91 q 427 98 494 91 q 319 127 361 104 q 255 195 277 149 q 225 316 233 240 q 217 507 217 392 l 217 534 q 225 731 217 654 q 255 853 233 808 q 319 919 277 898 q 427 945 361 939 q 591 951 494 951 l 864 951 q 1027 945 961 951 q 1136 919 1094 939 q 1199 853 1177 898 q 1230 731 1221 808 q 1238 534 1238 654 l 1238 507 q 1230 316 1238 392 q 1199 195 1221 240 q 1136 127 1177 149 q 1027 98 1094 104 q 864 91 961 91 l 591 91 m 913 1145 l 1348 1405 l 1261 1535 l 870 1210 l 913 1145 m 538 1145 l 972 1405 l 886 1535 l 495 1210 l 538 1145 "},"Ȏ":{"ha":1455,"x_min":87,"x_max":1368,"o":"m 591 -22 l 864 -22 q 1115 -1 1017 -22 q 1269 75 1213 20 q 1346 235 1324 131 q 1368 507 1368 340 l 1368 534 q 1354 767 1368 673 q 1308 920 1341 861 q 1217 1010 1274 979 q 1073 1052 1160 1041 q 864 1063 986 1063 l 591 1063 q 382 1052 469 1063 q 238 1010 295 1041 q 147 920 180 979 q 100 767 114 861 q 87 534 87 673 l 87 507 q 109 235 87 340 q 186 75 131 131 q 340 -1 241 20 q 591 -22 438 -22 m 591 91 q 427 98 494 91 q 319 127 361 104 q 255 195 277 149 q 225 316 233 240 q 217 507 217 392 l 217 534 q 225 731 217 654 q 255 853 233 808 q 319 919 277 898 q 427 945 361 939 q 591 951 494 951 l 864 951 q 1027 945 961 951 q 1136 919 1094 939 q 1199 853 1177 898 q 1230 731 1221 808 q 1238 534 1238 654 l 1238 507 q 1230 316 1238 392 q 1199 195 1221 240 q 1136 127 1177 149 q 1027 98 1094 104 q 864 91 961 91 l 591 91 m 728 1411 q 587 1389 646 1411 q 498 1308 529 1366 q 467 1147 467 1251 l 576 1147 q 623 1303 576 1275 q 728 1318 646 1318 q 836 1301 809 1318 q 880 1147 880 1275 l 988 1147 q 957 1308 988 1251 q 868 1389 926 1366 q 728 1411 810 1411 "},"Ō":{"ha":1455,"x_min":87,"x_max":1368,"o":"m 591 -22 l 864 -22 q 1115 -1 1017 -22 q 1269 75 1213 20 q 1346 235 1324 131 q 1368 507 1368 340 l 1368 534 q 1354 767 1368 673 q 1308 920 1341 861 q 1217 1010 1274 979 q 1073 1052 1160 1041 q 864 1063 986 1063 l 591 1063 q 382 1052 469 1063 q 238 1010 295 1041 q 147 920 180 979 q 100 767 114 861 q 87 534 87 673 l 87 507 q 109 235 87 340 q 186 75 131 131 q 340 -1 241 20 q 591 -22 438 -22 m 591 91 q 427 98 494 91 q 319 127 361 104 q 255 195 277 149 q 225 316 233 240 q 217 507 217 392 l 217 534 q 225 731 217 654 q 255 853 233 808 q 319 919 277 898 q 427 945 361 939 q 591 951 494 951 l 864 951 q 1027 945 961 951 q 1136 919 1094 939 q 1199 853 1177 898 q 1230 731 1221 808 q 1238 534 1238 654 l 1238 507 q 1230 316 1238 392 q 1199 195 1221 240 q 1136 127 1177 149 q 1027 98 1094 104 q 864 91 961 91 l 591 91 m 467 1145 l 988 1145 l 988 1254 l 467 1254 l 467 1145 "},"Ǫ":{"ha":1455,"x_min":87,"x_max":1368,"o":"m 591 -22 l 864 -22 q 1115 -1 1017 -22 q 1269 75 1213 20 q 1346 235 1324 131 q 1368 507 1368 340 l 1368 534 q 1354 767 1368 673 q 1308 920 1341 861 q 1217 1010 1274 979 q 1073 1052 1160 1041 q 864 1063 986 1063 l 591 1063 q 382 1052 469 1063 q 238 1010 295 1041 q 147 920 180 979 q 100 767 114 861 q 87 534 87 673 l 87 507 q 109 235 87 340 q 186 75 131 131 q 340 -1 241 20 q 591 -22 438 -22 m 591 91 q 427 98 494 91 q 319 127 361 104 q 255 195 277 149 q 225 316 233 240 q 217 507 217 392 l 217 534 q 225 731 217 654 q 255 853 233 808 q 319 919 277 898 q 427 945 361 939 q 591 951 494 951 l 864 951 q 1027 945 961 951 q 1136 919 1094 939 q 1199 853 1177 898 q 1230 731 1221 808 q 1238 534 1238 654 l 1238 507 q 1230 316 1238 392 q 1199 195 1221 240 q 1136 127 1177 149 q 1027 98 1094 104 q 864 91 961 91 l 591 91 m 817 -377 l 817 -269 q 723 -252 759 -269 q 686 -182 686 -235 q 817 14 686 -73 l 730 14 q 583 -115 629 -41 q 563 -158 570 -136 q 556 -216 556 -180 q 578 -286 556 -252 q 817 -377 641 -377 "},"Ø":{"ha":1455,"x_min":87,"x_max":1368,"o":"m 450 -172 l 525 -21 q 591 -22 555 -22 l 864 -22 q 1115 -1 1017 -22 q 1269 75 1213 20 q 1346 235 1324 131 q 1368 507 1368 340 l 1368 534 q 1353 772 1368 676 q 1304 926 1339 867 q 1208 1015 1269 985 q 1053 1055 1147 1044 l 1115 1180 l 1029 1215 l 954 1062 q 864 1063 914 1063 l 591 1063 q 382 1052 469 1063 q 238 1010 295 1041 q 147 920 180 979 q 100 767 114 861 q 87 534 87 673 l 87 507 q 102 270 87 366 q 155 115 117 174 q 258 25 193 56 q 425 -15 324 -5 l 365 -137 l 450 -172 m 217 507 l 217 534 q 225 731 217 654 q 255 853 233 808 q 319 919 277 898 q 427 945 361 939 q 591 951 494 951 l 864 951 q 899 951 884 951 l 478 93 q 343 117 395 98 q 264 180 291 136 q 227 303 237 224 q 217 507 217 382 m 591 91 q 580 91 585 91 l 1001 948 q 1123 924 1076 943 q 1195 861 1170 905 q 1229 738 1219 817 q 1238 534 1238 659 l 1238 507 q 1230 316 1238 392 q 1199 195 1221 240 q 1136 127 1177 149 q 1027 98 1094 104 q 864 91 961 91 l 591 91 "},"Ǿ":{"ha":1455,"x_min":87,"x_max":1368,"o":"m 450 -172 l 525 -21 q 591 -22 555 -22 l 864 -22 q 1115 -1 1017 -22 q 1269 75 1213 20 q 1346 235 1324 131 q 1368 507 1368 340 l 1368 534 q 1353 772 1368 676 q 1304 926 1339 867 q 1208 1015 1269 985 q 1053 1055 1147 1044 l 1115 1180 l 1029 1215 l 954 1062 q 864 1063 914 1063 l 591 1063 q 382 1052 469 1063 q 238 1010 295 1041 q 147 920 180 979 q 100 767 114 861 q 87 534 87 673 l 87 507 q 102 270 87 366 q 155 115 117 174 q 258 25 193 56 q 425 -15 324 -5 l 365 -137 l 450 -172 m 217 507 l 217 534 q 225 731 217 654 q 255 853 233 808 q 319 919 277 898 q 427 945 361 939 q 591 951 494 951 l 864 951 q 899 951 884 951 l 478 93 q 343 117 395 98 q 264 180 291 136 q 227 303 237 224 q 217 507 217 382 m 591 91 q 580 91 585 91 l 1001 948 q 1123 924 1076 943 q 1195 861 1170 905 q 1229 738 1219 817 q 1238 534 1238 659 l 1238 507 q 1230 316 1238 392 q 1199 195 1221 240 q 1136 127 1177 149 q 1027 98 1094 104 q 864 91 961 91 l 591 91 m 576 1171 l 1003 1444 l 923 1561 l 532 1236 l 576 1171 "},"Õ":{"ha":1455,"x_min":87,"x_max":1368,"o":"m 591 -22 l 864 -22 q 1115 -1 1017 -22 q 1269 75 1213 20 q 1346 235 1324 131 q 1368 507 1368 340 l 1368 534 q 1354 767 1368 673 q 1308 920 1341 861 q 1217 1010 1274 979 q 1073 1052 1160 1041 q 864 1063 986 1063 l 591 1063 q 382 1052 469 1063 q 238 1010 295 1041 q 147 920 180 979 q 100 767 114 861 q 87 534 87 673 l 87 507 q 109 235 87 340 q 186 75 131 131 q 340 -1 241 20 q 591 -22 438 -22 m 591 91 q 427 98 494 91 q 319 127 361 104 q 255 195 277 149 q 225 316 233 240 q 217 507 217 392 l 217 534 q 225 731 217 654 q 255 853 233 808 q 319 919 277 898 q 427 945 361 939 q 591 951 494 951 l 864 951 q 1027 945 961 951 q 1136 919 1094 939 q 1199 853 1177 898 q 1230 731 1221 808 q 1238 534 1238 654 l 1238 507 q 1230 316 1238 392 q 1199 195 1221 240 q 1136 127 1177 149 q 1027 98 1094 104 q 864 91 961 91 l 591 91 m 424 1171 l 554 1171 q 563 1223 554 1211 q 607 1236 572 1236 q 661 1224 634 1236 q 709 1203 687 1213 q 858 1171 787 1171 q 969 1207 920 1171 q 1031 1344 1031 1254 l 901 1344 q 891 1292 901 1304 q 848 1279 881 1279 q 795 1291 821 1279 q 746 1312 768 1302 q 597 1345 668 1345 q 474 1300 524 1345 q 424 1171 424 1255 "},"Œ":{"ha":2387,"x_min":89,"x_max":2344,"o":"m 564 -22 l 956 -22 q 1302 43 1196 -22 l 1302 0 l 2344 0 l 2344 109 l 1432 109 l 1432 477 l 2300 477 l 2300 586 l 1432 586 l 1432 933 l 2344 933 l 2344 1042 l 1302 1042 l 1302 998 q 988 1061 1200 1061 l 529 1061 q 228 1005 329 1061 q 146 930 175 976 q 97 772 104 865 q 89 572 89 679 l 89 353 q 121 158 89 239 q 228 37 154 78 q 564 -22 332 -22 m 564 87 q 319 113 385 87 q 257 160 277 130 q 228 243 238 191 q 217 521 217 298 q 229 807 217 745 q 276 902 242 871 q 369 943 311 933 q 511 952 427 952 l 1006 952 q 1112 948 1063 952 q 1199 929 1160 945 q 1261 881 1241 912 q 1291 798 1281 850 q 1302 521 1302 743 q 1289 235 1302 298 q 1260 158 1280 187 q 1199 113 1239 129 q 956 87 1134 87 l 564 87 "},"P":{"ha":1350,"x_min":133,"x_max":1299,"o":"m 133 0 l 263 0 l 263 401 l 826 401 q 1072 418 979 401 q 1215 471 1166 435 q 1282 565 1265 507 q 1299 708 1299 624 l 1299 735 q 1282 883 1299 823 q 1217 977 1265 942 q 1076 1027 1169 1012 q 830 1042 983 1042 l 133 1042 l 133 0 m 1169 735 l 1169 708 q 1157 609 1169 648 q 1108 550 1145 571 q 999 522 1072 530 q 805 514 926 514 l 263 514 l 263 929 l 805 929 q 999 923 926 929 q 1108 897 1072 916 q 1157 838 1145 877 q 1169 735 1169 800 "},"Ṗ":{"ha":1350,"x_min":133,"x_max":1299,"o":"m 133 0 l 263 0 l 263 401 l 826 401 q 1072 418 979 401 q 1215 471 1166 435 q 1282 565 1265 507 q 1299 708 1299 624 l 1299 735 q 1282 883 1299 823 q 1217 977 1265 942 q 1076 1027 1169 1012 q 830 1042 983 1042 l 133 1042 l 133 0 m 1169 735 l 1169 708 q 1157 609 1169 648 q 1108 550 1145 571 q 999 522 1072 530 q 805 514 926 514 l 263 514 l 263 929 l 805 929 q 999 923 926 929 q 1108 897 1072 916 q 1157 838 1145 877 q 1169 735 1169 800 m 610 1172 l 741 1172 l 741 1302 l 610 1302 l 610 1172 "},"Þ":{"ha":1302,"x_min":87,"x_max":1259,"o":"m 87 0 l 217 0 l 217 282 l 781 282 q 1199 365 1112 282 q 1256 510 1251 414 q 1258 556 1257 532 q 1259 606 1259 581 q 1252 739 1259 681 q 1210 836 1246 798 q 1143 878 1187 861 q 869 911 1056 911 l 217 911 l 217 1042 l 87 1042 l 87 0 m 217 391 l 217 803 l 781 803 q 1014 793 962 803 q 1086 770 1062 785 q 1120 724 1111 755 q 1128 634 1128 692 q 1128 570 1128 597 q 1127 526 1128 544 q 1100 443 1124 469 q 1025 405 1075 416 q 781 391 958 391 l 217 391 "},"Q":{"ha":1455,"x_min":87,"x_max":1455,"o":"m 591 -22 l 864 -22 q 1047 -13 968 -22 q 1181 18 1125 -5 l 1389 -144 l 1455 -63 l 1273 79 q 1347 240 1326 137 q 1368 507 1368 342 l 1368 534 q 1354 767 1368 673 q 1308 920 1341 861 q 1217 1010 1274 979 q 1073 1052 1160 1041 q 864 1063 986 1063 l 591 1063 q 382 1052 469 1063 q 238 1010 295 1041 q 147 920 180 979 q 100 767 114 861 q 87 534 87 673 l 87 507 q 109 235 87 340 q 186 75 131 131 q 340 -1 241 20 q 591 -22 438 -22 m 591 91 q 427 98 494 91 q 319 127 361 104 q 255 195 277 149 q 225 316 233 240 q 217 507 217 392 l 217 534 q 225 731 217 654 q 255 853 233 808 q 319 919 277 898 q 427 945 361 939 q 591 951 494 951 l 864 951 q 1027 945 961 951 q 1136 919 1094 939 q 1199 853 1177 898 q 1230 731 1221 808 q 1238 534 1238 654 l 1238 507 q 1225 282 1238 365 q 1174 157 1213 199 l 817 437 l 751 356 l 1072 104 q 981 94 1033 96 q 864 91 930 91 l 591 91 "},"R":{"ha":1415,"x_min":133,"x_max":1299,"o":"m 133 1042 l 133 0 l 263 0 l 263 421 l 859 421 q 889 421 875 421 q 918 422 904 421 l 1139 0 l 1270 0 l 1043 431 q 1206 483 1151 446 q 1280 577 1261 519 q 1299 718 1299 636 l 1299 745 q 1282 890 1299 833 q 1217 981 1265 948 q 1076 1028 1169 1015 q 830 1042 983 1042 l 133 1042 m 263 534 l 263 929 l 805 929 q 999 924 926 929 q 1108 901 1072 919 q 1157 846 1145 884 q 1169 745 1169 809 l 1169 718 q 1160 625 1169 661 q 1120 569 1152 589 q 1022 542 1088 549 q 839 534 955 534 l 263 534 "},"Ŕ":{"ha":1415,"x_min":133,"x_max":1299,"o":"m 133 1042 l 133 0 l 263 0 l 263 421 l 859 421 q 889 421 875 421 q 918 422 904 421 l 1139 0 l 1270 0 l 1043 431 q 1206 483 1151 446 q 1280 577 1261 519 q 1299 718 1299 636 l 1299 745 q 1282 890 1299 833 q 1217 981 1265 948 q 1076 1028 1169 1015 q 830 1042 983 1042 l 133 1042 m 263 534 l 263 929 l 805 929 q 999 924 926 929 q 1108 901 1072 919 q 1157 846 1145 884 q 1169 745 1169 809 l 1169 718 q 1160 625 1169 661 q 1120 569 1152 589 q 1022 542 1088 549 q 839 534 955 534 l 263 534 m 529 1171 l 956 1444 l 876 1561 l 486 1236 l 529 1171 "},"Ř":{"ha":1415,"x_min":133,"x_max":1299,"o":"m 133 1042 l 133 0 l 263 0 l 263 421 l 859 421 q 889 421 875 421 q 918 422 904 421 l 1139 0 l 1270 0 l 1043 431 q 1206 483 1151 446 q 1280 577 1261 519 q 1299 718 1299 636 l 1299 745 q 1282 890 1299 833 q 1217 981 1265 948 q 1076 1028 1169 1015 q 830 1042 983 1042 l 133 1042 m 263 534 l 263 929 l 805 929 q 999 924 926 929 q 1108 901 1072 919 q 1157 846 1145 884 q 1169 745 1169 809 l 1169 718 q 1160 625 1169 661 q 1120 569 1152 589 q 1022 542 1088 549 q 839 534 955 534 l 263 534 m 616 1153 l 746 1153 l 963 1478 l 876 1544 l 681 1240 l 486 1544 l 399 1478 l 616 1153 "},"Ŗ":{"ha":1415,"x_min":133,"x_max":1299,"o":"m 133 1042 l 133 0 l 263 0 l 263 421 l 859 421 q 889 421 875 421 q 918 422 904 421 l 1139 0 l 1270 0 l 1043 431 q 1206 483 1151 446 q 1280 577 1261 519 q 1299 718 1299 636 l 1299 745 q 1282 890 1299 833 q 1217 981 1265 948 q 1076 1028 1169 1015 q 830 1042 983 1042 l 133 1042 m 263 534 l 263 929 l 805 929 q 999 924 926 929 q 1108 901 1072 919 q 1157 846 1145 884 q 1169 745 1169 809 l 1169 718 q 1160 625 1169 661 q 1120 569 1152 589 q 1022 542 1088 549 q 839 534 955 534 l 263 534 m 773 -103 l 643 -103 l 600 -363 l 686 -363 l 773 -103 "},"Ȑ":{"ha":1415,"x_min":133,"x_max":1299,"o":"m 133 1042 l 133 0 l 263 0 l 263 421 l 859 421 q 889 421 875 421 q 918 422 904 421 l 1139 0 l 1270 0 l 1043 431 q 1206 483 1151 446 q 1280 577 1261 519 q 1299 718 1299 636 l 1299 745 q 1282 890 1299 833 q 1217 981 1265 948 q 1076 1028 1169 1015 q 830 1042 983 1042 l 133 1042 m 263 534 l 263 929 l 805 929 q 999 924 926 929 q 1108 901 1072 919 q 1157 846 1145 884 q 1169 745 1169 809 l 1169 718 q 1160 625 1169 661 q 1120 569 1152 589 q 1022 542 1088 549 q 839 534 955 534 l 263 534 "},"Ȓ":{"ha":1415,"x_min":133,"x_max":1299,"o":"m 133 1042 l 133 0 l 263 0 l 263 421 l 859 421 q 889 421 875 421 q 918 422 904 421 l 1139 0 l 1270 0 l 1043 431 q 1206 483 1151 446 q 1280 577 1261 519 q 1299 718 1299 636 l 1299 745 q 1282 890 1299 833 q 1217 981 1265 948 q 1076 1028 1169 1015 q 830 1042 983 1042 l 133 1042 m 263 534 l 263 929 l 805 929 q 999 924 926 929 q 1108 901 1072 919 q 1157 846 1145 884 q 1169 745 1169 809 l 1169 718 q 1160 625 1169 661 q 1120 569 1152 589 q 1022 542 1088 549 q 839 534 955 534 l 263 534 m 681 1411 q 541 1389 599 1411 q 451 1308 482 1366 q 420 1147 420 1251 l 529 1147 q 576 1303 529 1275 q 681 1318 600 1318 q 789 1301 762 1318 q 833 1147 833 1275 l 941 1147 q 910 1308 941 1251 q 822 1389 880 1366 q 681 1411 764 1411 "},"S":{"ha":1453,"x_min":90,"x_max":1369,"o":"m 1239 301 q 1229 192 1239 233 q 1185 129 1219 151 q 1081 99 1152 106 q 889 91 1010 91 l 578 91 q 400 95 470 91 q 291 122 330 100 q 236 197 252 145 q 220 345 220 250 l 90 345 q 115 150 90 223 q 195 40 139 77 q 345 -9 251 3 q 578 -22 439 -22 l 896 -22 q 1142 -5 1048 -22 q 1285 48 1236 11 q 1352 148 1335 85 q 1369 301 1369 210 q 1355 440 1369 385 q 1299 528 1341 496 q 1172 575 1257 561 q 944 592 1086 590 l 540 597 q 364 605 429 599 q 269 629 300 612 q 229 680 238 646 q 220 768 220 713 q 233 870 220 833 q 283 924 245 907 q 393 946 320 941 q 587 951 466 951 l 871 951 q 1038 949 970 951 q 1144 931 1105 948 q 1201 868 1184 914 q 1219 730 1219 821 l 1349 730 q 1325 915 1349 848 q 1248 1014 1302 982 q 1101 1055 1194 1046 q 871 1063 1009 1063 l 581 1063 q 332 1050 428 1063 q 183 1004 235 1037 q 110 914 130 972 q 90 768 90 857 q 105 632 90 686 q 163 546 119 578 q 291 498 206 513 q 515 481 376 484 l 892 476 q 1084 469 1014 474 q 1187 447 1154 464 q 1230 396 1220 431 q 1239 301 1239 361 "},"Ś":{"ha":1453,"x_min":90,"x_max":1369,"o":"m 1239 301 q 1229 192 1239 233 q 1185 129 1219 151 q 1081 99 1152 106 q 889 91 1010 91 l 578 91 q 400 95 470 91 q 291 122 330 100 q 236 197 252 145 q 220 345 220 250 l 90 345 q 115 150 90 223 q 195 40 139 77 q 345 -9 251 3 q 578 -22 439 -22 l 896 -22 q 1142 -5 1048 -22 q 1285 48 1236 11 q 1352 148 1335 85 q 1369 301 1369 210 q 1355 440 1369 385 q 1299 528 1341 496 q 1172 575 1257 561 q 944 592 1086 590 l 540 597 q 364 605 429 599 q 269 629 300 612 q 229 680 238 646 q 220 768 220 713 q 233 870 220 833 q 283 924 245 907 q 393 946 320 941 q 587 951 466 951 l 871 951 q 1038 949 970 951 q 1144 931 1105 948 q 1201 868 1184 914 q 1219 730 1219 821 l 1349 730 q 1325 915 1349 848 q 1248 1014 1302 982 q 1101 1055 1194 1046 q 871 1063 1009 1063 l 581 1063 q 332 1050 428 1063 q 183 1004 235 1037 q 110 914 130 972 q 90 768 90 857 q 105 632 90 686 q 163 546 119 578 q 291 498 206 513 q 515 481 376 484 l 892 476 q 1084 469 1014 474 q 1187 447 1154 464 q 1230 396 1220 431 q 1239 301 1239 361 m 574 1171 l 1002 1444 l 922 1561 l 531 1236 l 574 1171 "},"Š":{"ha":1453,"x_min":90,"x_max":1369,"o":"m 1239 301 q 1229 192 1239 233 q 1185 129 1219 151 q 1081 99 1152 106 q 889 91 1010 91 l 578 91 q 400 95 470 91 q 291 122 330 100 q 236 197 252 145 q 220 345 220 250 l 90 345 q 115 150 90 223 q 195 40 139 77 q 345 -9 251 3 q 578 -22 439 -22 l 896 -22 q 1142 -5 1048 -22 q 1285 48 1236 11 q 1352 148 1335 85 q 1369 301 1369 210 q 1355 440 1369 385 q 1299 528 1341 496 q 1172 575 1257 561 q 944 592 1086 590 l 540 597 q 364 605 429 599 q 269 629 300 612 q 229 680 238 646 q 220 768 220 713 q 233 870 220 833 q 283 924 245 907 q 393 946 320 941 q 587 951 466 951 l 871 951 q 1038 949 970 951 q 1144 931 1105 948 q 1201 868 1184 914 q 1219 730 1219 821 l 1349 730 q 1325 915 1349 848 q 1248 1014 1302 982 q 1101 1055 1194 1046 q 871 1063 1009 1063 l 581 1063 q 332 1050 428 1063 q 183 1004 235 1037 q 110 914 130 972 q 90 768 90 857 q 105 632 90 686 q 163 546 119 578 q 291 498 206 513 q 515 481 376 484 l 892 476 q 1084 469 1014 474 q 1187 447 1154 464 q 1230 396 1220 431 q 1239 301 1239 361 m 661 1153 l 791 1153 l 1008 1478 l 922 1544 l 726 1240 l 531 1544 l 444 1478 l 661 1153 "},"Ş":{"ha":1453,"x_min":90,"x_max":1369,"o":"m 1239 301 q 1229 192 1239 233 q 1185 129 1219 151 q 1081 99 1152 106 q 889 91 1010 91 l 578 91 q 400 95 470 91 q 291 122 330 100 q 236 197 252 145 q 220 345 220 250 l 90 345 q 115 150 90 223 q 195 40 139 77 q 345 -9 251 3 q 578 -22 439 -22 l 896 -22 q 1142 -5 1048 -22 q 1285 48 1236 11 q 1352 148 1335 85 q 1369 301 1369 210 q 1355 440 1369 385 q 1299 528 1341 496 q 1172 575 1257 561 q 944 592 1086 590 l 540 597 q 364 605 429 599 q 269 629 300 612 q 229 680 238 646 q 220 768 220 713 q 233 870 220 833 q 283 924 245 907 q 393 946 320 941 q 587 951 466 951 l 871 951 q 1038 949 970 951 q 1144 931 1105 948 q 1201 868 1184 914 q 1219 730 1219 821 l 1349 730 q 1325 915 1349 848 q 1248 1014 1302 982 q 1101 1055 1194 1046 q 871 1063 1009 1063 l 581 1063 q 332 1050 428 1063 q 183 1004 235 1037 q 110 914 130 972 q 90 768 90 857 q 105 632 90 686 q 163 546 119 578 q 291 498 206 513 q 515 481 376 484 l 892 476 q 1084 469 1014 474 q 1187 447 1154 464 q 1230 396 1220 431 q 1239 301 1239 361 m 673 -369 q 809 -355 750 -369 q 900 -308 867 -342 q 933 -216 933 -275 q 890 -116 933 -146 q 760 -87 846 -87 l 760 43 l 673 43 l 673 -152 q 767 -162 731 -152 q 803 -203 803 -172 q 783 -241 803 -229 q 734 -257 764 -254 q 673 -260 704 -260 l 673 -369 "},"Ŝ":{"ha":1453,"x_min":90,"x_max":1369,"o":"m 1239 301 q 1229 192 1239 233 q 1185 129 1219 151 q 1081 99 1152 106 q 889 91 1010 91 l 578 91 q 400 95 470 91 q 291 122 330 100 q 236 197 252 145 q 220 345 220 250 l 90 345 q 115 150 90 223 q 195 40 139 77 q 345 -9 251 3 q 578 -22 439 -22 l 896 -22 q 1142 -5 1048 -22 q 1285 48 1236 11 q 1352 148 1335 85 q 1369 301 1369 210 q 1355 440 1369 385 q 1299 528 1341 496 q 1172 575 1257 561 q 944 592 1086 590 l 540 597 q 364 605 429 599 q 269 629 300 612 q 229 680 238 646 q 220 768 220 713 q 233 870 220 833 q 283 924 245 907 q 393 946 320 941 q 587 951 466 951 l 871 951 q 1038 949 970 951 q 1144 931 1105 948 q 1201 868 1184 914 q 1219 730 1219 821 l 1349 730 q 1325 915 1349 848 q 1248 1014 1302 982 q 1101 1055 1194 1046 q 871 1063 1009 1063 l 581 1063 q 332 1050 428 1063 q 183 1004 235 1037 q 110 914 130 972 q 90 768 90 857 q 105 632 90 686 q 163 546 119 578 q 291 498 206 513 q 515 481 376 484 l 892 476 q 1084 469 1014 474 q 1187 447 1154 464 q 1230 396 1220 431 q 1239 301 1239 361 m 531 1149 l 726 1453 l 922 1149 l 1008 1214 l 791 1539 l 661 1539 l 444 1214 l 531 1149 "},"Ș":{"ha":1453,"x_min":90,"x_max":1369,"o":"m 1239 301 q 1229 192 1239 233 q 1185 129 1219 151 q 1081 99 1152 106 q 889 91 1010 91 l 578 91 q 400 95 470 91 q 291 122 330 100 q 236 197 252 145 q 220 345 220 250 l 90 345 q 115 150 90 223 q 195 40 139 77 q 345 -9 251 3 q 578 -22 439 -22 l 896 -22 q 1142 -5 1048 -22 q 1285 48 1236 11 q 1352 148 1335 85 q 1369 301 1369 210 q 1355 440 1369 385 q 1299 528 1341 496 q 1172 575 1257 561 q 944 592 1086 590 l 540 597 q 364 605 429 599 q 269 629 300 612 q 229 680 238 646 q 220 768 220 713 q 233 870 220 833 q 283 924 245 907 q 393 946 320 941 q 587 951 466 951 l 871 951 q 1038 949 970 951 q 1144 931 1105 948 q 1201 868 1184 914 q 1219 730 1219 821 l 1349 730 q 1325 915 1349 848 q 1248 1014 1302 982 q 1101 1055 1194 1046 q 871 1063 1009 1063 l 581 1063 q 332 1050 428 1063 q 183 1004 235 1037 q 110 914 130 972 q 90 768 90 857 q 105 632 90 686 q 163 546 119 578 q 291 498 206 513 q 515 481 376 484 l 892 476 q 1084 469 1014 474 q 1187 447 1154 464 q 1230 396 1220 431 q 1239 301 1239 361 m 791 -103 l 661 -103 l 618 -363 l 705 -363 l 791 -103 "},"Ṡ":{"ha":1453,"x_min":90,"x_max":1369,"o":"m 1239 301 q 1229 192 1239 233 q 1185 129 1219 151 q 1081 99 1152 106 q 889 91 1010 91 l 578 91 q 400 95 470 91 q 291 122 330 100 q 236 197 252 145 q 220 345 220 250 l 90 345 q 115 150 90 223 q 195 40 139 77 q 345 -9 251 3 q 578 -22 439 -22 l 896 -22 q 1142 -5 1048 -22 q 1285 48 1236 11 q 1352 148 1335 85 q 1369 301 1369 210 q 1355 440 1369 385 q 1299 528 1341 496 q 1172 575 1257 561 q 944 592 1086 590 l 540 597 q 364 605 429 599 q 269 629 300 612 q 229 680 238 646 q 220 768 220 713 q 233 870 220 833 q 283 924 245 907 q 393 946 320 941 q 587 951 466 951 l 871 951 q 1038 949 970 951 q 1144 931 1105 948 q 1201 868 1184 914 q 1219 730 1219 821 l 1349 730 q 1325 915 1349 848 q 1248 1014 1302 982 q 1101 1055 1194 1046 q 871 1063 1009 1063 l 581 1063 q 332 1050 428 1063 q 183 1004 235 1037 q 110 914 130 972 q 90 768 90 857 q 105 632 90 686 q 163 546 119 578 q 291 498 206 513 q 515 481 376 484 l 892 476 q 1084 469 1014 474 q 1187 447 1154 464 q 1230 396 1220 431 q 1239 301 1239 361 m 661 1172 l 791 1172 l 791 1302 l 661 1302 l 661 1172 "},"ẞ":{"ha":1215,"x_min":130,"x_max":1085,"o":"m 130 -262 l 1085 -262 l 1085 1111 l 130 1111 l 130 -262 m 260 -153 l 260 1002 l 955 1002 l 955 -153 l 260 -153 "},"T":{"ha":1299,"x_min":64,"x_max":1236,"o":"m 585 0 l 715 0 l 715 933 l 1236 933 l 1236 1042 l 64 1042 l 64 933 l 585 933 l 585 0 "},"Ŧ":{"ha":1299,"x_min":64,"x_max":1236,"o":"m 585 0 l 715 0 l 715 442 l 910 442 l 910 551 l 715 551 l 715 933 l 1236 933 l 1236 1042 l 64 1042 l 64 933 l 585 933 l 585 551 l 389 551 l 389 442 l 585 442 l 585 0 "},"Ť":{"ha":1299,"x_min":64,"x_max":1236,"o":"m 585 0 l 715 0 l 715 933 l 1236 933 l 1236 1042 l 64 1042 l 64 933 l 585 933 l 585 0 m 585 1153 l 715 1153 l 932 1478 l 845 1544 l 650 1240 l 454 1544 l 368 1478 l 585 1153 "},"Ț":{"ha":1299,"x_min":64,"x_max":1236,"o":"m 585 0 l 715 0 l 715 933 l 1236 933 l 1236 1042 l 64 1042 l 64 933 l 585 933 l 585 0 m 715 -103 l 585 -103 l 541 -363 l 628 -363 l 715 -103 "},"Ṫ":{"ha":1299,"x_min":64,"x_max":1236,"o":"m 585 0 l 715 0 l 715 933 l 1236 933 l 1236 1042 l 64 1042 l 64 933 l 585 933 l 585 0 m 585 1172 l 715 1172 l 715 1302 l 585 1302 l 585 1172 "},"U":{"ha":1438,"x_min":92,"x_max":1345,"o":"m 596 -22 l 842 -22 q 1093 -1 994 -22 q 1246 75 1191 20 q 1323 235 1301 131 q 1345 507 1345 340 l 1345 1042 l 1215 1042 l 1215 507 q 1207 316 1215 392 q 1177 195 1199 240 q 1113 127 1154 149 q 1005 98 1071 104 q 842 91 939 91 l 596 91 q 433 98 500 91 q 325 127 367 104 q 261 195 283 149 q 231 316 239 240 q 222 507 222 392 l 222 1042 l 92 1042 l 92 507 q 114 235 92 340 q 192 75 136 131 q 345 -1 247 20 q 596 -22 444 -22 "},"Ú":{"ha":1438,"x_min":92,"x_max":1345,"o":"m 596 -22 l 842 -22 q 1093 -1 994 -22 q 1246 75 1191 20 q 1323 235 1301 131 q 1345 507 1345 340 l 1345 1042 l 1215 1042 l 1215 507 q 1207 316 1215 392 q 1177 195 1199 240 q 1113 127 1154 149 q 1005 98 1071 104 q 842 91 939 91 l 596 91 q 433 98 500 91 q 325 127 367 104 q 261 195 283 149 q 231 316 239 240 q 222 507 222 392 l 222 1042 l 92 1042 l 92 507 q 114 235 92 340 q 192 75 136 131 q 345 -1 247 20 q 596 -22 444 -22 m 567 1171 l 994 1444 l 914 1561 l 524 1236 l 567 1171 "},"Ŭ":{"ha":1438,"x_min":92,"x_max":1345,"o":"m 596 -22 l 842 -22 q 1093 -1 994 -22 q 1246 75 1191 20 q 1323 235 1301 131 q 1345 507 1345 340 l 1345 1042 l 1215 1042 l 1215 507 q 1207 316 1215 392 q 1177 195 1199 240 q 1113 127 1154 149 q 1005 98 1071 104 q 842 91 939 91 l 596 91 q 433 98 500 91 q 325 127 367 104 q 261 195 283 149 q 231 316 239 240 q 222 507 222 392 l 222 1042 l 92 1042 l 92 507 q 114 235 92 340 q 192 75 136 131 q 345 -1 247 20 q 596 -22 444 -22 m 719 1147 q 860 1170 802 1147 q 948 1250 918 1193 q 979 1411 979 1308 l 871 1411 q 827 1257 871 1283 q 719 1240 800 1240 q 614 1255 637 1240 q 567 1411 567 1283 l 458 1411 q 489 1250 458 1308 q 578 1170 520 1193 q 719 1147 637 1147 "},"Ǔ":{"ha":1438,"x_min":92,"x_max":1345,"o":"m 596 -22 l 842 -22 q 1093 -1 994 -22 q 1246 75 1191 20 q 1323 235 1301 131 q 1345 507 1345 340 l 1345 1042 l 1215 1042 l 1215 507 q 1207 316 1215 392 q 1177 195 1199 240 q 1113 127 1154 149 q 1005 98 1071 104 q 842 91 939 91 l 596 91 q 433 98 500 91 q 325 127 367 104 q 261 195 283 149 q 231 316 239 240 q 222 507 222 392 l 222 1042 l 92 1042 l 92 507 q 114 235 92 340 q 192 75 136 131 q 345 -1 247 20 q 596 -22 444 -22 m 654 1153 l 784 1153 l 1001 1478 l 914 1544 l 719 1240 l 524 1544 l 437 1478 l 654 1153 "},"Û":{"ha":1438,"x_min":92,"x_max":1345,"o":"m 596 -22 l 842 -22 q 1093 -1 994 -22 q 1246 75 1191 20 q 1323 235 1301 131 q 1345 507 1345 340 l 1345 1042 l 1215 1042 l 1215 507 q 1207 316 1215 392 q 1177 195 1199 240 q 1113 127 1154 149 q 1005 98 1071 104 q 842 91 939 91 l 596 91 q 433 98 500 91 q 325 127 367 104 q 261 195 283 149 q 231 316 239 240 q 222 507 222 392 l 222 1042 l 92 1042 l 92 507 q 114 235 92 340 q 192 75 136 131 q 345 -1 247 20 q 596 -22 444 -22 m 524 1149 l 719 1453 l 914 1149 l 1001 1214 l 784 1539 l 654 1539 l 437 1214 l 524 1149 "},"Ȕ":{"ha":1438,"x_min":92,"x_max":1345,"o":"m 596 -22 l 842 -22 q 1093 -1 994 -22 q 1246 75 1191 20 q 1323 235 1301 131 q 1345 507 1345 340 l 1345 1042 l 1215 1042 l 1215 507 q 1207 316 1215 392 q 1177 195 1199 240 q 1113 127 1154 149 q 1005 98 1071 104 q 842 91 939 91 l 596 91 q 433 98 500 91 q 325 127 367 104 q 261 195 283 149 q 231 316 239 240 q 222 507 222 392 l 222 1042 l 92 1042 l 92 507 q 114 235 92 340 q 192 75 136 131 q 345 -1 247 20 q 596 -22 444 -22 "},"Ü":{"ha":1438,"x_min":92,"x_max":1345,"o":"m 596 -22 l 842 -22 q 1093 -1 994 -22 q 1246 75 1191 20 q 1323 235 1301 131 q 1345 507 1345 340 l 1345 1042 l 1215 1042 l 1215 507 q 1207 316 1215 392 q 1177 195 1199 240 q 1113 127 1154 149 q 1005 98 1071 104 q 842 91 939 91 l 596 91 q 433 98 500 91 q 325 127 367 104 q 261 195 283 149 q 231 316 239 240 q 222 507 222 392 l 222 1042 l 92 1042 l 92 507 q 114 235 92 340 q 192 75 136 131 q 345 -1 247 20 q 596 -22 444 -22 m 894 1172 l 1024 1172 l 1024 1302 l 894 1302 l 894 1172 m 414 1172 l 544 1172 l 544 1302 l 414 1302 l 414 1172 "},"Ù":{"ha":1438,"x_min":92,"x_max":1345,"o":"m 596 -22 l 842 -22 q 1093 -1 994 -22 q 1246 75 1191 20 q 1323 235 1301 131 q 1345 507 1345 340 l 1345 1042 l 1215 1042 l 1215 507 q 1207 316 1215 392 q 1177 195 1199 240 q 1113 127 1154 149 q 1005 98 1071 104 q 842 91 939 91 l 596 91 q 433 98 500 91 q 325 127 367 104 q 261 195 283 149 q 231 316 239 240 q 222 507 222 392 l 222 1042 l 92 1042 l 92 507 q 114 235 92 340 q 192 75 136 131 q 345 -1 247 20 q 596 -22 444 -22 m 956 1169 l 1000 1234 l 609 1560 l 529 1443 l 956 1169 "},"Ű":{"ha":1438,"x_min":92,"x_max":1345,"o":"m 596 -22 l 842 -22 q 1093 -1 994 -22 q 1246 75 1191 20 q 1323 235 1301 131 q 1345 507 1345 340 l 1345 1042 l 1215 1042 l 1215 507 q 1207 316 1215 392 q 1177 195 1199 240 q 1113 127 1154 149 q 1005 98 1071 104 q 842 91 939 91 l 596 91 q 433 98 500 91 q 325 127 367 104 q 261 195 283 149 q 231 316 239 240 q 222 507 222 392 l 222 1042 l 92 1042 l 92 507 q 114 235 92 340 q 192 75 136 131 q 345 -1 247 20 q 596 -22 444 -22 m 905 1145 l 1339 1405 l 1252 1535 l 861 1210 l 905 1145 m 530 1145 l 964 1405 l 877 1535 l 486 1210 l 530 1145 "},"Ȗ":{"ha":1438,"x_min":92,"x_max":1345,"o":"m 596 -22 l 842 -22 q 1093 -1 994 -22 q 1246 75 1191 20 q 1323 235 1301 131 q 1345 507 1345 340 l 1345 1042 l 1215 1042 l 1215 507 q 1207 316 1215 392 q 1177 195 1199 240 q 1113 127 1154 149 q 1005 98 1071 104 q 842 91 939 91 l 596 91 q 433 98 500 91 q 325 127 367 104 q 261 195 283 149 q 231 316 239 240 q 222 507 222 392 l 222 1042 l 92 1042 l 92 507 q 114 235 92 340 q 192 75 136 131 q 345 -1 247 20 q 596 -22 444 -22 m 719 1411 q 578 1389 637 1411 q 489 1308 520 1366 q 458 1147 458 1251 l 567 1147 q 614 1303 567 1275 q 719 1318 637 1318 q 827 1301 800 1318 q 871 1147 871 1275 l 979 1147 q 948 1308 979 1251 q 860 1389 918 1366 q 719 1411 802 1411 "},"Ū":{"ha":1438,"x_min":92,"x_max":1345,"o":"m 596 -22 l 842 -22 q 1093 -1 994 -22 q 1246 75 1191 20 q 1323 235 1301 131 q 1345 507 1345 340 l 1345 1042 l 1215 1042 l 1215 507 q 1207 316 1215 392 q 1177 195 1199 240 q 1113 127 1154 149 q 1005 98 1071 104 q 842 91 939 91 l 596 91 q 433 98 500 91 q 325 127 367 104 q 261 195 283 149 q 231 316 239 240 q 222 507 222 392 l 222 1042 l 92 1042 l 92 507 q 114 235 92 340 q 192 75 136 131 q 345 -1 247 20 q 596 -22 444 -22 m 458 1145 l 979 1145 l 979 1254 l 458 1254 l 458 1145 "},"Ų":{"ha":1438,"x_min":92,"x_max":1345,"o":"m 596 -22 l 842 -22 q 1093 -1 994 -22 q 1246 75 1191 20 q 1323 235 1301 131 q 1345 507 1345 340 l 1345 1042 l 1215 1042 l 1215 507 q 1207 316 1215 392 q 1177 195 1199 240 q 1113 127 1154 149 q 1005 98 1071 104 q 842 91 939 91 l 596 91 q 433 98 500 91 q 325 127 367 104 q 261 195 283 149 q 231 316 239 240 q 222 507 222 392 l 222 1042 l 92 1042 l 92 507 q 114 235 92 340 q 192 75 136 131 q 345 -1 247 20 q 596 -22 444 -22 m 760 -376 l 760 -268 q 666 -251 703 -268 q 630 -181 630 -235 q 760 14 630 -72 l 673 14 q 527 -114 573 -41 q 507 -157 514 -135 q 500 -215 500 -179 q 522 -285 500 -251 q 760 -376 585 -376 "},"Ů":{"ha":1438,"x_min":92,"x_max":1345,"o":"m 596 -22 l 842 -22 q 1093 -1 994 -22 q 1246 75 1191 20 q 1323 235 1301 131 q 1345 507 1345 340 l 1345 1042 l 1215 1042 l 1215 507 q 1207 316 1215 392 q 1177 195 1199 240 q 1113 127 1154 149 q 1005 98 1071 104 q 842 91 939 91 l 596 91 q 433 98 500 91 q 325 127 367 104 q 261 195 283 149 q 231 316 239 240 q 222 507 222 392 l 222 1042 l 92 1042 l 92 507 q 114 235 92 340 q 192 75 136 131 q 345 -1 247 20 q 596 -22 444 -22 m 719 1169 q 891 1225 825 1169 q 958 1386 958 1282 q 895 1545 958 1487 q 719 1603 831 1603 q 546 1547 612 1603 q 480 1386 480 1491 q 543 1227 480 1286 q 719 1169 606 1169 m 719 1256 q 620 1289 651 1256 q 589 1386 589 1321 q 608 1469 589 1445 q 719 1516 645 1516 q 818 1484 787 1516 q 849 1386 849 1451 q 830 1303 849 1327 q 719 1256 793 1256 "},"Ũ":{"ha":1438,"x_min":92,"x_max":1345,"o":"m 596 -22 l 842 -22 q 1093 -1 994 -22 q 1246 75 1191 20 q 1323 235 1301 131 q 1345 507 1345 340 l 1345 1042 l 1215 1042 l 1215 507 q 1207 316 1215 392 q 1177 195 1199 240 q 1113 127 1154 149 q 1005 98 1071 104 q 842 91 939 91 l 596 91 q 433 98 500 91 q 325 127 367 104 q 261 195 283 149 q 231 316 239 240 q 222 507 222 392 l 222 1042 l 92 1042 l 92 507 q 114 235 92 340 q 192 75 136 131 q 345 -1 247 20 q 596 -22 444 -22 m 415 1171 l 545 1171 q 554 1223 545 1211 q 598 1236 564 1236 q 652 1224 625 1236 q 701 1203 678 1213 q 849 1171 778 1171 q 960 1207 911 1171 q 1023 1344 1023 1254 l 892 1344 q 882 1292 892 1304 q 840 1279 872 1279 q 786 1291 812 1279 q 737 1312 760 1302 q 589 1345 659 1345 q 465 1300 515 1345 q 415 1171 415 1255 "},"V":{"ha":1389,"x_min":46,"x_max":1341,"o":"m 608 0 l 781 0 l 1341 1042 l 1194 1042 l 694 92 l 195 1042 l 46 1042 l 608 0 "},"W":{"ha":2257,"x_min":52,"x_max":2205,"o":"m 564 0 l 738 0 l 1150 911 l 1563 0 l 1736 0 l 2205 1042 l 2055 1042 l 1649 111 l 1226 1042 l 1074 1042 l 651 111 l 202 1042 l 52 1042 l 564 0 "},"Ẃ":{"ha":2257,"x_min":52,"x_max":2205,"o":"m 564 0 l 738 0 l 1150 911 l 1563 0 l 1736 0 l 2205 1042 l 2055 1042 l 1649 111 l 1226 1042 l 1074 1042 l 651 111 l 202 1042 l 52 1042 l 564 0 m 977 1171 l 1404 1444 l 1324 1561 l 933 1236 l 977 1171 "},"Ŵ":{"ha":2257,"x_min":52,"x_max":2205,"o":"m 564 0 l 738 0 l 1150 911 l 1563 0 l 1736 0 l 2205 1042 l 2055 1042 l 1649 111 l 1226 1042 l 1074 1042 l 651 111 l 202 1042 l 52 1042 l 564 0 m 933 1149 l 1128 1453 l 1324 1149 l 1411 1214 l 1194 1539 l 1063 1539 l 846 1214 l 933 1149 "},"Ẅ":{"ha":2257,"x_min":52,"x_max":2205,"o":"m 564 0 l 738 0 l 1150 911 l 1563 0 l 1736 0 l 2205 1042 l 2055 1042 l 1649 111 l 1226 1042 l 1074 1042 l 651 111 l 202 1042 l 52 1042 l 564 0 m 1303 1172 l 1434 1172 l 1434 1302 l 1303 1302 l 1303 1172 m 823 1172 l 954 1172 l 954 1302 l 823 1302 l 823 1172 "},"Ẁ":{"ha":2257,"x_min":52,"x_max":2205,"o":"m 564 0 l 738 0 l 1150 911 l 1563 0 l 1736 0 l 2205 1042 l 2055 1042 l 1649 111 l 1226 1042 l 1074 1042 l 651 111 l 202 1042 l 52 1042 l 564 0 m 1366 1169 l 1409 1234 l 1019 1560 l 939 1443 l 1366 1169 "},"X":{"ha":1476,"x_min":43,"x_max":1432,"o":"m 43 0 l 228 0 l 729 465 l 1248 0 l 1432 0 l 820 549 l 1350 1042 l 1166 1042 l 726 633 l 271 1042 l 87 1042 l 635 549 l 43 0 "},"Y":{"ha":1476,"x_min":87,"x_max":1389,"o":"m 673 0 l 803 0 l 803 434 l 1389 1042 l 1215 1042 l 738 532 l 260 1042 l 87 1042 l 673 434 l 673 0 "},"Ý":{"ha":1476,"x_min":87,"x_max":1389,"o":"m 673 0 l 803 0 l 803 434 l 1389 1042 l 1215 1042 l 738 532 l 260 1042 l 87 1042 l 673 434 l 673 0 m 586 1171 l 1013 1444 l 933 1561 l 543 1236 l 586 1171 "},"Ŷ":{"ha":1476,"x_min":87,"x_max":1389,"o":"m 673 0 l 803 0 l 803 434 l 1389 1042 l 1215 1042 l 738 532 l 260 1042 l 87 1042 l 673 434 l 673 0 m 543 1149 l 738 1453 l 933 1149 l 1020 1214 l 803 1539 l 673 1539 l 456 1214 l 543 1149 "},"Ÿ":{"ha":1476,"x_min":87,"x_max":1389,"o":"m 673 0 l 803 0 l 803 434 l 1389 1042 l 1215 1042 l 738 532 l 260 1042 l 87 1042 l 673 434 l 673 0 m 913 1172 l 1043 1172 l 1043 1302 l 913 1302 l 913 1172 m 433 1172 l 563 1172 l 563 1302 l 433 1302 l 433 1172 "},"Ỳ":{"ha":1476,"x_min":87,"x_max":1389,"o":"m 673 0 l 803 0 l 803 434 l 1389 1042 l 1215 1042 l 738 532 l 260 1042 l 87 1042 l 673 434 l 673 0 m 975 1169 l 1019 1234 l 628 1560 l 548 1443 l 975 1169 "},"Ȳ":{"ha":1476,"x_min":87,"x_max":1389,"o":"m 673 0 l 803 0 l 803 434 l 1389 1042 l 1215 1042 l 738 532 l 260 1042 l 87 1042 l 673 434 l 673 0 m 477 1145 l 998 1145 l 998 1254 l 477 1254 l 477 1145 "},"Ỹ":{"ha":1476,"x_min":87,"x_max":1389,"o":"m 673 0 l 803 0 l 803 434 l 1389 1042 l 1215 1042 l 738 532 l 260 1042 l 87 1042 l 673 434 l 673 0 m 434 1171 l 564 1171 q 573 1223 564 1211 q 617 1236 583 1236 q 671 1224 644 1236 q 720 1203 697 1213 q 868 1171 797 1171 q 979 1207 930 1171 q 1042 1344 1042 1254 l 911 1344 q 901 1292 911 1304 q 859 1279 891 1279 q 805 1291 831 1279 q 756 1312 779 1302 q 608 1345 678 1345 q 484 1300 534 1345 q 434 1171 434 1255 "},"Z":{"ha":1388,"x_min":87,"x_max":1302,"o":"m 87 0 l 1302 0 l 1302 109 l 267 109 l 1280 933 l 1280 1042 l 130 1042 l 130 933 l 1095 933 l 87 109 l 87 0 "},"Ź":{"ha":1388,"x_min":87,"x_max":1302,"o":"m 87 0 l 1302 0 l 1302 109 l 267 109 l 1280 933 l 1280 1042 l 130 1042 l 130 933 l 1095 933 l 87 109 l 87 0 m 542 1171 l 969 1444 l 889 1561 l 498 1236 l 542 1171 "},"Ž":{"ha":1388,"x_min":87,"x_max":1302,"o":"m 87 0 l 1302 0 l 1302 109 l 267 109 l 1280 933 l 1280 1042 l 130 1042 l 130 933 l 1095 933 l 87 109 l 87 0 m 629 1153 l 759 1153 l 976 1478 l 889 1544 l 694 1240 l 498 1544 l 412 1478 l 629 1153 "},"Ż":{"ha":1388,"x_min":87,"x_max":1302,"o":"m 87 0 l 1302 0 l 1302 109 l 267 109 l 1280 933 l 1280 1042 l 130 1042 l 130 933 l 1095 933 l 87 109 l 87 0 m 629 1172 l 759 1172 l 759 1302 l 629 1302 l 629 1172 "},"a":{"ha":1058,"x_min":87,"x_max":974,"o":"m 499 -15 q 672 -8 604 -15 q 780 14 739 -1 q 844 54 821 29 l 844 0 l 974 0 l 974 376 q 959 587 974 505 q 900 715 943 669 q 772 779 856 761 q 551 796 688 796 q 340 788 424 796 q 208 757 256 780 q 140 689 160 734 q 120 571 120 644 l 250 571 q 257 631 250 608 q 292 666 264 654 q 381 683 320 678 q 551 688 443 688 q 704 681 646 688 q 791 648 761 673 q 831 571 821 623 q 844 429 842 519 q 699 448 780 443 q 499 454 618 454 q 261 439 352 454 q 129 374 171 424 q 87 218 87 324 q 132 64 87 113 q 268 0 176 14 q 499 -15 359 -15 m 499 91 q 352 94 408 91 q 267 110 296 98 q 228 148 237 122 q 218 218 218 174 q 228 290 218 263 q 267 329 237 317 q 352 346 296 342 q 499 348 408 349 l 844 344 l 844 224 q 833 148 844 175 q 788 109 822 121 q 684 94 753 96 q 499 91 615 91 "},"á":{"ha":1058,"x_min":87,"x_max":974,"o":"m 499 -15 q 672 -8 604 -15 q 780 14 739 -1 q 844 54 821 29 l 844 0 l 974 0 l 974 376 q 959 587 974 505 q 900 715 943 669 q 772 779 856 761 q 551 796 688 796 q 340 788 424 796 q 208 757 256 780 q 140 689 160 734 q 120 571 120 644 l 250 571 q 257 631 250 608 q 292 666 264 654 q 381 683 320 678 q 551 688 443 688 q 704 681 646 688 q 791 648 761 673 q 831 571 821 623 q 844 429 842 519 q 699 448 780 443 q 499 454 618 454 q 261 439 352 454 q 129 374 171 424 q 87 218 87 324 q 132 64 87 113 q 268 0 176 14 q 499 -15 359 -15 m 499 91 q 352 94 408 91 q 267 110 296 98 q 228 148 237 122 q 218 218 218 174 q 228 290 218 263 q 267 329 237 317 q 352 346 296 342 q 499 348 408 349 l 844 344 l 844 224 q 833 148 844 175 q 788 109 822 121 q 684 94 753 96 q 499 91 615 91 m 393 910 l 821 1184 l 741 1301 l 350 975 l 393 910 "},"ă":{"ha":1058,"x_min":87,"x_max":974,"o":"m 499 -15 q 672 -8 604 -15 q 780 14 739 -1 q 844 54 821 29 l 844 0 l 974 0 l 974 376 q 959 587 974 505 q 900 715 943 669 q 772 779 856 761 q 551 796 688 796 q 340 788 424 796 q 208 757 256 780 q 140 689 160 734 q 120 571 120 644 l 250 571 q 257 631 250 608 q 292 666 264 654 q 381 683 320 678 q 551 688 443 688 q 704 681 646 688 q 791 648 761 673 q 831 571 821 623 q 844 429 842 519 q 699 448 780 443 q 499 454 618 454 q 261 439 352 454 q 129 374 171 424 q 87 218 87 324 q 132 64 87 113 q 268 0 176 14 q 499 -15 359 -15 m 499 91 q 352 94 408 91 q 267 110 296 98 q 228 148 237 122 q 218 218 218 174 q 228 290 218 263 q 267 329 237 317 q 352 346 296 342 q 499 348 408 349 l 844 344 l 844 224 q 833 148 844 175 q 788 109 822 121 q 684 94 753 96 q 499 91 615 91 m 545 886 q 686 909 628 886 q 775 990 744 932 q 806 1151 806 1047 l 697 1151 q 654 996 697 1023 q 545 980 627 980 q 440 994 464 980 q 393 1151 393 1023 l 285 1151 q 316 990 285 1047 q 405 909 347 932 q 545 886 463 886 "},"ǎ":{"ha":1058,"x_min":87,"x_max":974,"o":"m 499 -15 q 672 -8 604 -15 q 780 14 739 -1 q 844 54 821 29 l 844 0 l 974 0 l 974 376 q 959 587 974 505 q 900 715 943 669 q 772 779 856 761 q 551 796 688 796 q 340 788 424 796 q 208 757 256 780 q 140 689 160 734 q 120 571 120 644 l 250 571 q 257 631 250 608 q 292 666 264 654 q 381 683 320 678 q 551 688 443 688 q 704 681 646 688 q 791 648 761 673 q 831 571 821 623 q 844 429 842 519 q 699 448 780 443 q 499 454 618 454 q 261 439 352 454 q 129 374 171 424 q 87 218 87 324 q 132 64 87 113 q 268 0 176 14 q 499 -15 359 -15 m 499 91 q 352 94 408 91 q 267 110 296 98 q 228 148 237 122 q 218 218 218 174 q 228 290 218 263 q 267 329 237 317 q 352 346 296 342 q 499 348 408 349 l 844 344 l 844 224 q 833 148 844 175 q 788 109 822 121 q 684 94 753 96 q 499 91 615 91 m 480 892 l 610 892 l 827 1218 l 741 1283 l 545 979 l 350 1283 l 263 1218 l 480 892 "},"â":{"ha":1058,"x_min":87,"x_max":974,"o":"m 499 -15 q 672 -8 604 -15 q 780 14 739 -1 q 844 54 821 29 l 844 0 l 974 0 l 974 376 q 959 587 974 505 q 900 715 943 669 q 772 779 856 761 q 551 796 688 796 q 340 788 424 796 q 208 757 256 780 q 140 689 160 734 q 120 571 120 644 l 250 571 q 257 631 250 608 q 292 666 264 654 q 381 683 320 678 q 551 688 443 688 q 704 681 646 688 q 791 648 761 673 q 831 571 821 623 q 844 429 842 519 q 699 448 780 443 q 499 454 618 454 q 261 439 352 454 q 129 374 171 424 q 87 218 87 324 q 132 64 87 113 q 268 0 176 14 q 499 -15 359 -15 m 499 91 q 352 94 408 91 q 267 110 296 98 q 228 148 237 122 q 218 218 218 174 q 228 290 218 263 q 267 329 237 317 q 352 346 296 342 q 499 348 408 349 l 844 344 l 844 224 q 833 148 844 175 q 788 109 822 121 q 684 94 753 96 q 499 91 615 91 m 350 888 l 545 1192 l 741 888 l 827 954 l 610 1279 l 480 1279 l 263 954 l 350 888 "},"ȁ":{"ha":1058,"x_min":87,"x_max":974,"o":"m 499 -15 q 672 -8 604 -15 q 780 14 739 -1 q 844 54 821 29 l 844 0 l 974 0 l 974 376 q 959 587 974 505 q 900 715 943 669 q 772 779 856 761 q 551 796 688 796 q 340 788 424 796 q 208 757 256 780 q 140 689 160 734 q 120 571 120 644 l 250 571 q 257 631 250 608 q 292 666 264 654 q 381 683 320 678 q 551 688 443 688 q 704 681 646 688 q 791 648 761 673 q 831 571 821 623 q 844 429 842 519 q 699 448 780 443 q 499 454 618 454 q 261 439 352 454 q 129 374 171 424 q 87 218 87 324 q 132 64 87 113 q 268 0 176 14 q 499 -15 359 -15 m 499 91 q 352 94 408 91 q 267 110 296 98 q 228 148 237 122 q 218 218 218 174 q 228 290 218 263 q 267 329 237 317 q 352 346 296 342 q 499 348 408 349 l 844 344 l 844 224 q 833 148 844 175 q 788 109 822 121 q 684 94 753 96 q 499 91 615 91 "},"ä":{"ha":1058,"x_min":87,"x_max":974,"o":"m 499 -15 q 672 -8 604 -15 q 780 14 739 -1 q 844 54 821 29 l 844 0 l 974 0 l 974 376 q 959 587 974 505 q 900 715 943 669 q 772 779 856 761 q 551 796 688 796 q 340 788 424 796 q 208 757 256 780 q 140 689 160 734 q 120 571 120 644 l 250 571 q 257 631 250 608 q 292 666 264 654 q 381 683 320 678 q 551 688 443 688 q 704 681 646 688 q 791 648 761 673 q 831 571 821 623 q 844 429 842 519 q 699 448 780 443 q 499 454 618 454 q 261 439 352 454 q 129 374 171 424 q 87 218 87 324 q 132 64 87 113 q 268 0 176 14 q 499 -15 359 -15 m 499 91 q 352 94 408 91 q 267 110 296 98 q 228 148 237 122 q 218 218 218 174 q 228 290 218 263 q 267 329 237 317 q 352 346 296 342 q 499 348 408 349 l 844 344 l 844 224 q 833 148 844 175 q 788 109 822 121 q 684 94 753 96 q 499 91 615 91 m 720 911 l 850 911 l 850 1042 l 720 1042 l 720 911 m 240 911 l 370 911 l 370 1042 l 240 1042 l 240 911 "},"ȧ":{"ha":1058,"x_min":87,"x_max":974,"o":"m 499 -15 q 672 -8 604 -15 q 780 14 739 -1 q 844 54 821 29 l 844 0 l 974 0 l 974 376 q 959 587 974 505 q 900 715 943 669 q 772 779 856 761 q 551 796 688 796 q 340 788 424 796 q 208 757 256 780 q 140 689 160 734 q 120 571 120 644 l 250 571 q 257 631 250 608 q 292 666 264 654 q 381 683 320 678 q 551 688 443 688 q 704 681 646 688 q 791 648 761 673 q 831 571 821 623 q 844 429 842 519 q 699 448 780 443 q 499 454 618 454 q 261 439 352 454 q 129 374 171 424 q 87 218 87 324 q 132 64 87 113 q 268 0 176 14 q 499 -15 359 -15 m 499 91 q 352 94 408 91 q 267 110 296 98 q 228 148 237 122 q 218 218 218 174 q 228 290 218 263 q 267 329 237 317 q 352 346 296 342 q 499 348 408 349 l 844 344 l 844 224 q 833 148 844 175 q 788 109 822 121 q 684 94 753 96 q 499 91 615 91 m 480 911 l 610 911 l 610 1042 l 480 1042 l 480 911 "},"à":{"ha":1058,"x_min":87,"x_max":974,"o":"m 499 -15 q 672 -8 604 -15 q 780 14 739 -1 q 844 54 821 29 l 844 0 l 974 0 l 974 376 q 959 587 974 505 q 900 715 943 669 q 772 779 856 761 q 551 796 688 796 q 340 788 424 796 q 208 757 256 780 q 140 689 160 734 q 120 571 120 644 l 250 571 q 257 631 250 608 q 292 666 264 654 q 381 683 320 678 q 551 688 443 688 q 704 681 646 688 q 791 648 761 673 q 831 571 821 623 q 844 429 842 519 q 699 448 780 443 q 499 454 618 454 q 261 439 352 454 q 129 374 171 424 q 87 218 87 324 q 132 64 87 113 q 268 0 176 14 q 499 -15 359 -15 m 499 91 q 352 94 408 91 q 267 110 296 98 q 228 148 237 122 q 218 218 218 174 q 228 290 218 263 q 267 329 237 317 q 352 346 296 342 q 499 348 408 349 l 844 344 l 844 224 q 833 148 844 175 q 788 109 822 121 q 684 94 753 96 q 499 91 615 91 m 783 909 l 826 974 l 435 1299 l 355 1183 l 783 909 "},"ȃ":{"ha":1058,"x_min":87,"x_max":974,"o":"m 499 -15 q 672 -8 604 -15 q 780 14 739 -1 q 844 54 821 29 l 844 0 l 974 0 l 974 376 q 959 587 974 505 q 900 715 943 669 q 772 779 856 761 q 551 796 688 796 q 340 788 424 796 q 208 757 256 780 q 140 689 160 734 q 120 571 120 644 l 250 571 q 257 631 250 608 q 292 666 264 654 q 381 683 320 678 q 551 688 443 688 q 704 681 646 688 q 791 648 761 673 q 831 571 821 623 q 844 429 842 519 q 699 448 780 443 q 499 454 618 454 q 261 439 352 454 q 129 374 171 424 q 87 218 87 324 q 132 64 87 113 q 268 0 176 14 q 499 -15 359 -15 m 499 91 q 352 94 408 91 q 267 110 296 98 q 228 148 237 122 q 218 218 218 174 q 228 290 218 263 q 267 329 237 317 q 352 346 296 342 q 499 348 408 349 l 844 344 l 844 224 q 833 148 844 175 q 788 109 822 121 q 684 94 753 96 q 499 91 615 91 m 545 1151 q 405 1128 463 1151 q 316 1048 347 1105 q 285 886 285 990 l 393 886 q 440 1043 393 1015 q 545 1057 464 1057 q 654 1041 627 1057 q 697 886 697 1015 l 806 886 q 775 1048 806 990 q 686 1128 744 1105 q 545 1151 628 1151 "},"ā":{"ha":1058,"x_min":87,"x_max":974,"o":"m 499 -15 q 672 -8 604 -15 q 780 14 739 -1 q 844 54 821 29 l 844 0 l 974 0 l 974 376 q 959 587 974 505 q 900 715 943 669 q 772 779 856 761 q 551 796 688 796 q 340 788 424 796 q 208 757 256 780 q 140 689 160 734 q 120 571 120 644 l 250 571 q 257 631 250 608 q 292 666 264 654 q 381 683 320 678 q 551 688 443 688 q 704 681 646 688 q 791 648 761 673 q 831 571 821 623 q 844 429 842 519 q 699 448 780 443 q 499 454 618 454 q 261 439 352 454 q 129 374 171 424 q 87 218 87 324 q 132 64 87 113 q 268 0 176 14 q 499 -15 359 -15 m 499 91 q 352 94 408 91 q 267 110 296 98 q 228 148 237 122 q 218 218 218 174 q 228 290 218 263 q 267 329 237 317 q 352 346 296 342 q 499 348 408 349 l 844 344 l 844 224 q 833 148 844 175 q 788 109 822 121 q 684 94 753 96 q 499 91 615 91 m 285 885 l 806 885 l 806 994 l 285 994 l 285 885 "},"ą":{"ha":1058,"x_min":87,"x_max":974,"o":"m 499 -15 q 672 -8 604 -15 q 780 14 739 -1 q 844 54 821 29 l 844 0 l 974 0 l 974 376 q 959 587 974 505 q 900 715 943 669 q 772 779 856 761 q 551 796 688 796 q 340 788 424 796 q 208 757 256 780 q 140 689 160 734 q 120 571 120 644 l 250 571 q 257 631 250 608 q 292 666 264 654 q 381 683 320 678 q 551 688 443 688 q 704 681 646 688 q 791 648 761 673 q 831 571 821 623 q 844 429 842 519 q 699 448 780 443 q 499 454 618 454 q 261 439 352 454 q 129 374 171 424 q 87 218 87 324 q 132 64 87 113 q 268 0 176 14 q 499 -15 359 -15 m 499 91 q 352 94 408 91 q 267 110 296 98 q 228 148 237 122 q 218 218 218 174 q 228 290 218 263 q 267 329 237 317 q 352 346 296 342 q 499 348 408 349 l 844 344 l 844 224 q 833 148 844 175 q 788 109 822 121 q 684 94 753 96 q 499 91 615 91 m 958 -377 l 958 -269 q 864 -252 901 -269 q 828 -182 828 -235 q 958 14 828 -73 l 871 14 q 725 -115 771 -41 q 705 -158 712 -136 q 698 -216 698 -180 q 720 -286 698 -252 q 958 -377 783 -377 "},"å":{"ha":1058,"x_min":87,"x_max":974,"o":"m 499 -15 q 672 -8 604 -15 q 780 14 739 -1 q 844 54 821 29 l 844 0 l 974 0 l 974 376 q 959 587 974 505 q 900 715 943 669 q 772 779 856 761 q 551 796 688 796 q 340 788 424 796 q 208 757 256 780 q 140 689 160 734 q 120 571 120 644 l 250 571 q 257 631 250 608 q 292 666 264 654 q 381 683 320 678 q 551 688 443 688 q 704 681 646 688 q 791 648 761 673 q 831 571 821 623 q 844 429 842 519 q 699 448 780 443 q 499 454 618 454 q 261 439 352 454 q 129 374 171 424 q 87 218 87 324 q 132 64 87 113 q 268 0 176 14 q 499 -15 359 -15 m 499 91 q 352 94 408 91 q 267 110 296 98 q 228 148 237 122 q 218 218 218 174 q 228 290 218 263 q 267 329 237 317 q 352 346 296 342 q 499 348 408 349 l 844 344 l 844 224 q 833 148 844 175 q 788 109 822 121 q 684 94 753 96 q 499 91 615 91 m 545 909 q 718 965 652 909 q 784 1126 784 1021 q 721 1284 784 1226 q 545 1343 658 1343 q 373 1286 439 1343 q 307 1126 307 1230 q 370 967 307 1025 q 545 909 433 909 m 545 996 q 446 1028 477 996 q 415 1126 415 1061 q 434 1208 415 1185 q 545 1256 471 1256 q 645 1223 614 1256 q 675 1126 675 1191 q 656 1043 675 1067 q 545 996 619 996 "},"ǻ":{"ha":1058,"x_min":87,"x_max":974,"o":"m 499 -15 q 672 -8 604 -15 q 780 14 739 -1 q 844 54 821 29 l 844 0 l 974 0 l 974 376 q 959 587 974 505 q 900 715 943 669 q 772 779 856 761 q 551 796 688 796 q 340 788 424 796 q 208 757 256 780 q 140 689 160 734 q 120 571 120 644 l 250 571 q 257 631 250 608 q 292 666 264 654 q 381 683 320 678 q 551 688 443 688 q 704 681 646 688 q 791 648 761 673 q 831 571 821 623 q 844 429 842 519 q 699 448 780 443 q 499 454 618 454 q 261 439 352 454 q 129 374 171 424 q 87 218 87 324 q 132 64 87 113 q 268 0 176 14 q 499 -15 359 -15 m 499 91 q 352 94 408 91 q 267 110 296 98 q 228 148 237 122 q 218 218 218 174 q 228 290 218 263 q 267 329 237 317 q 352 346 296 342 q 499 348 408 349 l 844 344 l 844 224 q 833 148 844 175 q 788 109 822 121 q 684 94 753 96 q 499 91 615 91 m 545 909 q 718 965 652 909 q 784 1126 784 1021 q 721 1284 784 1226 q 545 1343 658 1343 q 373 1286 439 1343 q 307 1126 307 1230 q 370 967 307 1025 q 545 909 433 909 m 545 996 q 446 1028 477 996 q 415 1126 415 1061 q 434 1208 415 1185 q 545 1256 471 1256 q 645 1223 614 1256 q 675 1126 675 1191 q 656 1043 675 1067 q 545 996 619 996 m 393 1411 l 821 1685 l 741 1801 l 350 1476 l 393 1411 "},"ã":{"ha":1058,"x_min":87,"x_max":974,"o":"m 499 -15 q 672 -8 604 -15 q 780 14 739 -1 q 844 54 821 29 l 844 0 l 974 0 l 974 376 q 959 587 974 505 q 900 715 943 669 q 772 779 856 761 q 551 796 688 796 q 340 788 424 796 q 208 757 256 780 q 140 689 160 734 q 120 571 120 644 l 250 571 q 257 631 250 608 q 292 666 264 654 q 381 683 320 678 q 551 688 443 688 q 704 681 646 688 q 791 648 761 673 q 831 571 821 623 q 844 429 842 519 q 699 448 780 443 q 499 454 618 454 q 261 439 352 454 q 129 374 171 424 q 87 218 87 324 q 132 64 87 113 q 268 0 176 14 q 499 -15 359 -15 m 499 91 q 352 94 408 91 q 267 110 296 98 q 228 148 237 122 q 218 218 218 174 q 228 290 218 263 q 267 329 237 317 q 352 346 296 342 q 499 348 408 349 l 844 344 l 844 224 q 833 148 844 175 q 788 109 822 121 q 684 94 753 96 q 499 91 615 91 m 241 910 l 372 910 q 381 963 372 950 q 425 975 390 975 q 478 964 452 975 q 527 943 505 952 q 675 910 604 910 q 787 947 738 910 q 849 1084 849 994 l 719 1084 q 709 1031 719 1044 q 666 1019 699 1019 q 612 1030 639 1019 q 564 1051 586 1042 q 415 1084 486 1084 q 291 1039 341 1084 q 241 910 241 994 "},"æ":{"ha":1866,"x_min":87,"x_max":1780,"o":"m 517 -24 q 603 -23 565 -24 q 667 -18 640 -21 q 937 104 869 10 q 1041 23 977 50 q 1188 -13 1105 -4 q 1367 -22 1271 -22 q 1685 35 1586 -22 q 1780 229 1780 92 l 1649 229 q 1607 126 1649 153 q 1493 92 1564 99 q 1427 88 1464 90 q 1343 87 1389 87 q 1194 92 1262 87 q 1078 127 1126 98 q 1016 211 1033 155 q 998 347 1000 267 l 998 366 l 1769 366 l 1780 411 q 1714 672 1780 587 q 1507 785 1649 758 q 1305 798 1440 798 q 1074 765 1169 798 q 937 638 979 732 q 876 722 910 692 q 782 774 841 752 q 566 798 719 798 q 225 741 323 798 q 130 547 130 686 l 260 547 q 304 650 260 624 q 417 684 347 677 q 489 688 447 686 q 585 689 531 689 q 746 673 696 689 q 846 577 825 650 q 868 388 868 505 q 787 438 845 420 q 656 463 728 456 q 517 470 584 470 q 368 466 457 470 q 206 432 277 463 q 87 210 87 381 q 124 87 87 134 q 225 17 162 41 q 363 -16 288 -7 q 517 -24 439 -24 m 998 456 q 1016 578 998 533 q 1085 654 1037 631 q 1198 683 1133 677 q 1337 689 1264 689 q 1579 644 1514 689 q 1632 571 1614 619 q 1649 456 1649 523 l 998 456 m 552 87 q 460 88 503 87 q 382 92 417 90 q 277 113 311 98 q 230 154 243 126 q 217 229 217 182 q 230 301 217 279 q 281 338 243 323 q 522 354 326 354 q 793 326 716 354 q 868 229 868 298 q 852 165 868 193 q 803 121 836 137 q 694 92 753 97 q 552 87 634 87 "},"ǽ":{"ha":1866,"x_min":87,"x_max":1780,"o":"m 517 -24 q 603 -23 565 -24 q 667 -18 640 -21 q 937 104 869 10 q 1041 23 977 50 q 1188 -13 1105 -4 q 1367 -22 1271 -22 q 1685 35 1586 -22 q 1780 229 1780 92 l 1649 229 q 1607 126 1649 153 q 1493 92 1564 99 q 1427 88 1464 90 q 1343 87 1389 87 q 1194 92 1262 87 q 1078 127 1126 98 q 1016 211 1033 155 q 998 347 1000 267 l 998 366 l 1769 366 l 1780 411 q 1714 672 1780 587 q 1507 785 1649 758 q 1305 798 1440 798 q 1074 765 1169 798 q 937 638 979 732 q 876 722 910 692 q 782 774 841 752 q 566 798 719 798 q 225 741 323 798 q 130 547 130 686 l 260 547 q 304 650 260 624 q 417 684 347 677 q 489 688 447 686 q 585 689 531 689 q 746 673 696 689 q 846 577 825 650 q 868 388 868 505 q 787 438 845 420 q 656 463 728 456 q 517 470 584 470 q 368 466 457 470 q 206 432 277 463 q 87 210 87 381 q 124 87 87 134 q 225 17 162 41 q 363 -16 288 -7 q 517 -24 439 -24 m 998 456 q 1016 578 998 533 q 1085 654 1037 631 q 1198 683 1133 677 q 1337 689 1264 689 q 1579 644 1514 689 q 1632 571 1614 619 q 1649 456 1649 523 l 998 456 m 552 87 q 460 88 503 87 q 382 92 417 90 q 277 113 311 98 q 230 154 243 126 q 217 229 217 182 q 230 301 217 279 q 281 338 243 323 q 522 354 326 354 q 793 326 716 354 q 868 229 868 298 q 852 165 868 193 q 803 121 836 137 q 694 92 753 97 q 552 87 634 87 m 788 910 l 1215 1184 l 1135 1301 l 745 975 l 788 910 "},"ǣ":{"ha":1866,"x_min":87,"x_max":1780,"o":"m 517 -24 q 603 -23 565 -24 q 667 -18 640 -21 q 937 104 869 10 q 1041 23 977 50 q 1188 -13 1105 -4 q 1367 -22 1271 -22 q 1685 35 1586 -22 q 1780 229 1780 92 l 1649 229 q 1607 126 1649 153 q 1493 92 1564 99 q 1427 88 1464 90 q 1343 87 1389 87 q 1194 92 1262 87 q 1078 127 1126 98 q 1016 211 1033 155 q 998 347 1000 267 l 998 366 l 1769 366 l 1780 411 q 1714 672 1780 587 q 1507 785 1649 758 q 1305 798 1440 798 q 1074 765 1169 798 q 937 638 979 732 q 876 722 910 692 q 782 774 841 752 q 566 798 719 798 q 225 741 323 798 q 130 547 130 686 l 260 547 q 304 650 260 624 q 417 684 347 677 q 489 688 447 686 q 585 689 531 689 q 746 673 696 689 q 846 577 825 650 q 868 388 868 505 q 787 438 845 420 q 656 463 728 456 q 517 470 584 470 q 368 466 457 470 q 206 432 277 463 q 87 210 87 381 q 124 87 87 134 q 225 17 162 41 q 363 -16 288 -7 q 517 -24 439 -24 m 998 456 q 1016 578 998 533 q 1085 654 1037 631 q 1198 683 1133 677 q 1337 689 1264 689 q 1579 644 1514 689 q 1632 571 1614 619 q 1649 456 1649 523 l 998 456 m 552 87 q 460 88 503 87 q 382 92 417 90 q 277 113 311 98 q 230 154 243 126 q 217 229 217 182 q 230 301 217 279 q 281 338 243 323 q 522 354 326 354 q 793 326 716 354 q 868 229 868 298 q 852 165 868 193 q 803 121 836 137 q 694 92 753 97 q 552 87 634 87 m 680 885 l 1200 885 l 1200 994 l 680 994 l 680 885 "},"b":{"ha":1111,"x_min":90,"x_max":1046,"o":"m 568 -15 q 790 -2 699 -15 q 938 53 882 12 q 1020 176 994 94 q 1046 395 1046 258 q 1020 608 1046 528 q 938 728 994 688 q 790 783 882 769 q 568 796 699 796 q 356 777 442 796 q 220 692 269 758 l 220 1042 l 90 1042 l 90 0 l 220 0 l 220 90 q 356 4 269 23 q 568 -15 442 -15 m 916 395 q 906 234 916 294 q 863 143 896 174 q 759 103 829 113 q 568 94 689 94 q 389 103 457 94 q 283 143 320 113 q 233 234 247 174 q 220 395 220 294 q 233 550 220 492 q 283 638 247 608 q 389 677 320 667 q 568 688 457 688 q 759 677 689 688 q 863 638 829 667 q 906 550 896 608 q 916 395 916 492 "},"ḃ":{"ha":1111,"x_min":90,"x_max":1046,"o":"m 568 -15 q 790 -2 699 -15 q 938 53 882 12 q 1020 176 994 94 q 1046 395 1046 258 q 1020 608 1046 528 q 938 728 994 688 q 790 783 882 769 q 568 796 699 796 q 356 777 442 796 q 220 692 269 758 l 220 1042 l 90 1042 l 90 0 l 220 0 l 220 90 q 356 4 269 23 q 568 -15 442 -15 m 916 395 q 906 234 916 294 q 863 143 896 174 q 759 103 829 113 q 568 94 689 94 q 389 103 457 94 q 283 143 320 113 q 233 234 247 174 q 220 395 220 294 q 233 550 220 492 q 283 638 247 608 q 389 677 320 667 q 568 688 457 688 q 759 677 689 688 q 863 638 829 667 q 906 550 896 608 q 916 395 916 492 m 500 1084 l 631 1084 l 631 1215 l 500 1215 l 500 1084 "},"c":{"ha":1065,"x_min":65,"x_max":1000,"o":"m 543 -15 q 748 -5 662 -15 q 890 32 835 4 q 973 115 946 60 q 1000 260 1000 170 l 876 260 q 862 173 876 205 q 812 122 848 140 q 711 99 776 105 q 543 94 646 94 q 352 103 422 94 q 248 143 281 113 q 205 234 215 174 q 195 395 195 294 q 205 550 195 492 q 248 638 215 608 q 352 677 281 667 q 543 688 422 688 q 749 677 677 688 q 848 633 821 666 q 876 535 876 601 l 1000 535 q 951 705 1000 649 q 801 778 903 760 q 543 796 700 796 q 321 783 412 796 q 173 728 229 769 q 91 608 117 688 q 65 395 65 528 q 91 176 65 258 q 173 53 117 94 q 321 -2 229 12 q 543 -15 412 -15 "},"ć":{"ha":1065,"x_min":65,"x_max":1000,"o":"m 543 -15 q 748 -5 662 -15 q 890 32 835 4 q 973 115 946 60 q 1000 260 1000 170 l 876 260 q 862 173 876 205 q 812 122 848 140 q 711 99 776 105 q 543 94 646 94 q 352 103 422 94 q 248 143 281 113 q 205 234 215 174 q 195 395 195 294 q 205 550 195 492 q 248 638 215 608 q 352 677 281 667 q 543 688 422 688 q 749 677 677 688 q 848 633 821 666 q 876 535 876 601 l 1000 535 q 951 705 1000 649 q 801 778 903 760 q 543 796 700 796 q 321 783 412 796 q 173 728 229 769 q 91 608 117 688 q 65 395 65 528 q 91 176 65 258 q 173 53 117 94 q 321 -2 229 12 q 543 -15 412 -15 m 381 910 l 808 1184 l 728 1301 l 338 975 l 381 910 "},"č":{"ha":1065,"x_min":65,"x_max":1000,"o":"m 543 -15 q 748 -5 662 -15 q 890 32 835 4 q 973 115 946 60 q 1000 260 1000 170 l 876 260 q 862 173 876 205 q 812 122 848 140 q 711 99 776 105 q 543 94 646 94 q 352 103 422 94 q 248 143 281 113 q 205 234 215 174 q 195 395 195 294 q 205 550 195 492 q 248 638 215 608 q 352 677 281 667 q 543 688 422 688 q 749 677 677 688 q 848 633 821 666 q 876 535 876 601 l 1000 535 q 951 705 1000 649 q 801 778 903 760 q 543 796 700 796 q 321 783 412 796 q 173 728 229 769 q 91 608 117 688 q 65 395 65 528 q 91 176 65 258 q 173 53 117 94 q 321 -2 229 12 q 543 -15 412 -15 m 468 892 l 598 892 l 815 1218 l 728 1283 l 533 979 l 338 1283 l 251 1218 l 468 892 "},"ç":{"ha":1065,"x_min":65,"x_max":1000,"o":"m 543 -15 q 748 -5 662 -15 q 890 32 835 4 q 973 115 946 60 q 1000 260 1000 170 l 876 260 q 862 173 876 205 q 812 122 848 140 q 711 99 776 105 q 543 94 646 94 q 352 103 422 94 q 248 143 281 113 q 205 234 215 174 q 195 395 195 294 q 205 550 195 492 q 248 638 215 608 q 352 677 281 667 q 543 688 422 688 q 749 677 677 688 q 848 633 821 666 q 876 535 876 601 l 1000 535 q 951 705 1000 649 q 801 778 903 760 q 543 796 700 796 q 321 783 412 796 q 173 728 229 769 q 91 608 117 688 q 65 395 65 528 q 91 176 65 258 q 173 53 117 94 q 321 -2 229 12 q 543 -15 412 -15 m 479 -369 q 615 -355 557 -369 q 707 -308 674 -342 q 740 -216 740 -275 q 696 -116 740 -146 q 566 -87 653 -87 l 566 43 l 479 43 l 479 -152 q 574 -162 538 -152 q 610 -203 610 -172 q 590 -241 610 -229 q 541 -257 570 -254 q 479 -260 511 -260 l 479 -369 "},"ĉ":{"ha":1065,"x_min":65,"x_max":1000,"o":"m 543 -15 q 748 -5 662 -15 q 890 32 835 4 q 973 115 946 60 q 1000 260 1000 170 l 876 260 q 862 173 876 205 q 812 122 848 140 q 711 99 776 105 q 543 94 646 94 q 352 103 422 94 q 248 143 281 113 q 205 234 215 174 q 195 395 195 294 q 205 550 195 492 q 248 638 215 608 q 352 677 281 667 q 543 688 422 688 q 749 677 677 688 q 848 633 821 666 q 876 535 876 601 l 1000 535 q 951 705 1000 649 q 801 778 903 760 q 543 796 700 796 q 321 783 412 796 q 173 728 229 769 q 91 608 117 688 q 65 395 65 528 q 91 176 65 258 q 173 53 117 94 q 321 -2 229 12 q 543 -15 412 -15 m 338 888 l 533 1192 l 728 888 l 815 954 l 598 1279 l 468 1279 l 251 954 l 338 888 "},"ċ":{"ha":1065,"x_min":65,"x_max":1000,"o":"m 543 -15 q 748 -5 662 -15 q 890 32 835 4 q 973 115 946 60 q 1000 260 1000 170 l 876 260 q 862 173 876 205 q 812 122 848 140 q 711 99 776 105 q 543 94 646 94 q 352 103 422 94 q 248 143 281 113 q 205 234 215 174 q 195 395 195 294 q 205 550 195 492 q 248 638 215 608 q 352 677 281 667 q 543 688 422 688 q 749 677 677 688 q 848 633 821 666 q 876 535 876 601 l 1000 535 q 951 705 1000 649 q 801 778 903 760 q 543 796 700 796 q 321 783 412 796 q 173 728 229 769 q 91 608 117 688 q 65 395 65 528 q 91 176 65 258 q 173 53 117 94 q 321 -2 229 12 q 543 -15 412 -15 m 468 911 l 598 911 l 598 1042 l 468 1042 l 468 911 "},"d":{"ha":1111,"x_min":65,"x_max":1021,"o":"m 543 -15 q 755 4 669 -15 q 891 90 842 23 l 891 0 l 1021 0 l 1021 1042 l 891 1042 l 891 692 q 755 777 842 758 q 543 796 669 796 q 321 783 412 796 q 173 728 229 769 q 91 608 117 688 q 65 395 65 528 q 91 176 65 258 q 173 53 117 94 q 321 -2 229 12 q 543 -15 412 -15 m 891 395 q 878 234 891 294 q 827 143 864 174 q 722 103 791 113 q 543 94 654 94 q 352 103 422 94 q 248 143 281 113 q 205 234 215 174 q 195 395 195 294 q 205 550 195 492 q 248 638 215 608 q 352 677 281 667 q 543 688 422 688 q 722 677 654 688 q 827 638 791 667 q 878 550 864 608 q 891 395 891 492 "},"ď":{"ha":1111,"x_min":65,"x_max":1318,"o":"m 543 -15 q 755 4 669 -15 q 891 90 842 23 l 891 0 l 1021 0 l 1021 1042 l 891 1042 l 891 692 q 755 777 842 758 q 543 796 669 796 q 321 783 412 796 q 173 728 229 769 q 91 608 117 688 q 65 395 65 528 q 91 176 65 258 q 173 53 117 94 q 321 -2 229 12 q 543 -15 412 -15 m 891 395 q 878 234 891 294 q 827 143 864 174 q 722 103 791 113 q 543 94 654 94 q 352 103 422 94 q 248 143 281 113 q 205 234 215 174 q 195 395 195 294 q 205 550 195 492 q 248 638 215 608 q 352 677 281 667 q 543 688 422 688 q 722 677 654 688 q 827 638 791 667 q 878 550 864 608 q 891 395 891 492 m 1144 781 l 1231 781 l 1318 1042 l 1187 1042 l 1144 781 "},"đ":{"ha":1128,"x_min":87,"x_max":1128,"o":"m 564 -22 q 911 86 852 -22 l 911 0 l 1042 0 l 1042 847 l 1128 847 l 1128 956 l 1042 956 l 1042 1042 l 911 1042 l 911 956 l 608 956 l 608 847 l 911 847 l 911 651 q 827 720 886 696 q 689 751 767 743 q 528 760 610 760 q 343 741 434 760 q 146 625 206 714 q 87 369 87 535 q 113 180 87 256 q 204 53 141 96 q 358 -6 267 9 q 564 -22 450 -22 m 559 87 q 398 94 475 87 q 277 138 322 102 q 235 200 252 158 q 217 369 217 243 q 239 548 217 496 q 311 621 260 600 q 433 647 362 642 q 599 651 488 651 q 770 636 711 651 q 884 549 857 614 q 911 367 911 484 q 879 179 911 238 q 806 114 854 133 q 695 91 758 94 q 560 87 633 87 l 559 87 "},"ḋ":{"ha":1111,"x_min":65,"x_max":1021,"o":"m 543 -15 q 755 4 669 -15 q 891 90 842 23 l 891 0 l 1021 0 l 1021 1042 l 891 1042 l 891 692 q 755 777 842 758 q 543 796 669 796 q 321 783 412 796 q 173 728 229 769 q 91 608 117 688 q 65 395 65 528 q 91 176 65 258 q 173 53 117 94 q 321 -2 229 12 q 543 -15 412 -15 m 891 395 q 878 234 891 294 q 827 143 864 174 q 722 103 791 113 q 543 94 654 94 q 352 103 422 94 q 248 143 281 113 q 205 234 215 174 q 195 395 195 294 q 205 550 195 492 q 248 638 215 608 q 352 677 281 667 q 543 688 422 688 q 722 677 654 688 q 827 638 791 667 q 878 550 864 608 q 891 395 891 492 m 456 1039 l 586 1039 l 586 1169 l 456 1169 l 456 1039 "},"ǳ":{"ha":2109,"x_min":65,"x_max":2022,"o":"m 543 -15 q 755 4 669 -15 q 891 90 842 23 l 891 0 l 1021 0 l 1021 1042 l 891 1042 l 891 692 q 755 777 842 758 q 543 796 669 796 q 321 783 412 796 q 173 728 229 769 q 91 608 117 688 q 65 395 65 528 q 91 176 65 258 q 173 53 117 94 q 321 -2 229 12 q 543 -15 412 -15 m 891 395 q 878 234 891 294 q 827 143 864 174 q 722 103 791 113 q 543 94 654 94 q 352 103 422 94 q 248 143 281 113 q 205 234 215 174 q 195 395 195 294 q 205 550 195 492 q 248 638 215 608 q 352 677 281 667 q 543 688 422 688 q 722 677 654 688 q 827 638 791 667 q 878 550 864 608 q 891 395 891 492 m 1198 0 l 2022 0 l 2022 102 l 1372 102 l 2022 673 l 2022 781 l 1241 781 l 1241 681 l 1858 681 l 1198 109 l 1198 0 "},"ǆ":{"ha":2109,"x_min":65,"x_max":2022,"o":"m 543 -15 q 755 4 669 -15 q 891 90 842 23 l 891 0 l 1021 0 l 1021 1042 l 891 1042 l 891 692 q 755 777 842 758 q 543 796 669 796 q 321 783 412 796 q 173 728 229 769 q 91 608 117 688 q 65 395 65 528 q 91 176 65 258 q 173 53 117 94 q 321 -2 229 12 q 543 -15 412 -15 m 891 395 q 878 234 891 294 q 827 143 864 174 q 722 103 791 113 q 543 94 654 94 q 352 103 422 94 q 248 143 281 113 q 205 234 215 174 q 195 395 195 294 q 205 550 195 492 q 248 638 215 608 q 352 677 281 667 q 543 688 422 688 q 722 677 654 688 q 827 638 791 667 q 878 550 864 608 q 891 395 891 492 m 1198 0 l 2022 0 l 2022 102 l 1372 102 l 2022 673 l 2022 781 l 1241 781 l 1241 681 l 1858 681 l 1198 109 l 1198 0 m 1545 892 l 1675 892 l 1892 1218 l 1805 1283 l 1610 979 l 1415 1283 l 1328 1218 l 1545 892 "},"ð":{"ha":1345,"x_min":87,"x_max":1388,"o":"m 564 -22 l 781 -22 q 1118 37 1013 -22 q 1222 158 1192 77 q 1256 353 1253 239 q 1258 433 1257 391 q 1259 521 1259 475 q 1218 811 1259 703 l 1388 872 l 1359 954 l 1179 889 q 867 1053 1088 1024 q 682 1063 791 1063 q 475 1055 576 1063 q 293 1017 373 1046 q 171 925 213 987 q 131 760 131 865 l 239 760 q 254 848 239 820 q 304 898 269 877 q 384 928 334 916 q 694 955 488 955 q 916 941 854 955 q 1008 909 973 928 q 1071 850 1044 890 l 869 777 l 898 696 l 1106 770 q 1128 564 1128 692 q 734 628 1038 621 q 648 629 697 629 q 538 629 599 629 q 348 614 437 629 q 194 560 258 600 q 106 446 130 520 q 87 304 87 384 q 108 158 87 218 q 179 60 129 99 q 564 -22 284 -22 m 564 87 q 355 100 412 87 q 271 135 301 114 q 229 195 241 156 q 217 304 217 235 q 235 429 217 397 q 276 477 252 461 q 339 503 300 494 q 439 518 391 516 q 557 521 488 521 l 594 521 q 770 520 680 521 q 933 511 861 519 q 1026 497 985 507 q 1094 463 1067 487 q 1128 349 1128 431 q 1116 220 1128 273 q 1062 136 1104 167 q 943 94 1015 101 q 781 87 871 87 l 564 87 "},"e":{"ha":1063,"x_min":65,"x_max":981,"o":"m 981 232 l 860 232 q 848 157 860 185 q 804 116 837 130 q 708 98 771 102 q 541 94 644 94 q 358 102 427 94 q 254 137 289 111 q 208 216 220 163 q 196 355 197 268 l 981 355 l 981 522 q 933 695 981 636 q 786 775 884 754 q 538 796 688 796 q 316 783 407 796 q 170 728 226 769 q 90 608 115 688 q 65 395 65 528 q 91 176 65 258 q 172 53 116 94 q 319 -2 228 12 q 541 -15 410 -15 q 739 -8 656 -15 q 876 21 822 -2 q 955 94 929 44 q 981 232 981 144 m 538 688 q 706 680 642 688 q 802 654 769 673 q 845 603 834 635 q 857 522 857 571 l 857 457 l 196 457 q 209 578 197 532 q 257 648 222 625 q 360 680 292 671 q 538 688 427 688 "},"é":{"ha":1063,"x_min":65,"x_max":981,"o":"m 981 232 l 860 232 q 848 157 860 185 q 804 116 837 130 q 708 98 771 102 q 541 94 644 94 q 358 102 427 94 q 254 137 289 111 q 208 216 220 163 q 196 355 197 268 l 981 355 l 981 522 q 933 695 981 636 q 786 775 884 754 q 538 796 688 796 q 316 783 407 796 q 170 728 226 769 q 90 608 115 688 q 65 395 65 528 q 91 176 65 258 q 172 53 116 94 q 319 -2 228 12 q 541 -15 410 -15 q 739 -8 656 -15 q 876 21 822 -2 q 955 94 929 44 q 981 232 981 144 m 538 688 q 706 680 642 688 q 802 654 769 673 q 845 603 834 635 q 857 522 857 571 l 857 457 l 196 457 q 209 578 197 532 q 257 648 222 625 q 360 680 292 671 q 538 688 427 688 m 380 910 l 807 1184 l 727 1301 l 336 975 l 380 910 "},"ĕ":{"ha":1063,"x_min":65,"x_max":981,"o":"m 981 232 l 860 232 q 848 157 860 185 q 804 116 837 130 q 708 98 771 102 q 541 94 644 94 q 358 102 427 94 q 254 137 289 111 q 208 216 220 163 q 196 355 197 268 l 981 355 l 981 522 q 933 695 981 636 q 786 775 884 754 q 538 796 688 796 q 316 783 407 796 q 170 728 226 769 q 90 608 115 688 q 65 395 65 528 q 91 176 65 258 q 172 53 116 94 q 319 -2 228 12 q 541 -15 410 -15 q 739 -8 656 -15 q 876 21 822 -2 q 955 94 929 44 q 981 232 981 144 m 538 688 q 706 680 642 688 q 802 654 769 673 q 845 603 834 635 q 857 522 857 571 l 857 457 l 196 457 q 209 578 197 532 q 257 648 222 625 q 360 680 292 671 q 538 688 427 688 m 532 886 q 672 909 614 886 q 761 990 730 932 q 792 1151 792 1047 l 684 1151 q 640 996 684 1023 q 532 980 613 980 q 427 994 450 980 q 380 1151 380 1023 l 271 1151 q 302 990 271 1047 q 391 909 333 932 q 532 886 450 886 "},"ě":{"ha":1063,"x_min":65,"x_max":981,"o":"m 981 232 l 860 232 q 848 157 860 185 q 804 116 837 130 q 708 98 771 102 q 541 94 644 94 q 358 102 427 94 q 254 137 289 111 q 208 216 220 163 q 196 355 197 268 l 981 355 l 981 522 q 933 695 981 636 q 786 775 884 754 q 538 796 688 796 q 316 783 407 796 q 170 728 226 769 q 90 608 115 688 q 65 395 65 528 q 91 176 65 258 q 172 53 116 94 q 319 -2 228 12 q 541 -15 410 -15 q 739 -8 656 -15 q 876 21 822 -2 q 955 94 929 44 q 981 232 981 144 m 538 688 q 706 680 642 688 q 802 654 769 673 q 845 603 834 635 q 857 522 857 571 l 857 457 l 196 457 q 209 578 197 532 q 257 648 222 625 q 360 680 292 671 q 538 688 427 688 m 467 892 l 597 892 l 814 1218 l 727 1283 l 532 979 l 336 1283 l 250 1218 l 467 892 "},"ȩ":{"ha":1063,"x_min":65,"x_max":981,"o":"m 981 232 l 860 232 q 848 157 860 185 q 804 116 837 130 q 708 98 771 102 q 541 94 644 94 q 358 102 427 94 q 254 137 289 111 q 208 216 220 163 q 196 355 197 268 l 981 355 l 981 522 q 933 695 981 636 q 786 775 884 754 q 538 796 688 796 q 316 783 407 796 q 170 728 226 769 q 90 608 115 688 q 65 395 65 528 q 91 176 65 258 q 172 53 116 94 q 319 -2 228 12 q 541 -15 410 -15 q 739 -8 656 -15 q 876 21 822 -2 q 955 94 929 44 q 981 232 981 144 m 538 688 q 706 680 642 688 q 802 654 769 673 q 845 603 834 635 q 857 522 857 571 l 857 457 l 196 457 q 209 578 197 532 q 257 648 222 625 q 360 680 292 671 q 538 688 427 688 m 478 -369 q 614 -355 555 -369 q 706 -308 673 -342 q 739 -216 739 -275 q 695 -116 739 -146 q 565 -87 652 -87 l 565 43 l 478 43 l 478 -152 q 572 -162 536 -152 q 608 -203 608 -172 q 589 -241 608 -229 q 539 -257 569 -254 q 478 -260 509 -260 l 478 -369 "},"ê":{"ha":1063,"x_min":65,"x_max":981,"o":"m 981 232 l 860 232 q 848 157 860 185 q 804 116 837 130 q 708 98 771 102 q 541 94 644 94 q 358 102 427 94 q 254 137 289 111 q 208 216 220 163 q 196 355 197 268 l 981 355 l 981 522 q 933 695 981 636 q 786 775 884 754 q 538 796 688 796 q 316 783 407 796 q 170 728 226 769 q 90 608 115 688 q 65 395 65 528 q 91 176 65 258 q 172 53 116 94 q 319 -2 228 12 q 541 -15 410 -15 q 739 -8 656 -15 q 876 21 822 -2 q 955 94 929 44 q 981 232 981 144 m 538 688 q 706 680 642 688 q 802 654 769 673 q 845 603 834 635 q 857 522 857 571 l 857 457 l 196 457 q 209 578 197 532 q 257 648 222 625 q 360 680 292 671 q 538 688 427 688 m 336 888 l 532 1192 l 727 888 l 814 954 l 597 1279 l 467 1279 l 250 954 l 336 888 "},"ȅ":{"ha":1063,"x_min":65,"x_max":981,"o":"m 981 232 l 860 232 q 848 157 860 185 q 804 116 837 130 q 708 98 771 102 q 541 94 644 94 q 358 102 427 94 q 254 137 289 111 q 208 216 220 163 q 196 355 197 268 l 981 355 l 981 522 q 933 695 981 636 q 786 775 884 754 q 538 796 688 796 q 316 783 407 796 q 170 728 226 769 q 90 608 115 688 q 65 395 65 528 q 91 176 65 258 q 172 53 116 94 q 319 -2 228 12 q 541 -15 410 -15 q 739 -8 656 -15 q 876 21 822 -2 q 955 94 929 44 q 981 232 981 144 m 538 688 q 706 680 642 688 q 802 654 769 673 q 845 603 834 635 q 857 522 857 571 l 857 457 l 196 457 q 209 578 197 532 q 257 648 222 625 q 360 680 292 671 q 538 688 427 688 "},"ë":{"ha":1063,"x_min":65,"x_max":981,"o":"m 981 232 l 860 232 q 848 157 860 185 q 804 116 837 130 q 708 98 771 102 q 541 94 644 94 q 358 102 427 94 q 254 137 289 111 q 208 216 220 163 q 196 355 197 268 l 981 355 l 981 522 q 933 695 981 636 q 786 775 884 754 q 538 796 688 796 q 316 783 407 796 q 170 728 226 769 q 90 608 115 688 q 65 395 65 528 q 91 176 65 258 q 172 53 116 94 q 319 -2 228 12 q 541 -15 410 -15 q 739 -8 656 -15 q 876 21 822 -2 q 955 94 929 44 q 981 232 981 144 m 538 688 q 706 680 642 688 q 802 654 769 673 q 845 603 834 635 q 857 522 857 571 l 857 457 l 196 457 q 209 578 197 532 q 257 648 222 625 q 360 680 292 671 q 538 688 427 688 m 707 911 l 837 911 l 837 1042 l 707 1042 l 707 911 m 227 911 l 357 911 l 357 1042 l 227 1042 l 227 911 "},"ė":{"ha":1063,"x_min":65,"x_max":981,"o":"m 981 232 l 860 232 q 848 157 860 185 q 804 116 837 130 q 708 98 771 102 q 541 94 644 94 q 358 102 427 94 q 254 137 289 111 q 208 216 220 163 q 196 355 197 268 l 981 355 l 981 522 q 933 695 981 636 q 786 775 884 754 q 538 796 688 796 q 316 783 407 796 q 170 728 226 769 q 90 608 115 688 q 65 395 65 528 q 91 176 65 258 q 172 53 116 94 q 319 -2 228 12 q 541 -15 410 -15 q 739 -8 656 -15 q 876 21 822 -2 q 955 94 929 44 q 981 232 981 144 m 538 688 q 706 680 642 688 q 802 654 769 673 q 845 603 834 635 q 857 522 857 571 l 857 457 l 196 457 q 209 578 197 532 q 257 648 222 625 q 360 680 292 671 q 538 688 427 688 m 467 911 l 597 911 l 597 1042 l 467 1042 l 467 911 "},"è":{"ha":1063,"x_min":65,"x_max":981,"o":"m 981 232 l 860 232 q 848 157 860 185 q 804 116 837 130 q 708 98 771 102 q 541 94 644 94 q 358 102 427 94 q 254 137 289 111 q 208 216 220 163 q 196 355 197 268 l 981 355 l 981 522 q 933 695 981 636 q 786 775 884 754 q 538 796 688 796 q 316 783 407 796 q 170 728 226 769 q 90 608 115 688 q 65 395 65 528 q 91 176 65 258 q 172 53 116 94 q 319 -2 228 12 q 541 -15 410 -15 q 739 -8 656 -15 q 876 21 822 -2 q 955 94 929 44 q 981 232 981 144 m 538 688 q 706 680 642 688 q 802 654 769 673 q 845 603 834 635 q 857 522 857 571 l 857 457 l 196 457 q 209 578 197 532 q 257 648 222 625 q 360 680 292 671 q 538 688 427 688 m 769 909 l 812 974 l 422 1299 l 342 1183 l 769 909 "},"ȇ":{"ha":1063,"x_min":65,"x_max":981,"o":"m 981 232 l 860 232 q 848 157 860 185 q 804 116 837 130 q 708 98 771 102 q 541 94 644 94 q 358 102 427 94 q 254 137 289 111 q 208 216 220 163 q 196 355 197 268 l 981 355 l 981 522 q 933 695 981 636 q 786 775 884 754 q 538 796 688 796 q 316 783 407 796 q 170 728 226 769 q 90 608 115 688 q 65 395 65 528 q 91 176 65 258 q 172 53 116 94 q 319 -2 228 12 q 541 -15 410 -15 q 739 -8 656 -15 q 876 21 822 -2 q 955 94 929 44 q 981 232 981 144 m 538 688 q 706 680 642 688 q 802 654 769 673 q 845 603 834 635 q 857 522 857 571 l 857 457 l 196 457 q 209 578 197 532 q 257 648 222 625 q 360 680 292 671 q 538 688 427 688 m 532 1151 q 391 1128 450 1151 q 302 1048 333 1105 q 271 886 271 990 l 380 886 q 427 1043 380 1015 q 532 1057 450 1057 q 640 1041 613 1057 q 684 886 684 1015 l 792 886 q 761 1048 792 990 q 672 1128 730 1105 q 532 1151 614 1151 "},"ē":{"ha":1063,"x_min":65,"x_max":981,"o":"m 981 232 l 860 232 q 848 157 860 185 q 804 116 837 130 q 708 98 771 102 q 541 94 644 94 q 358 102 427 94 q 254 137 289 111 q 208 216 220 163 q 196 355 197 268 l 981 355 l 981 522 q 933 695 981 636 q 786 775 884 754 q 538 796 688 796 q 316 783 407 796 q 170 728 226 769 q 90 608 115 688 q 65 395 65 528 q 91 176 65 258 q 172 53 116 94 q 319 -2 228 12 q 541 -15 410 -15 q 739 -8 656 -15 q 876 21 822 -2 q 955 94 929 44 q 981 232 981 144 m 538 688 q 706 680 642 688 q 802 654 769 673 q 845 603 834 635 q 857 522 857 571 l 857 457 l 196 457 q 209 578 197 532 q 257 648 222 625 q 360 680 292 671 q 538 688 427 688 m 271 885 l 792 885 l 792 994 l 271 994 l 271 885 "},"ę":{"ha":1063,"x_min":65,"x_max":981,"o":"m 981 232 l 860 232 q 848 157 860 185 q 804 116 837 130 q 708 98 771 102 q 541 94 644 94 q 358 102 427 94 q 254 137 289 111 q 208 216 220 163 q 196 355 197 268 l 981 355 l 981 522 q 933 695 981 636 q 786 775 884 754 q 538 796 688 796 q 316 783 407 796 q 170 728 226 769 q 90 608 115 688 q 65 395 65 528 q 91 176 65 258 q 172 53 116 94 q 319 -2 228 12 q 541 -15 410 -15 q 739 -8 656 -15 q 876 21 822 -2 q 955 94 929 44 q 981 232 981 144 m 538 688 q 706 680 642 688 q 802 654 769 673 q 845 603 834 635 q 857 522 857 571 l 857 457 l 196 457 q 209 578 197 532 q 257 648 222 625 q 360 680 292 671 q 538 688 427 688 m 721 -377 l 721 -269 q 627 -252 663 -269 q 591 -182 591 -235 q 721 14 591 -73 l 634 14 q 488 -115 534 -41 q 468 -158 475 -136 q 460 -216 460 -180 q 483 -286 460 -252 q 721 -377 545 -377 "},"ẽ":{"ha":1063,"x_min":65,"x_max":981,"o":"m 981 232 l 860 232 q 848 157 860 185 q 804 116 837 130 q 708 98 771 102 q 541 94 644 94 q 358 102 427 94 q 254 137 289 111 q 208 216 220 163 q 196 355 197 268 l 981 355 l 981 522 q 933 695 981 636 q 786 775 884 754 q 538 796 688 796 q 316 783 407 796 q 170 728 226 769 q 90 608 115 688 q 65 395 65 528 q 91 176 65 258 q 172 53 116 94 q 319 -2 228 12 q 541 -15 410 -15 q 739 -8 656 -15 q 876 21 822 -2 q 955 94 929 44 q 981 232 981 144 m 538 688 q 706 680 642 688 q 802 654 769 673 q 845 603 834 635 q 857 522 857 571 l 857 457 l 196 457 q 209 578 197 532 q 257 648 222 625 q 360 680 292 671 q 538 688 427 688 m 228 910 l 358 910 q 367 963 358 950 q 411 975 376 975 q 465 964 438 975 q 513 943 491 952 q 662 910 591 910 q 773 947 724 910 q 836 1084 836 994 l 705 1084 q 695 1031 705 1044 q 652 1019 685 1019 q 599 1030 625 1019 q 550 1051 572 1042 q 401 1084 472 1084 q 278 1039 328 1084 q 228 910 228 994 "},"f":{"ha":716,"x_min":87,"x_max":716,"o":"m 217 0 l 347 0 l 347 682 l 716 682 l 716 781 l 347 781 l 347 815 q 361 924 347 888 q 421 972 375 960 q 564 985 467 985 l 716 985 l 716 1090 l 565 1090 q 367 1068 444 1090 q 253 986 290 1046 q 217 815 217 926 l 217 781 l 87 781 l 87 682 l 217 682 l 217 0 "},"ḟ":{"ha":716,"x_min":87,"x_max":716,"o":"m 217 0 l 347 0 l 347 682 l 716 682 l 716 781 l 347 781 l 347 815 q 361 924 347 888 q 421 972 375 960 q 564 985 467 985 l 716 985 l 716 1090 l 565 1090 q 367 1068 444 1090 q 253 986 290 1046 q 217 815 217 926 l 217 781 l 87 781 l 87 682 l 217 682 l 217 0 m 418 1126 l 549 1126 l 549 1256 l 418 1256 l 418 1126 "},"g":{"ha":1093,"x_min":68,"x_max":1004,"o":"m 566 -298 q 750 -286 670 -298 q 886 -236 831 -274 q 971 -122 941 -199 q 1004 83 1001 -46 l 1004 781 l 873 781 l 873 699 q 743 778 826 760 q 537 796 660 796 q 321 783 410 796 q 175 729 231 770 q 94 609 119 689 q 68 396 68 529 q 94 194 68 271 q 175 76 119 117 q 321 21 231 35 q 537 6 410 6 q 743 26 660 6 q 873 106 826 45 l 873 88 q 856 -73 873 -16 q 802 -155 839 -130 q 707 -184 765 -179 q 566 -189 648 -189 q 382 -185 456 -189 q 271 -161 308 -181 q 234 -93 234 -140 l 104 -93 q 137 -207 104 -165 q 231 -268 170 -249 q 377 -293 292 -288 q 566 -298 463 -298 m 873 396 q 862 252 873 308 q 815 167 850 197 q 714 126 781 137 q 537 115 648 115 q 352 126 420 115 q 251 167 283 137 q 208 252 218 197 q 198 396 198 308 q 208 551 198 493 q 251 638 218 609 q 352 678 284 668 q 537 688 420 688 q 714 678 648 688 q 815 638 781 668 q 862 551 850 609 q 873 396 873 493 "},"ǵ":{"ha":1093,"x_min":68,"x_max":1004,"o":"m 566 -298 q 750 -286 670 -298 q 886 -236 831 -274 q 971 -122 941 -199 q 1004 83 1001 -46 l 1004 781 l 873 781 l 873 699 q 743 778 826 760 q 537 796 660 796 q 321 783 410 796 q 175 729 231 770 q 94 609 119 689 q 68 396 68 529 q 94 194 68 271 q 175 76 119 117 q 321 21 231 35 q 537 6 410 6 q 743 26 660 6 q 873 106 826 45 l 873 88 q 856 -73 873 -16 q 802 -155 839 -130 q 707 -184 765 -179 q 566 -189 648 -189 q 382 -185 456 -189 q 271 -161 308 -181 q 234 -93 234 -140 l 104 -93 q 137 -207 104 -165 q 231 -268 170 -249 q 377 -293 292 -288 q 566 -298 463 -298 m 873 396 q 862 252 873 308 q 815 167 850 197 q 714 126 781 137 q 537 115 648 115 q 352 126 420 115 q 251 167 283 137 q 208 252 218 197 q 198 396 198 308 q 208 551 198 493 q 251 638 218 609 q 352 678 284 668 q 537 688 420 688 q 714 678 648 688 q 815 638 781 668 q 862 551 850 609 q 873 396 873 493 m 395 910 l 822 1184 l 742 1301 l 351 975 l 395 910 "},"ğ":{"ha":1093,"x_min":68,"x_max":1004,"o":"m 566 -298 q 750 -286 670 -298 q 886 -236 831 -274 q 971 -122 941 -199 q 1004 83 1001 -46 l 1004 781 l 873 781 l 873 699 q 743 778 826 760 q 537 796 660 796 q 321 783 410 796 q 175 729 231 770 q 94 609 119 689 q 68 396 68 529 q 94 194 68 271 q 175 76 119 117 q 321 21 231 35 q 537 6 410 6 q 743 26 660 6 q 873 106 826 45 l 873 88 q 856 -73 873 -16 q 802 -155 839 -130 q 707 -184 765 -179 q 566 -189 648 -189 q 382 -185 456 -189 q 271 -161 308 -181 q 234 -93 234 -140 l 104 -93 q 137 -207 104 -165 q 231 -268 170 -249 q 377 -293 292 -288 q 566 -298 463 -298 m 873 396 q 862 252 873 308 q 815 167 850 197 q 714 126 781 137 q 537 115 648 115 q 352 126 420 115 q 251 167 283 137 q 208 252 218 197 q 198 396 198 308 q 208 551 198 493 q 251 638 218 609 q 352 678 284 668 q 537 688 420 688 q 714 678 648 688 q 815 638 781 668 q 862 551 850 609 q 873 396 873 493 m 547 886 q 687 909 629 886 q 776 990 745 932 q 807 1151 807 1047 l 699 1151 q 655 996 699 1023 q 547 980 628 980 q 441 994 465 980 q 395 1151 395 1023 l 286 1151 q 317 990 286 1047 q 406 909 348 932 q 547 886 465 886 "},"ǧ":{"ha":1093,"x_min":68,"x_max":1004,"o":"m 566 -298 q 750 -286 670 -298 q 886 -236 831 -274 q 971 -122 941 -199 q 1004 83 1001 -46 l 1004 781 l 873 781 l 873 699 q 743 778 826 760 q 537 796 660 796 q 321 783 410 796 q 175 729 231 770 q 94 609 119 689 q 68 396 68 529 q 94 194 68 271 q 175 76 119 117 q 321 21 231 35 q 537 6 410 6 q 743 26 660 6 q 873 106 826 45 l 873 88 q 856 -73 873 -16 q 802 -155 839 -130 q 707 -184 765 -179 q 566 -189 648 -189 q 382 -185 456 -189 q 271 -161 308 -181 q 234 -93 234 -140 l 104 -93 q 137 -207 104 -165 q 231 -268 170 -249 q 377 -293 292 -288 q 566 -298 463 -298 m 873 396 q 862 252 873 308 q 815 167 850 197 q 714 126 781 137 q 537 115 648 115 q 352 126 420 115 q 251 167 283 137 q 208 252 218 197 q 198 396 198 308 q 208 551 198 493 q 251 638 218 609 q 352 678 284 668 q 537 688 420 688 q 714 678 648 688 q 815 638 781 668 q 862 551 850 609 q 873 396 873 493 m 481 892 l 612 892 l 829 1218 l 742 1283 l 547 979 l 351 1283 l 264 1218 l 481 892 "},"ĝ":{"ha":1093,"x_min":68,"x_max":1004,"o":"m 566 -298 q 750 -286 670 -298 q 886 -236 831 -274 q 971 -122 941 -199 q 1004 83 1001 -46 l 1004 781 l 873 781 l 873 699 q 743 778 826 760 q 537 796 660 796 q 321 783 410 796 q 175 729 231 770 q 94 609 119 689 q 68 396 68 529 q 94 194 68 271 q 175 76 119 117 q 321 21 231 35 q 537 6 410 6 q 743 26 660 6 q 873 106 826 45 l 873 88 q 856 -73 873 -16 q 802 -155 839 -130 q 707 -184 765 -179 q 566 -189 648 -189 q 382 -185 456 -189 q 271 -161 308 -181 q 234 -93 234 -140 l 104 -93 q 137 -207 104 -165 q 231 -268 170 -249 q 377 -293 292 -288 q 566 -298 463 -298 m 873 396 q 862 252 873 308 q 815 167 850 197 q 714 126 781 137 q 537 115 648 115 q 352 126 420 115 q 251 167 283 137 q 208 252 218 197 q 198 396 198 308 q 208 551 198 493 q 251 638 218 609 q 352 678 284 668 q 537 688 420 688 q 714 678 648 688 q 815 638 781 668 q 862 551 850 609 q 873 396 873 493 m 351 888 l 547 1192 l 742 888 l 829 954 l 612 1279 l 481 1279 l 264 954 l 351 888 "},"ģ":{"ha":1093,"x_min":68,"x_max":1004,"o":"m 566 -298 q 750 -286 670 -298 q 886 -236 831 -274 q 971 -122 941 -199 q 1004 83 1001 -46 l 1004 781 l 873 781 l 873 699 q 743 778 826 760 q 537 796 660 796 q 321 783 410 796 q 175 729 231 770 q 94 609 119 689 q 68 396 68 529 q 94 194 68 271 q 175 76 119 117 q 321 21 231 35 q 537 6 410 6 q 743 26 660 6 q 873 106 826 45 l 873 88 q 856 -73 873 -16 q 802 -155 839 -130 q 707 -184 765 -179 q 566 -189 648 -189 q 382 -185 456 -189 q 271 -161 308 -181 q 234 -93 234 -140 l 104 -93 q 137 -207 104 -165 q 231 -268 170 -249 q 377 -293 292 -288 q 566 -298 463 -298 m 873 396 q 862 252 873 308 q 815 167 850 197 q 714 126 781 137 q 537 115 648 115 q 352 126 420 115 q 251 167 283 137 q 208 252 218 197 q 198 396 198 308 q 208 551 198 493 q 251 638 218 609 q 352 678 284 668 q 537 688 420 688 q 714 678 648 688 q 815 638 781 668 q 862 551 850 609 q 873 396 873 493 m 484 844 l 614 844 l 657 1104 l 570 1104 l 484 844 "},"ġ":{"ha":1093,"x_min":68,"x_max":1004,"o":"m 566 -298 q 750 -286 670 -298 q 886 -236 831 -274 q 971 -122 941 -199 q 1004 83 1001 -46 l 1004 781 l 873 781 l 873 699 q 743 778 826 760 q 537 796 660 796 q 321 783 410 796 q 175 729 231 770 q 94 609 119 689 q 68 396 68 529 q 94 194 68 271 q 175 76 119 117 q 321 21 231 35 q 537 6 410 6 q 743 26 660 6 q 873 106 826 45 l 873 88 q 856 -73 873 -16 q 802 -155 839 -130 q 707 -184 765 -179 q 566 -189 648 -189 q 382 -185 456 -189 q 271 -161 308 -181 q 234 -93 234 -140 l 104 -93 q 137 -207 104 -165 q 231 -268 170 -249 q 377 -293 292 -288 q 566 -298 463 -298 m 873 396 q 862 252 873 308 q 815 167 850 197 q 714 126 781 137 q 537 115 648 115 q 352 126 420 115 q 251 167 283 137 q 208 252 218 197 q 198 396 198 308 q 208 551 198 493 q 251 638 218 609 q 352 678 284 668 q 537 688 420 688 q 714 678 648 688 q 815 638 781 668 q 862 551 850 609 q 873 396 873 493 m 481 911 l 612 911 l 612 1042 l 481 1042 l 481 911 "},"h":{"ha":1087,"x_min":90,"x_max":1002,"o":"m 90 0 l 220 0 l 220 471 q 252 595 220 547 q 361 665 283 643 q 574 688 438 688 q 720 679 663 688 q 811 646 778 671 q 857 572 844 621 q 871 443 871 523 l 871 0 l 1002 0 l 1002 443 q 964 660 1002 583 q 839 766 927 736 q 597 796 750 796 q 407 783 479 796 q 292 743 335 770 q 220 677 249 717 l 220 1042 l 90 1042 l 90 0 "},"ħ":{"ha":1086,"x_min":-16,"x_max":999,"o":"m 87 0 l 217 0 l 217 484 q 232 570 217 530 q 564 694 279 694 q 814 638 752 694 q 858 557 848 607 q 868 441 868 508 l 868 0 l 999 0 l 999 441 q 986 596 999 528 q 934 710 973 665 q 608 803 853 803 q 217 658 279 803 l 217 849 l 505 849 l 505 958 l 217 958 l 217 1042 l 87 1042 l 87 958 l -16 958 l -16 849 l 87 849 l 87 0 "},"ȟ":{"ha":1087,"x_min":90,"x_max":1002,"o":"m 90 0 l 220 0 l 220 471 q 252 595 220 547 q 361 665 283 643 q 574 688 438 688 q 720 679 663 688 q 811 646 778 671 q 857 572 844 621 q 871 443 871 523 l 871 0 l 1002 0 l 1002 443 q 964 660 1002 583 q 839 766 927 736 q 597 796 750 796 q 407 783 479 796 q 292 743 335 770 q 220 677 249 717 l 220 1042 l 90 1042 l 90 0 m 479 1121 l 609 1121 l 826 1447 l 739 1512 l 544 1208 l 349 1512 l 262 1447 l 479 1121 "},"ĥ":{"ha":1087,"x_min":90,"x_max":1002,"o":"m 90 0 l 220 0 l 220 471 q 252 595 220 547 q 361 665 283 643 q 574 688 438 688 q 720 679 663 688 q 811 646 778 671 q 857 572 844 621 q 871 443 871 523 l 871 0 l 1002 0 l 1002 443 q 964 660 1002 583 q 839 766 927 736 q 597 796 750 796 q 407 783 479 796 q 292 743 335 770 q 220 677 249 717 l 220 1042 l 90 1042 l 90 0 m 349 1117 l 544 1421 l 739 1117 l 826 1182 l 609 1508 l 479 1508 l 262 1182 l 349 1117 "},"i":{"ha":304,"x_min":87,"x_max":217,"o":"m 87 0 l 217 0 l 217 738 l 87 738 l 87 0 m 87 911 l 217 911 l 217 1042 l 87 1042 l 87 911 "},"ı":{"ha":304,"x_min":87,"x_max":217,"o":"m 87 0 l 217 0 l 217 738 l 87 738 l 87 0 "},"í":{"ha":304,"x_min":-43,"x_max":427,"o":"m 87 0 l 217 0 l 217 738 l 87 738 l 87 0 m 0 910 l 427 1184 l 347 1301 l -43 975 l 0 910 "},"ĭ":{"ha":304,"x_min":-109,"x_max":412,"o":"m 87 0 l 217 0 l 217 738 l 87 738 l 87 0 m 152 886 q 293 909 235 886 q 381 990 351 932 q 412 1151 412 1047 l 304 1151 q 260 996 304 1023 q 152 980 233 980 q 47 994 71 980 q 0 1151 0 1023 l -109 1151 q -78 990 -109 1047 q 12 909 -47 932 q 152 886 70 886 "},"ǐ":{"ha":304,"x_min":-130,"x_max":434,"o":"m 87 0 l 217 0 l 217 738 l 87 738 l 87 0 m 87 892 l 217 892 l 434 1218 l 347 1283 l 152 979 l -43 1283 l -130 1218 l 87 892 "},"î":{"ha":304,"x_min":-130,"x_max":434,"o":"m 87 0 l 217 0 l 217 738 l 87 738 l 87 0 m -43 888 l 152 1192 l 347 888 l 434 954 l 217 1279 l 87 1279 l -130 954 l -43 888 "},"ȉ":{"ha":304,"x_min":87,"x_max":217,"o":"m 87 0 l 217 0 l 217 738 l 87 738 l 87 0 "},"ï":{"ha":304,"x_min":-153,"x_max":457,"o":"m 87 0 l 217 0 l 217 738 l 87 738 l 87 0 m 327 911 l 457 911 l 457 1042 l 327 1042 l 327 911 m -153 911 l -23 911 l -23 1042 l -153 1042 l -153 911 "},"ì":{"ha":304,"x_min":-38,"x_max":433,"o":"m 87 0 l 217 0 l 217 738 l 87 738 l 87 0 m 389 909 l 433 974 l 42 1299 l -38 1183 l 389 909 "},"ȋ":{"ha":304,"x_min":-109,"x_max":412,"o":"m 87 0 l 217 0 l 217 738 l 87 738 l 87 0 m 152 1151 q 12 1128 70 1151 q -78 1048 -47 1105 q -109 886 -109 990 l 0 886 q 47 1043 0 1015 q 152 1057 71 1057 q 260 1041 233 1057 q 304 886 304 1015 l 412 886 q 381 1048 412 990 q 293 1128 351 1105 q 152 1151 235 1151 "},"ī":{"ha":304,"x_min":-109,"x_max":412,"o":"m 87 0 l 217 0 l 217 738 l 87 738 l 87 0 m -109 885 l 412 885 l 412 994 l -109 994 l -109 885 "},"į":{"ha":304,"x_min":-43,"x_max":217,"o":"m 87 0 l 217 0 l 217 738 l 87 738 l 87 0 m 87 911 l 217 911 l 217 1042 l 87 1042 l 87 911 m 217 -391 l 217 -282 q 123 -266 159 -282 q 87 -195 87 -249 q 217 0 87 -86 l 130 0 q -16 -128 30 -55 q -36 -171 -29 -149 q -43 -229 -43 -193 q -21 -299 -43 -265 q 217 -391 41 -391 "},"ĩ":{"ha":304,"x_min":-152,"x_max":456,"o":"m 87 0 l 217 0 l 217 738 l 87 738 l 87 0 m -152 910 l -22 910 q -13 963 -22 950 q 31 975 -3 975 q 85 964 58 975 q 134 943 111 952 q 282 910 211 910 q 393 947 345 910 q 456 1084 456 994 l 326 1084 q 315 1031 326 1044 q 273 1019 305 1019 q 219 1030 245 1019 q 170 1051 193 1042 q 22 1084 92 1084 q -102 1039 -52 1084 q -152 910 -152 994 "},"ĳ":{"ha":760,"x_min":87,"x_max":629,"o":"m 87 0 l 217 0 l 217 738 l 87 738 l 87 0 m 87 911 l 217 911 l 217 1042 l 87 1042 l 87 911 m 499 911 l 629 911 l 629 1042 l 499 1042 l 499 911 m 279 -260 l 377 -260 q 573 -200 517 -260 q 629 -16 629 -139 l 629 781 l 499 781 l 499 -16 q 471 -127 499 -102 q 377 -152 443 -152 l 279 -152 l 279 -260 "},"j":{"ha":456,"x_min":-25,"x_max":326,"o":"m 195 911 l 326 911 l 326 1042 l 195 1042 l 195 911 m -25 -260 l 73 -260 q 269 -200 213 -260 q 326 -16 326 -139 l 326 781 l 195 781 l 195 -16 q 167 -127 195 -102 q 73 -152 139 -152 l -25 -152 l -25 -260 "},"ȷ":{"ha":412,"x_min":87,"x_max":326,"o":"m 87 -260 q 288 -202 237 -260 q 318 -135 311 -174 q 326 -43 326 -95 l 326 781 l 195 781 l 195 -43 q 174 -131 195 -109 q 87 -152 153 -152 l 87 -260 "},"ǰ":{"ha":412,"x_min":-22,"x_max":543,"o":"m 87 -260 q 288 -202 237 -260 q 318 -135 311 -174 q 326 -43 326 -95 l 326 781 l 195 781 l 195 -43 q 174 -131 195 -109 q 87 -152 153 -152 l 87 -260 m 195 892 l 326 892 l 543 1218 l 456 1283 l 260 979 l 65 1283 l -22 1218 l 195 892 "},"ĵ":{"ha":412,"x_min":-22,"x_max":543,"o":"m 87 -260 q 288 -202 237 -260 q 318 -135 311 -174 q 326 -43 326 -95 l 326 781 l 195 781 l 195 -43 q 174 -131 195 -109 q 87 -152 153 -152 l 87 -260 m 65 888 l 260 1192 l 456 888 l 543 954 l 326 1279 l 195 1279 l -22 954 l 65 888 "},"k":{"ha":959,"x_min":91,"x_max":959,"o":"m 91 0 l 221 0 l 221 401 l 765 0 l 959 0 l 386 414 l 937 781 l 740 781 l 221 440 l 221 1042 l 91 1042 l 91 0 "},"ǩ":{"ha":959,"x_min":-126,"x_max":959,"o":"m 91 0 l 221 0 l 221 401 l 765 0 l 959 0 l 386 414 l 937 781 l 740 781 l 221 440 l 221 1042 l 91 1042 l 91 0 m 91 1153 l 221 1153 l 438 1478 l 351 1544 l 156 1240 l -39 1544 l -126 1478 l 91 1153 "},"ķ":{"ha":959,"x_min":91,"x_max":959,"o":"m 91 0 l 221 0 l 221 401 l 765 0 l 959 0 l 386 414 l 937 781 l 740 781 l 221 440 l 221 1042 l 91 1042 l 91 0 m 555 -103 l 425 -103 l 382 -363 l 469 -363 l 555 -103 "},"ĸ":{"ha":955,"x_min":87,"x_max":955,"o":"m 87 0 l 217 0 l 217 347 l 260 347 l 760 0 l 955 0 l 380 391 l 933 738 l 738 738 l 260 445 l 217 445 l 217 1042 l 87 1042 l 87 0 "},"l":{"ha":391,"x_min":130,"x_max":260,"o":"m 130 0 l 260 0 l 260 1042 l 130 1042 l 130 0 "},"ĺ":{"ha":391,"x_min":106,"x_max":576,"o":"m 130 0 l 260 0 l 260 1042 l 130 1042 l 130 0 m 149 1122 l 576 1396 l 496 1513 l 106 1187 l 149 1122 "},"ľ":{"ha":391,"x_min":130,"x_max":515,"o":"m 130 0 l 260 0 l 260 1042 l 130 1042 l 130 0 m 341 781 l 428 781 l 515 1042 l 385 1042 l 341 781 "},"ļ":{"ha":391,"x_min":87,"x_max":260,"o":"m 130 0 l 260 0 l 260 1042 l 130 1042 l 130 0 m 260 -103 l 130 -103 l 87 -363 l 174 -363 l 260 -103 "},"ŀ":{"ha":522,"x_min":130,"x_max":522,"o":"m 130 0 l 260 0 l 260 1042 l 130 1042 l 130 0 m 391 477 l 522 477 l 522 608 l 391 608 l 391 477 "},"ǉ":{"ha":846,"x_min":130,"x_max":716,"o":"m 130 0 l 260 0 l 260 1042 l 130 1042 l 130 0 m 586 911 l 716 911 l 716 1042 l 586 1042 l 586 911 m 366 -260 l 464 -260 q 660 -200 604 -260 q 716 -16 716 -139 l 716 781 l 586 781 l 586 -16 q 558 -127 586 -102 q 464 -152 530 -152 l 366 -152 l 366 -260 "},"ł":{"ha":347,"x_min":-34,"x_max":357,"o":"m 87 0 l 217 0 l 217 577 l 357 616 l 357 724 l 217 686 l 217 1042 l 87 1042 l 87 649 l -34 616 l -34 507 l 87 541 l 87 0 "},"m":{"ha":1678,"x_min":90,"x_max":1593,"o":"m 90 0 l 220 0 l 220 477 q 293 644 220 593 q 540 694 367 694 q 680 674 628 694 q 754 597 732 653 q 777 434 777 541 l 777 0 l 907 0 l 907 434 q 906 478 907 457 l 906 477 q 980 644 906 593 q 1226 694 1053 694 q 1366 674 1314 694 q 1440 597 1418 653 q 1463 434 1463 541 l 1463 0 l 1593 0 l 1593 434 q 1557 655 1593 574 q 1443 769 1520 736 q 1242 803 1366 803 q 1068 788 1139 803 q 950 740 997 772 q 870 655 903 707 q 756 770 833 736 q 556 803 679 803 q 394 790 457 803 q 290 750 330 777 q 220 684 249 724 l 220 781 l 90 781 l 90 0 "},"ṁ":{"ha":1678,"x_min":90,"x_max":1593,"o":"m 90 0 l 220 0 l 220 477 q 293 644 220 593 q 540 694 367 694 q 680 674 628 694 q 754 597 732 653 q 777 434 777 541 l 777 0 l 907 0 l 907 434 q 906 478 907 457 l 906 477 q 980 644 906 593 q 1226 694 1053 694 q 1366 674 1314 694 q 1440 597 1418 653 q 1463 434 1463 541 l 1463 0 l 1593 0 l 1593 434 q 1557 655 1593 574 q 1443 769 1520 736 q 1242 803 1366 803 q 1068 788 1139 803 q 950 740 997 772 q 870 655 903 707 q 756 770 833 736 q 556 803 679 803 q 394 790 457 803 q 290 750 330 777 q 220 684 249 724 l 220 781 l 90 781 l 90 0 m 774 911 l 904 911 l 904 1042 l 774 1042 l 774 911 "},"n":{"ha":1086,"x_min":90,"x_max":1002,"o":"m 90 0 l 220 0 l 220 471 q 252 595 220 547 q 361 665 283 643 q 574 688 438 688 q 720 679 663 688 q 811 646 778 671 q 857 572 844 621 q 871 443 871 523 l 871 0 l 1002 0 l 1002 443 q 964 660 1002 583 q 839 766 927 736 q 597 796 750 796 q 407 783 479 796 q 292 743 335 770 q 220 677 249 717 l 220 781 l 90 781 l 90 0 "},"ń":{"ha":1086,"x_min":90,"x_max":1002,"o":"m 90 0 l 220 0 l 220 471 q 252 595 220 547 q 361 665 283 643 q 574 688 438 688 q 720 679 663 688 q 811 646 778 671 q 857 572 844 621 q 871 443 871 523 l 871 0 l 1002 0 l 1002 443 q 964 660 1002 583 q 839 766 927 736 q 597 796 750 796 q 407 783 479 796 q 292 743 335 770 q 220 677 249 717 l 220 781 l 90 781 l 90 0 m 391 910 l 819 1184 l 739 1301 l 348 975 l 391 910 "},"ŉ":{"ha":1129,"x_min":-80,"x_max":1045,"o":"m 94 819 l 50 1080 l -80 1080 l 7 819 l 94 819 m 133 0 l 263 0 l 263 471 q 295 595 263 547 q 404 665 327 643 q 617 688 481 688 q 764 679 706 688 q 854 646 821 671 q 901 572 887 621 q 914 443 914 523 l 914 0 l 1045 0 l 1045 443 q 1008 660 1045 583 q 882 766 970 736 q 640 796 793 796 q 451 783 523 796 q 335 743 378 770 q 263 677 292 717 l 263 781 l 133 781 l 133 0 "},"ň":{"ha":1086,"x_min":90,"x_max":1002,"o":"m 90 0 l 220 0 l 220 471 q 252 595 220 547 q 361 665 283 643 q 574 688 438 688 q 720 679 663 688 q 811 646 778 671 q 857 572 844 621 q 871 443 871 523 l 871 0 l 1002 0 l 1002 443 q 964 660 1002 583 q 839 766 927 736 q 597 796 750 796 q 407 783 479 796 q 292 743 335 770 q 220 677 249 717 l 220 781 l 90 781 l 90 0 m 478 892 l 608 892 l 825 1218 l 739 1283 l 543 979 l 348 1283 l 261 1218 l 478 892 "},"ņ":{"ha":1086,"x_min":90,"x_max":1002,"o":"m 90 0 l 220 0 l 220 471 q 252 595 220 547 q 361 665 283 643 q 574 688 438 688 q 720 679 663 688 q 811 646 778 671 q 857 572 844 621 q 871 443 871 523 l 871 0 l 1002 0 l 1002 443 q 964 660 1002 583 q 839 766 927 736 q 597 796 750 796 q 407 783 479 796 q 292 743 335 770 q 220 677 249 717 l 220 781 l 90 781 l 90 0 m 608 -103 l 478 -103 l 435 -363 l 522 -363 l 608 -103 "},"ǹ":{"ha":1086,"x_min":90,"x_max":1002,"o":"m 90 0 l 220 0 l 220 471 q 252 595 220 547 q 361 665 283 643 q 574 688 438 688 q 720 679 663 688 q 811 646 778 671 q 857 572 844 621 q 871 443 871 523 l 871 0 l 1002 0 l 1002 443 q 964 660 1002 583 q 839 766 927 736 q 597 796 750 796 q 407 783 479 796 q 292 743 335 770 q 220 677 249 717 l 220 781 l 90 781 l 90 0 m 781 909 l 824 974 l 433 1299 l 353 1183 l 781 909 "},"ǌ":{"ha":1541,"x_min":90,"x_max":1411,"o":"m 90 0 l 220 0 l 220 471 q 252 595 220 547 q 361 665 283 643 q 574 688 438 688 q 720 679 663 688 q 811 646 778 671 q 857 572 844 621 q 871 443 871 523 l 871 0 l 1002 0 l 1002 443 q 964 660 1002 583 q 839 766 927 736 q 597 796 750 796 q 407 783 479 796 q 292 743 335 770 q 220 677 249 717 l 220 781 l 90 781 l 90 0 m 1281 911 l 1411 911 l 1411 1042 l 1281 1042 l 1281 911 m 1061 -260 l 1159 -260 q 1355 -200 1299 -260 q 1411 -16 1411 -139 l 1411 781 l 1281 781 l 1281 -16 q 1253 -127 1281 -102 q 1159 -152 1225 -152 l 1061 -152 l 1061 -260 "},"ñ":{"ha":1086,"x_min":90,"x_max":1002,"o":"m 90 0 l 220 0 l 220 471 q 252 595 220 547 q 361 665 283 643 q 574 688 438 688 q 720 679 663 688 q 811 646 778 671 q 857 572 844 621 q 871 443 871 523 l 871 0 l 1002 0 l 1002 443 q 964 660 1002 583 q 839 766 927 736 q 597 796 750 796 q 407 783 479 796 q 292 743 335 770 q 220 677 249 717 l 220 781 l 90 781 l 90 0 m 239 910 l 370 910 q 379 963 370 950 q 422 975 388 975 q 476 964 450 975 q 525 943 503 952 q 673 910 602 910 q 785 947 736 910 q 847 1084 847 994 l 717 1084 q 707 1031 717 1044 q 664 1019 696 1019 q 610 1030 637 1019 q 562 1051 584 1042 q 413 1084 484 1084 q 289 1039 339 1084 q 239 910 239 994 "},"ŋ":{"ha":1175,"x_min":133,"x_max":1045,"o":"m 806 -260 q 1006 -202 956 -260 q 1038 -135 1030 -174 q 1045 -43 1045 -95 l 1045 443 q 1008 660 1045 583 q 882 766 970 736 q 640 796 793 796 q 451 783 523 796 q 336 743 378 770 q 263 677 293 717 l 263 781 l 133 781 l 133 0 l 263 0 l 263 471 q 295 595 263 547 q 404 665 327 643 q 617 688 481 688 q 764 679 706 688 q 854 646 821 671 q 901 572 887 621 q 914 443 914 523 l 914 -43 q 893 -131 914 -109 q 806 -152 871 -152 l 806 -260 "},"o":{"ha":1086,"x_min":65,"x_max":1021,"o":"m 543 -15 q 766 -2 675 -15 q 913 53 857 12 q 996 176 970 94 q 1021 395 1021 258 q 996 608 1021 528 q 913 728 970 688 q 766 783 857 769 q 543 796 675 796 q 321 783 412 796 q 173 728 229 769 q 91 608 117 688 q 65 395 65 528 q 91 176 65 258 q 173 53 117 94 q 321 -2 229 12 q 543 -15 412 -15 m 891 395 q 881 234 891 294 q 838 143 871 174 q 735 103 805 113 q 543 94 665 94 q 352 103 422 94 q 248 143 281 113 q 205 234 215 174 q 195 395 195 294 q 205 550 195 492 q 248 638 215 608 q 352 677 281 667 q 543 688 422 688 q 735 677 665 688 q 838 638 805 667 q 881 550 871 608 q 891 395 891 492 "},"ó":{"ha":1086,"x_min":65,"x_max":1021,"o":"m 543 -15 q 766 -2 675 -15 q 913 53 857 12 q 996 176 970 94 q 1021 395 1021 258 q 996 608 1021 528 q 913 728 970 688 q 766 783 857 769 q 543 796 675 796 q 321 783 412 796 q 173 728 229 769 q 91 608 117 688 q 65 395 65 528 q 91 176 65 258 q 173 53 117 94 q 321 -2 229 12 q 543 -15 412 -15 m 891 395 q 881 234 891 294 q 838 143 871 174 q 735 103 805 113 q 543 94 665 94 q 352 103 422 94 q 248 143 281 113 q 205 234 215 174 q 195 395 195 294 q 205 550 195 492 q 248 638 215 608 q 352 677 281 667 q 543 688 422 688 q 735 677 665 688 q 838 638 805 667 q 881 550 871 608 q 891 395 891 492 m 391 910 l 819 1184 l 739 1301 l 348 975 l 391 910 "},"ŏ":{"ha":1086,"x_min":65,"x_max":1021,"o":"m 543 -15 q 766 -2 675 -15 q 913 53 857 12 q 996 176 970 94 q 1021 395 1021 258 q 996 608 1021 528 q 913 728 970 688 q 766 783 857 769 q 543 796 675 796 q 321 783 412 796 q 173 728 229 769 q 91 608 117 688 q 65 395 65 528 q 91 176 65 258 q 173 53 117 94 q 321 -2 229 12 q 543 -15 412 -15 m 891 395 q 881 234 891 294 q 838 143 871 174 q 735 103 805 113 q 543 94 665 94 q 352 103 422 94 q 248 143 281 113 q 205 234 215 174 q 195 395 195 294 q 205 550 195 492 q 248 638 215 608 q 352 677 281 667 q 543 688 422 688 q 735 677 665 688 q 838 638 805 667 q 881 550 871 608 q 891 395 891 492 m 543 886 q 684 909 626 886 q 773 990 742 932 q 804 1151 804 1047 l 695 1151 q 652 996 695 1023 q 543 980 625 980 q 438 994 462 980 q 391 1151 391 1023 l 283 1151 q 314 990 283 1047 q 403 909 345 932 q 543 886 461 886 "},"ǒ":{"ha":1086,"x_min":65,"x_max":1021,"o":"m 543 -15 q 766 -2 675 -15 q 913 53 857 12 q 996 176 970 94 q 1021 395 1021 258 q 996 608 1021 528 q 913 728 970 688 q 766 783 857 769 q 543 796 675 796 q 321 783 412 796 q 173 728 229 769 q 91 608 117 688 q 65 395 65 528 q 91 176 65 258 q 173 53 117 94 q 321 -2 229 12 q 543 -15 412 -15 m 891 395 q 881 234 891 294 q 838 143 871 174 q 735 103 805 113 q 543 94 665 94 q 352 103 422 94 q 248 143 281 113 q 205 234 215 174 q 195 395 195 294 q 205 550 195 492 q 248 638 215 608 q 352 677 281 667 q 543 688 422 688 q 735 677 665 688 q 838 638 805 667 q 881 550 871 608 q 891 395 891 492 m 478 892 l 608 892 l 825 1218 l 739 1283 l 543 979 l 348 1283 l 261 1218 l 478 892 "},"ô":{"ha":1086,"x_min":65,"x_max":1021,"o":"m 543 -15 q 766 -2 675 -15 q 913 53 857 12 q 996 176 970 94 q 1021 395 1021 258 q 996 608 1021 528 q 913 728 970 688 q 766 783 857 769 q 543 796 675 796 q 321 783 412 796 q 173 728 229 769 q 91 608 117 688 q 65 395 65 528 q 91 176 65 258 q 173 53 117 94 q 321 -2 229 12 q 543 -15 412 -15 m 891 395 q 881 234 891 294 q 838 143 871 174 q 735 103 805 113 q 543 94 665 94 q 352 103 422 94 q 248 143 281 113 q 205 234 215 174 q 195 395 195 294 q 205 550 195 492 q 248 638 215 608 q 352 677 281 667 q 543 688 422 688 q 735 677 665 688 q 838 638 805 667 q 881 550 871 608 q 891 395 891 492 m 348 888 l 543 1192 l 739 888 l 825 954 l 608 1279 l 478 1279 l 261 954 l 348 888 "},"ȍ":{"ha":1086,"x_min":65,"x_max":1021,"o":"m 543 -15 q 766 -2 675 -15 q 913 53 857 12 q 996 176 970 94 q 1021 395 1021 258 q 996 608 1021 528 q 913 728 970 688 q 766 783 857 769 q 543 796 675 796 q 321 783 412 796 q 173 728 229 769 q 91 608 117 688 q 65 395 65 528 q 91 176 65 258 q 173 53 117 94 q 321 -2 229 12 q 543 -15 412 -15 m 891 395 q 881 234 891 294 q 838 143 871 174 q 735 103 805 113 q 543 94 665 94 q 352 103 422 94 q 248 143 281 113 q 205 234 215 174 q 195 395 195 294 q 205 550 195 492 q 248 638 215 608 q 352 677 281 667 q 543 688 422 688 q 735 677 665 688 q 838 638 805 667 q 881 550 871 608 q 891 395 891 492 "},"ö":{"ha":1086,"x_min":65,"x_max":1021,"o":"m 543 -15 q 766 -2 675 -15 q 913 53 857 12 q 996 176 970 94 q 1021 395 1021 258 q 996 608 1021 528 q 913 728 970 688 q 766 783 857 769 q 543 796 675 796 q 321 783 412 796 q 173 728 229 769 q 91 608 117 688 q 65 395 65 528 q 91 176 65 258 q 173 53 117 94 q 321 -2 229 12 q 543 -15 412 -15 m 891 395 q 881 234 891 294 q 838 143 871 174 q 735 103 805 113 q 543 94 665 94 q 352 103 422 94 q 248 143 281 113 q 205 234 215 174 q 195 395 195 294 q 205 550 195 492 q 248 638 215 608 q 352 677 281 667 q 543 688 422 688 q 735 677 665 688 q 838 638 805 667 q 881 550 871 608 q 891 395 891 492 m 718 911 l 848 911 l 848 1042 l 718 1042 l 718 911 m 238 911 l 368 911 l 368 1042 l 238 1042 l 238 911 "},"ȯ":{"ha":1086,"x_min":65,"x_max":1021,"o":"m 543 -15 q 766 -2 675 -15 q 913 53 857 12 q 996 176 970 94 q 1021 395 1021 258 q 996 608 1021 528 q 913 728 970 688 q 766 783 857 769 q 543 796 675 796 q 321 783 412 796 q 173 728 229 769 q 91 608 117 688 q 65 395 65 528 q 91 176 65 258 q 173 53 117 94 q 321 -2 229 12 q 543 -15 412 -15 m 891 395 q 881 234 891 294 q 838 143 871 174 q 735 103 805 113 q 543 94 665 94 q 352 103 422 94 q 248 143 281 113 q 205 234 215 174 q 195 395 195 294 q 205 550 195 492 q 248 638 215 608 q 352 677 281 667 q 543 688 422 688 q 735 677 665 688 q 838 638 805 667 q 881 550 871 608 q 891 395 891 492 m 478 911 l 608 911 l 608 1042 l 478 1042 l 478 911 "},"ò":{"ha":1086,"x_min":65,"x_max":1021,"o":"m 543 -15 q 766 -2 675 -15 q 913 53 857 12 q 996 176 970 94 q 1021 395 1021 258 q 996 608 1021 528 q 913 728 970 688 q 766 783 857 769 q 543 796 675 796 q 321 783 412 796 q 173 728 229 769 q 91 608 117 688 q 65 395 65 528 q 91 176 65 258 q 173 53 117 94 q 321 -2 229 12 q 543 -15 412 -15 m 891 395 q 881 234 891 294 q 838 143 871 174 q 735 103 805 113 q 543 94 665 94 q 352 103 422 94 q 248 143 281 113 q 205 234 215 174 q 195 395 195 294 q 205 550 195 492 q 248 638 215 608 q 352 677 281 667 q 543 688 422 688 q 735 677 665 688 q 838 638 805 667 q 881 550 871 608 q 891 395 891 492 m 781 909 l 824 974 l 433 1299 l 353 1183 l 781 909 "},"ő":{"ha":1086,"x_min":65,"x_max":1163,"o":"m 543 -15 q 766 -2 675 -15 q 913 53 857 12 q 996 176 970 94 q 1021 395 1021 258 q 996 608 1021 528 q 913 728 970 688 q 766 783 857 769 q 543 796 675 796 q 321 783 412 796 q 173 728 229 769 q 91 608 117 688 q 65 395 65 528 q 91 176 65 258 q 173 53 117 94 q 321 -2 229 12 q 543 -15 412 -15 m 891 395 q 881 234 891 294 q 838 143 871 174 q 735 103 805 113 q 543 94 665 94 q 352 103 422 94 q 248 143 281 113 q 205 234 215 174 q 195 395 195 294 q 205 550 195 492 q 248 638 215 608 q 352 677 281 667 q 543 688 422 688 q 735 677 665 688 q 838 638 805 667 q 881 550 871 608 q 891 395 891 492 m 729 884 l 1163 1145 l 1076 1275 l 686 949 l 729 884 m 354 884 l 788 1145 l 701 1275 l 311 949 l 354 884 "},"ȏ":{"ha":1086,"x_min":65,"x_max":1021,"o":"m 543 -15 q 766 -2 675 -15 q 913 53 857 12 q 996 176 970 94 q 1021 395 1021 258 q 996 608 1021 528 q 913 728 970 688 q 766 783 857 769 q 543 796 675 796 q 321 783 412 796 q 173 728 229 769 q 91 608 117 688 q 65 395 65 528 q 91 176 65 258 q 173 53 117 94 q 321 -2 229 12 q 543 -15 412 -15 m 891 395 q 881 234 891 294 q 838 143 871 174 q 735 103 805 113 q 543 94 665 94 q 352 103 422 94 q 248 143 281 113 q 205 234 215 174 q 195 395 195 294 q 205 550 195 492 q 248 638 215 608 q 352 677 281 667 q 543 688 422 688 q 735 677 665 688 q 838 638 805 667 q 881 550 871 608 q 891 395 891 492 m 543 1151 q 403 1128 461 1151 q 314 1048 345 1105 q 283 886 283 990 l 391 886 q 438 1043 391 1015 q 543 1057 462 1057 q 652 1041 625 1057 q 695 886 695 1015 l 804 886 q 773 1048 804 990 q 684 1128 742 1105 q 543 1151 626 1151 "},"ō":{"ha":1086,"x_min":65,"x_max":1021,"o":"m 543 -15 q 766 -2 675 -15 q 913 53 857 12 q 996 176 970 94 q 1021 395 1021 258 q 996 608 1021 528 q 913 728 970 688 q 766 783 857 769 q 543 796 675 796 q 321 783 412 796 q 173 728 229 769 q 91 608 117 688 q 65 395 65 528 q 91 176 65 258 q 173 53 117 94 q 321 -2 229 12 q 543 -15 412 -15 m 891 395 q 881 234 891 294 q 838 143 871 174 q 735 103 805 113 q 543 94 665 94 q 352 103 422 94 q 248 143 281 113 q 205 234 215 174 q 195 395 195 294 q 205 550 195 492 q 248 638 215 608 q 352 677 281 667 q 543 688 422 688 q 735 677 665 688 q 838 638 805 667 q 881 550 871 608 q 891 395 891 492 m 283 885 l 804 885 l 804 994 l 283 994 l 283 885 "},"ǫ":{"ha":1086,"x_min":65,"x_max":1021,"o":"m 543 -15 q 766 -2 675 -15 q 913 53 857 12 q 996 176 970 94 q 1021 395 1021 258 q 996 608 1021 528 q 913 728 970 688 q 766 783 857 769 q 543 796 675 796 q 321 783 412 796 q 173 728 229 769 q 91 608 117 688 q 65 395 65 528 q 91 176 65 258 q 173 53 117 94 q 321 -2 229 12 q 543 -15 412 -15 m 891 395 q 881 234 891 294 q 838 143 871 174 q 735 103 805 113 q 543 94 665 94 q 352 103 422 94 q 248 143 281 113 q 205 234 215 174 q 195 395 195 294 q 205 550 195 492 q 248 638 215 608 q 352 677 281 667 q 543 688 422 688 q 735 677 665 688 q 838 638 805 667 q 881 550 871 608 q 891 395 891 492 m 608 -377 l 608 -269 q 514 -252 550 -269 q 477 -182 477 -235 q 608 14 477 -73 l 521 14 q 374 -115 420 -41 q 354 -158 361 -136 q 347 -216 347 -180 q 370 -286 347 -252 q 608 -377 432 -377 "},"ø":{"ha":1086,"x_min":65,"x_max":1021,"o":"m 349 -158 l 416 -12 q 477 -14 445 -14 q 543 -15 509 -15 q 766 -2 675 -15 q 913 53 857 12 q 996 176 970 94 q 1021 395 1021 258 q 997 604 1021 525 q 918 725 972 684 q 776 781 864 766 l 836 915 l 757 944 l 688 792 q 619 795 655 794 q 543 796 583 796 q 321 783 412 796 q 173 728 229 769 q 91 608 117 688 q 65 395 65 528 q 91 174 65 256 q 175 52 117 92 q 327 -3 233 11 l 270 -129 l 349 -158 m 195 395 q 205 550 195 492 q 248 638 215 608 q 352 677 281 667 q 543 688 422 688 q 594 687 570 688 q 640 686 618 687 l 374 100 q 254 138 292 109 q 206 228 216 167 q 195 395 195 289 m 891 395 q 881 234 891 294 q 838 143 871 174 q 735 103 805 113 q 543 94 665 94 q 464 94 498 94 l 729 679 q 837 638 803 668 q 881 551 871 609 q 891 395 891 492 "},"ǿ":{"ha":1086,"x_min":65,"x_max":1021,"o":"m 349 -158 l 416 -12 q 477 -14 445 -14 q 543 -15 509 -15 q 766 -2 675 -15 q 913 53 857 12 q 996 176 970 94 q 1021 395 1021 258 q 997 604 1021 525 q 918 725 972 684 q 776 781 864 766 l 836 915 l 757 944 l 688 792 q 619 795 655 794 q 543 796 583 796 q 321 783 412 796 q 173 728 229 769 q 91 608 117 688 q 65 395 65 528 q 91 174 65 256 q 175 52 117 92 q 327 -3 233 11 l 270 -129 l 349 -158 m 195 395 q 205 550 195 492 q 248 638 215 608 q 352 677 281 667 q 543 688 422 688 q 594 687 570 688 q 640 686 618 687 l 374 100 q 254 138 292 109 q 206 228 216 167 q 195 395 195 289 m 891 395 q 881 234 891 294 q 838 143 871 174 q 735 103 805 113 q 543 94 665 94 q 464 94 498 94 l 729 679 q 837 638 803 668 q 881 551 871 609 q 891 395 891 492 m 391 910 l 819 1184 l 739 1301 l 348 975 l 391 910 "},"õ":{"ha":1086,"x_min":65,"x_max":1021,"o":"m 543 -15 q 766 -2 675 -15 q 913 53 857 12 q 996 176 970 94 q 1021 395 1021 258 q 996 608 1021 528 q 913 728 970 688 q 766 783 857 769 q 543 796 675 796 q 321 783 412 796 q 173 728 229 769 q 91 608 117 688 q 65 395 65 528 q 91 176 65 258 q 173 53 117 94 q 321 -2 229 12 q 543 -15 412 -15 m 891 395 q 881 234 891 294 q 838 143 871 174 q 735 103 805 113 q 543 94 665 94 q 352 103 422 94 q 248 143 281 113 q 205 234 215 174 q 195 395 195 294 q 205 550 195 492 q 248 638 215 608 q 352 677 281 667 q 543 688 422 688 q 735 677 665 688 q 838 638 805 667 q 881 550 871 608 q 891 395 891 492 m 239 910 l 370 910 q 379 963 370 950 q 422 975 388 975 q 476 964 450 975 q 525 943 503 952 q 673 910 602 910 q 785 947 736 910 q 847 1084 847 994 l 717 1084 q 707 1031 717 1044 q 664 1019 696 1019 q 610 1030 637 1019 q 562 1051 584 1042 q 413 1084 484 1084 q 289 1039 339 1084 q 239 910 239 994 "},"œ":{"ha":1910,"x_min":87,"x_max":1823,"o":"m 1413 -22 q 1594 -9 1509 -22 q 1760 56 1697 7 q 1823 217 1823 105 l 1693 217 q 1678 149 1693 174 q 1630 111 1663 125 q 1431 87 1571 87 q 1310 89 1361 87 q 1225 94 1258 90 q 1080 166 1118 105 q 1042 347 1042 227 l 1812 347 l 1823 391 q 1787 595 1823 518 q 1667 711 1752 671 q 1389 760 1565 760 q 1112 716 1230 760 q 977 608 993 673 q 924 675 966 646 q 821 722 881 703 q 696 750 760 741 q 577 760 631 760 q 364 745 458 760 q 206 687 270 730 q 113 558 142 644 q 87 369 87 482 q 146 114 87 203 q 343 -3 206 24 q 538 -22 434 -22 q 701 -12 633 -22 q 833 22 769 -3 q 977 130 943 63 q 1073 41 1004 75 q 1231 -7 1141 7 q 1413 -22 1320 -22 m 575 87 q 446 90 502 87 q 339 107 390 92 q 277 138 301 118 q 224 239 232 176 q 217 388 217 302 q 234 520 217 463 q 293 608 250 578 q 408 646 339 640 q 559 651 476 651 l 564 651 q 715 645 648 651 q 828 612 783 639 q 894 523 874 585 q 911 369 911 466 q 897 227 911 285 q 842 135 882 168 q 728 94 802 102 q 657 89 695 91 q 575 87 618 87 m 1042 434 q 1059 551 1042 507 q 1128 622 1080 601 q 1242 647 1176 643 q 1381 651 1308 651 q 1519 644 1459 651 q 1622 608 1579 637 q 1693 434 1693 561 l 1042 434 "},"p":{"ha":1111,"x_min":90,"x_max":1046,"o":"m 916 395 q 906 234 916 294 q 863 143 896 174 q 759 103 829 113 q 568 94 689 94 q 389 103 457 94 q 283 143 320 113 q 233 234 247 174 q 220 395 220 294 q 233 550 220 492 q 283 638 247 608 q 389 677 320 667 q 568 688 457 688 q 759 677 689 688 q 863 638 829 667 q 906 550 896 608 q 916 395 916 492 m 90 -260 l 220 -260 l 220 90 q 356 4 269 23 q 568 -15 442 -15 q 790 -2 699 -15 q 938 53 882 12 q 1020 176 994 94 q 1046 395 1046 258 q 1020 608 1046 528 q 938 728 994 688 q 790 783 882 769 q 568 796 699 796 q 356 777 442 796 q 220 692 269 758 l 220 781 l 90 781 l 90 -260 "},"ṗ":{"ha":1111,"x_min":90,"x_max":1046,"o":"m 916 395 q 906 234 916 294 q 863 143 896 174 q 759 103 829 113 q 568 94 689 94 q 389 103 457 94 q 283 143 320 113 q 233 234 247 174 q 220 395 220 294 q 233 550 220 492 q 283 638 247 608 q 389 677 320 667 q 568 688 457 688 q 759 677 689 688 q 863 638 829 667 q 906 550 896 608 q 916 395 916 492 m 90 -260 l 220 -260 l 220 90 q 356 4 269 23 q 568 -15 442 -15 q 790 -2 699 -15 q 938 53 882 12 q 1020 176 994 94 q 1046 395 1046 258 q 1020 608 1046 528 q 938 728 994 688 q 790 783 882 769 q 568 796 699 796 q 356 777 442 796 q 220 692 269 758 l 220 781 l 90 781 l 90 -260 m 490 911 l 621 911 l 621 1042 l 490 1042 l 490 911 "},"þ":{"ha":1085,"x_min":87,"x_max":1042,"o":"m 87 -260 l 217 -260 l 217 87 q 463 -17 262 5 q 519 -21 485 -20 q 601 -22 554 -22 q 788 -2 696 -22 q 933 60 879 17 q 1017 183 993 106 q 1042 369 1042 260 q 982 625 1042 535 q 785 741 923 714 q 601 760 695 760 q 440 751 519 760 q 302 720 361 743 q 217 652 243 696 l 217 1042 l 87 1042 l 87 -260 m 533 87 q 411 92 467 87 q 314 117 355 97 q 250 180 273 137 q 217 371 217 241 q 250 559 217 500 q 448 648 294 640 q 504 650 474 650 q 570 651 534 651 q 707 646 642 651 q 821 620 772 641 q 890 548 869 598 q 911 369 911 496 q 894 200 911 243 q 854 140 877 160 q 789 107 831 120 q 610 87 722 87 l 533 87 "},"q":{"ha":1111,"x_min":65,"x_max":1021,"o":"m 891 395 q 878 234 891 294 q 827 143 864 174 q 722 103 791 113 q 543 94 654 94 q 352 103 422 94 q 248 143 281 113 q 205 234 215 174 q 195 395 195 294 q 205 550 195 492 q 248 638 215 608 q 352 677 281 667 q 543 688 422 688 q 722 677 654 688 q 827 638 791 667 q 878 550 864 608 q 891 395 891 492 m 65 395 q 91 176 65 258 q 173 53 117 94 q 321 -2 229 12 q 543 -15 412 -15 q 755 4 669 -15 q 891 90 842 23 l 891 -260 l 1021 -260 l 1021 781 l 891 781 l 891 692 q 755 777 842 758 q 543 796 669 796 q 321 783 412 796 q 173 728 229 769 q 91 608 117 688 q 65 395 65 528 "},"r":{"ha":669,"x_min":100,"x_max":589,"o":"m 100 0 l 231 0 l 231 477 q 237 579 231 539 q 276 642 244 619 q 381 674 308 665 q 589 684 455 684 l 589 793 q 429 787 490 793 q 332 768 368 781 q 274 731 296 754 q 231 673 252 708 l 231 781 l 100 781 l 100 0 "},"ŕ":{"ha":669,"x_min":100,"x_max":619,"o":"m 100 0 l 231 0 l 231 477 q 237 579 231 539 q 276 642 244 619 q 381 674 308 665 q 589 684 455 684 l 589 793 q 429 787 490 793 q 332 768 368 781 q 274 731 296 754 q 231 673 252 708 l 231 781 l 100 781 l 100 0 m 192 910 l 619 1184 l 539 1301 l 149 975 l 192 910 "},"ř":{"ha":669,"x_min":62,"x_max":626,"o":"m 100 0 l 231 0 l 231 477 q 237 579 231 539 q 276 642 244 619 q 381 674 308 665 q 589 684 455 684 l 589 793 q 429 787 490 793 q 332 768 368 781 q 274 731 296 754 q 231 673 252 708 l 231 781 l 100 781 l 100 0 m 279 892 l 409 892 l 626 1218 l 539 1283 l 344 979 l 149 1283 l 62 1218 l 279 892 "},"ŗ":{"ha":669,"x_min":57,"x_max":589,"o":"m 100 0 l 231 0 l 231 477 q 237 579 231 539 q 276 642 244 619 q 381 674 308 665 q 589 684 455 684 l 589 793 q 429 787 490 793 q 332 768 368 781 q 274 731 296 754 q 231 673 252 708 l 231 781 l 100 781 l 100 0 m 231 -103 l 100 -103 l 57 -363 l 144 -363 l 231 -103 "},"ȑ":{"ha":669,"x_min":100,"x_max":589,"o":"m 100 0 l 231 0 l 231 477 q 237 579 231 539 q 276 642 244 619 q 381 674 308 665 q 589 684 455 684 l 589 793 q 429 787 490 793 q 332 768 368 781 q 274 731 296 754 q 231 673 252 708 l 231 781 l 100 781 l 100 0 "},"ȓ":{"ha":669,"x_min":83,"x_max":604,"o":"m 100 0 l 231 0 l 231 477 q 237 579 231 539 q 276 642 244 619 q 381 674 308 665 q 589 684 455 684 l 589 793 q 429 787 490 793 q 332 768 368 781 q 274 731 296 754 q 231 673 252 708 l 231 781 l 100 781 l 100 0 m 344 1151 q 203 1128 262 1151 q 114 1048 145 1105 q 83 886 83 990 l 192 886 q 239 1043 192 1015 q 344 1057 262 1057 q 452 1041 425 1057 q 496 886 496 1015 l 604 886 q 573 1048 604 990 q 485 1128 543 1105 q 344 1151 427 1151 "},"s":{"ha":1078,"x_min":94,"x_max":991,"o":"m 528 -15 q 744 -8 656 -15 q 887 22 833 -1 q 966 94 941 45 q 991 228 991 143 q 968 372 991 322 q 883 440 945 422 q 699 460 820 459 l 431 463 q 311 468 354 464 q 249 483 268 471 q 225 517 230 494 q 221 579 221 540 q 228 640 221 618 q 265 672 235 662 q 364 685 296 682 q 556 688 433 688 q 725 684 665 688 q 811 669 785 681 q 844 632 838 657 q 850 562 850 606 l 975 562 q 962 683 975 637 q 906 754 949 730 q 779 787 864 779 q 549 796 694 796 q 340 792 427 796 q 199 770 253 789 q 119 706 144 751 q 94 579 94 661 q 117 443 94 491 q 203 376 140 395 q 386 356 266 357 l 696 353 q 809 343 774 352 q 854 307 844 334 q 863 228 863 281 q 857 158 863 184 q 821 118 850 132 q 723 99 791 104 q 532 94 654 94 q 352 99 416 94 q 259 118 288 104 q 224 158 231 132 q 218 227 218 184 l 94 227 q 109 103 94 151 q 169 30 124 56 q 299 -5 213 4 q 528 -15 386 -15 "},"ś":{"ha":1078,"x_min":94,"x_max":991,"o":"m 528 -15 q 744 -8 656 -15 q 887 22 833 -1 q 966 94 941 45 q 991 228 991 143 q 968 372 991 322 q 883 440 945 422 q 699 460 820 459 l 431 463 q 311 468 354 464 q 249 483 268 471 q 225 517 230 494 q 221 579 221 540 q 228 640 221 618 q 265 672 235 662 q 364 685 296 682 q 556 688 433 688 q 725 684 665 688 q 811 669 785 681 q 844 632 838 657 q 850 562 850 606 l 975 562 q 962 683 975 637 q 906 754 949 730 q 779 787 864 779 q 549 796 694 796 q 340 792 427 796 q 199 770 253 789 q 119 706 144 751 q 94 579 94 661 q 117 443 94 491 q 203 376 140 395 q 386 356 266 357 l 696 353 q 809 343 774 352 q 854 307 844 334 q 863 228 863 281 q 857 158 863 184 q 821 118 850 132 q 723 99 791 104 q 532 94 654 94 q 352 99 416 94 q 259 118 288 104 q 224 158 231 132 q 218 227 218 184 l 94 227 q 109 103 94 151 q 169 30 124 56 q 299 -5 213 4 q 528 -15 386 -15 m 387 910 l 814 1184 l 734 1301 l 344 975 l 387 910 "},"š":{"ha":1078,"x_min":94,"x_max":991,"o":"m 528 -15 q 744 -8 656 -15 q 887 22 833 -1 q 966 94 941 45 q 991 228 991 143 q 968 372 991 322 q 883 440 945 422 q 699 460 820 459 l 431 463 q 311 468 354 464 q 249 483 268 471 q 225 517 230 494 q 221 579 221 540 q 228 640 221 618 q 265 672 235 662 q 364 685 296 682 q 556 688 433 688 q 725 684 665 688 q 811 669 785 681 q 844 632 838 657 q 850 562 850 606 l 975 562 q 962 683 975 637 q 906 754 949 730 q 779 787 864 779 q 549 796 694 796 q 340 792 427 796 q 199 770 253 789 q 119 706 144 751 q 94 579 94 661 q 117 443 94 491 q 203 376 140 395 q 386 356 266 357 l 696 353 q 809 343 774 352 q 854 307 844 334 q 863 228 863 281 q 857 158 863 184 q 821 118 850 132 q 723 99 791 104 q 532 94 654 94 q 352 99 416 94 q 259 118 288 104 q 224 158 231 132 q 218 227 218 184 l 94 227 q 109 103 94 151 q 169 30 124 56 q 299 -5 213 4 q 528 -15 386 -15 m 474 892 l 604 892 l 821 1218 l 734 1283 l 539 979 l 344 1283 l 257 1218 l 474 892 "},"ş":{"ha":1078,"x_min":94,"x_max":991,"o":"m 528 -15 q 744 -8 656 -15 q 887 22 833 -1 q 966 94 941 45 q 991 228 991 143 q 968 372 991 322 q 883 440 945 422 q 699 460 820 459 l 431 463 q 311 468 354 464 q 249 483 268 471 q 225 517 230 494 q 221 579 221 540 q 228 640 221 618 q 265 672 235 662 q 364 685 296 682 q 556 688 433 688 q 725 684 665 688 q 811 669 785 681 q 844 632 838 657 q 850 562 850 606 l 975 562 q 962 683 975 637 q 906 754 949 730 q 779 787 864 779 q 549 796 694 796 q 340 792 427 796 q 199 770 253 789 q 119 706 144 751 q 94 579 94 661 q 117 443 94 491 q 203 376 140 395 q 386 356 266 357 l 696 353 q 809 343 774 352 q 854 307 844 334 q 863 228 863 281 q 857 158 863 184 q 821 118 850 132 q 723 99 791 104 q 532 94 654 94 q 352 99 416 94 q 259 118 288 104 q 224 158 231 132 q 218 227 218 184 l 94 227 q 109 103 94 151 q 169 30 124 56 q 299 -5 213 4 q 528 -15 386 -15 m 486 -369 q 622 -355 563 -369 q 713 -308 680 -342 q 746 -216 746 -275 q 703 -116 746 -146 q 572 -87 659 -87 l 572 43 l 486 43 l 486 -152 q 580 -162 544 -152 q 616 -203 616 -172 q 596 -241 616 -229 q 547 -257 576 -254 q 486 -260 517 -260 l 486 -369 "},"ŝ":{"ha":1078,"x_min":94,"x_max":991,"o":"m 528 -15 q 744 -8 656 -15 q 887 22 833 -1 q 966 94 941 45 q 991 228 991 143 q 968 372 991 322 q 883 440 945 422 q 699 460 820 459 l 431 463 q 311 468 354 464 q 249 483 268 471 q 225 517 230 494 q 221 579 221 540 q 228 640 221 618 q 265 672 235 662 q 364 685 296 682 q 556 688 433 688 q 725 684 665 688 q 811 669 785 681 q 844 632 838 657 q 850 562 850 606 l 975 562 q 962 683 975 637 q 906 754 949 730 q 779 787 864 779 q 549 796 694 796 q 340 792 427 796 q 199 770 253 789 q 119 706 144 751 q 94 579 94 661 q 117 443 94 491 q 203 376 140 395 q 386 356 266 357 l 696 353 q 809 343 774 352 q 854 307 844 334 q 863 228 863 281 q 857 158 863 184 q 821 118 850 132 q 723 99 791 104 q 532 94 654 94 q 352 99 416 94 q 259 118 288 104 q 224 158 231 132 q 218 227 218 184 l 94 227 q 109 103 94 151 q 169 30 124 56 q 299 -5 213 4 q 528 -15 386 -15 m 344 888 l 539 1192 l 734 888 l 821 954 l 604 1279 l 474 1279 l 257 954 l 344 888 "},"ș":{"ha":1078,"x_min":94,"x_max":991,"o":"m 528 -15 q 744 -8 656 -15 q 887 22 833 -1 q 966 94 941 45 q 991 228 991 143 q 968 372 991 322 q 883 440 945 422 q 699 460 820 459 l 431 463 q 311 468 354 464 q 249 483 268 471 q 225 517 230 494 q 221 579 221 540 q 228 640 221 618 q 265 672 235 662 q 364 685 296 682 q 556 688 433 688 q 725 684 665 688 q 811 669 785 681 q 844 632 838 657 q 850 562 850 606 l 975 562 q 962 683 975 637 q 906 754 949 730 q 779 787 864 779 q 549 796 694 796 q 340 792 427 796 q 199 770 253 789 q 119 706 144 751 q 94 579 94 661 q 117 443 94 491 q 203 376 140 395 q 386 356 266 357 l 696 353 q 809 343 774 352 q 854 307 844 334 q 863 228 863 281 q 857 158 863 184 q 821 118 850 132 q 723 99 791 104 q 532 94 654 94 q 352 99 416 94 q 259 118 288 104 q 224 158 231 132 q 218 227 218 184 l 94 227 q 109 103 94 151 q 169 30 124 56 q 299 -5 213 4 q 528 -15 386 -15 m 604 -103 l 474 -103 l 431 -363 l 517 -363 l 604 -103 "},"ṡ":{"ha":1078,"x_min":94,"x_max":991,"o":"m 528 -15 q 744 -8 656 -15 q 887 22 833 -1 q 966 94 941 45 q 991 228 991 143 q 968 372 991 322 q 883 440 945 422 q 699 460 820 459 l 431 463 q 311 468 354 464 q 249 483 268 471 q 225 517 230 494 q 221 579 221 540 q 228 640 221 618 q 265 672 235 662 q 364 685 296 682 q 556 688 433 688 q 725 684 665 688 q 811 669 785 681 q 844 632 838 657 q 850 562 850 606 l 975 562 q 962 683 975 637 q 906 754 949 730 q 779 787 864 779 q 549 796 694 796 q 340 792 427 796 q 199 770 253 789 q 119 706 144 751 q 94 579 94 661 q 117 443 94 491 q 203 376 140 395 q 386 356 266 357 l 696 353 q 809 343 774 352 q 854 307 844 334 q 863 228 863 281 q 857 158 863 184 q 821 118 850 132 q 723 99 791 104 q 532 94 654 94 q 352 99 416 94 q 259 118 288 104 q 224 158 231 132 q 218 227 218 184 l 94 227 q 109 103 94 151 q 169 30 124 56 q 299 -5 213 4 q 528 -15 386 -15 m 474 911 l 604 911 l 604 1042 l 474 1042 l 474 911 "},"ß":{"ha":1389,"x_min":87,"x_max":1302,"o":"m 87 -87 l 217 -87 l 217 718 q 235 851 217 820 q 275 898 252 883 q 339 921 298 913 q 565 933 401 933 l 825 933 q 1008 913 964 933 q 1067 870 1050 895 q 1085 788 1085 844 q 1076 700 1085 738 q 1038 642 1067 663 q 949 612 1003 616 q 829 608 896 608 l 347 608 l 347 499 l 824 499 q 1036 490 983 499 q 1105 473 1079 482 q 1149 438 1132 464 q 1172 340 1172 404 q 1163 218 1172 267 q 1112 144 1154 170 q 1037 119 1084 126 q 934 110 989 111 q 824 109 879 109 l 347 109 l 347 0 l 867 0 q 1232 81 1145 0 q 1288 179 1274 119 q 1302 319 1302 239 q 1239 500 1302 441 q 1085 564 1177 559 q 1210 720 1185 574 q 1214 758 1213 736 q 1215 804 1215 779 q 1195 908 1215 863 q 1139 979 1175 952 q 868 1042 1058 1042 l 522 1042 q 157 961 244 1042 q 101 861 115 922 q 87 718 87 800 l 87 -87 "},"t":{"ha":880,"x_min":121,"x_max":777,"o":"m 448 0 q 613 12 549 0 q 713 58 677 23 q 763 160 749 92 q 777 340 777 228 l 661 340 q 656 207 661 254 q 630 139 650 159 q 567 113 610 118 q 448 109 524 109 q 321 120 363 109 q 265 169 279 132 q 251 282 251 206 l 251 674 l 732 674 l 732 781 l 251 781 l 251 995 l 121 995 l 121 282 q 153 110 121 171 q 257 24 185 48 q 448 0 329 0 "},"ŧ":{"ha":977,"x_min":43,"x_max":820,"o":"m 43 387 l 164 387 l 164 282 q 196 110 164 171 q 300 24 229 48 q 492 0 372 0 q 657 12 593 0 q 756 58 721 23 q 806 160 792 92 q 820 340 820 228 l 705 340 q 699 207 705 254 q 673 139 694 159 q 610 113 653 118 q 492 109 567 109 q 365 120 407 109 q 308 169 322 132 q 294 282 294 206 l 294 387 l 564 387 l 564 495 l 294 495 l 294 674 l 775 674 l 775 781 l 294 781 l 294 995 l 164 995 l 164 495 l 43 495 l 43 387 "},"ť":{"ha":880,"x_min":121,"x_max":777,"o":"m 448 0 q 613 12 549 0 q 713 58 677 23 q 763 160 749 92 q 777 340 777 228 l 661 340 q 656 207 661 254 q 630 139 650 159 q 567 113 610 118 q 448 109 524 109 q 321 120 363 109 q 265 169 279 132 q 251 282 251 206 l 251 674 l 732 674 l 732 781 l 251 781 l 251 995 l 121 995 l 121 282 q 153 110 121 171 q 257 24 185 48 q 448 0 329 0 m 401 890 l 488 890 l 574 1151 l 444 1151 l 401 890 "},"ț":{"ha":880,"x_min":121,"x_max":777,"o":"m 448 0 q 613 12 549 0 q 713 58 677 23 q 763 160 749 92 q 777 340 777 228 l 661 340 q 656 207 661 254 q 630 139 650 159 q 567 113 610 118 q 448 109 524 109 q 321 120 363 109 q 265 169 279 132 q 251 282 251 206 l 251 674 l 732 674 l 732 781 l 251 781 l 251 995 l 121 995 l 121 282 q 153 110 121 171 q 257 24 185 48 q 448 0 329 0 m 505 -103 l 375 -103 l 332 -363 l 418 -363 l 505 -103 "},"ṫ":{"ha":880,"x_min":121,"x_max":777,"o":"m 448 0 q 613 12 549 0 q 713 58 677 23 q 763 160 749 92 q 777 340 777 228 l 661 340 q 656 207 661 254 q 630 139 650 159 q 567 113 610 118 q 448 109 524 109 q 321 120 363 109 q 265 169 279 132 q 251 282 251 206 l 251 674 l 732 674 l 732 781 l 251 781 l 251 995 l 121 995 l 121 282 q 153 110 121 171 q 257 24 185 48 q 448 0 329 0 m 382 1098 l 512 1098 l 512 1228 l 382 1228 l 382 1098 "},"u":{"ha":1086,"x_min":84,"x_max":996,"o":"m 488 -15 q 678 -2 606 -15 q 794 38 751 12 q 866 104 838 64 l 866 0 l 996 0 l 996 781 l 866 781 l 866 311 q 834 186 866 234 q 724 116 802 138 q 511 94 647 94 q 362 104 420 94 q 272 143 304 115 q 228 220 240 170 q 215 347 215 270 l 215 781 l 84 781 l 84 347 q 121 131 84 210 q 247 19 159 52 q 488 -15 335 -15 "},"ú":{"ha":1086,"x_min":84,"x_max":996,"o":"m 488 -15 q 678 -2 606 -15 q 794 38 751 12 q 866 104 838 64 l 866 0 l 996 0 l 996 781 l 866 781 l 866 311 q 834 186 866 234 q 724 116 802 138 q 511 94 647 94 q 362 104 420 94 q 272 143 304 115 q 228 220 240 170 q 215 347 215 270 l 215 781 l 84 781 l 84 347 q 121 131 84 210 q 247 19 159 52 q 488 -15 335 -15 m 391 910 l 819 1184 l 739 1301 l 348 975 l 391 910 "},"ŭ":{"ha":1086,"x_min":84,"x_max":996,"o":"m 488 -15 q 678 -2 606 -15 q 794 38 751 12 q 866 104 838 64 l 866 0 l 996 0 l 996 781 l 866 781 l 866 311 q 834 186 866 234 q 724 116 802 138 q 511 94 647 94 q 362 104 420 94 q 272 143 304 115 q 228 220 240 170 q 215 347 215 270 l 215 781 l 84 781 l 84 347 q 121 131 84 210 q 247 19 159 52 q 488 -15 335 -15 m 543 886 q 684 909 626 886 q 773 990 742 932 q 804 1151 804 1047 l 695 1151 q 652 996 695 1023 q 543 980 625 980 q 438 994 462 980 q 391 1151 391 1023 l 283 1151 q 314 990 283 1047 q 403 909 345 932 q 543 886 461 886 "},"ǔ":{"ha":1086,"x_min":84,"x_max":996,"o":"m 488 -15 q 678 -2 606 -15 q 794 38 751 12 q 866 104 838 64 l 866 0 l 996 0 l 996 781 l 866 781 l 866 311 q 834 186 866 234 q 724 116 802 138 q 511 94 647 94 q 362 104 420 94 q 272 143 304 115 q 228 220 240 170 q 215 347 215 270 l 215 781 l 84 781 l 84 347 q 121 131 84 210 q 247 19 159 52 q 488 -15 335 -15 m 478 892 l 608 892 l 825 1218 l 739 1283 l 543 979 l 348 1283 l 261 1218 l 478 892 "},"û":{"ha":1086,"x_min":84,"x_max":996,"o":"m 488 -15 q 678 -2 606 -15 q 794 38 751 12 q 866 104 838 64 l 866 0 l 996 0 l 996 781 l 866 781 l 866 311 q 834 186 866 234 q 724 116 802 138 q 511 94 647 94 q 362 104 420 94 q 272 143 304 115 q 228 220 240 170 q 215 347 215 270 l 215 781 l 84 781 l 84 347 q 121 131 84 210 q 247 19 159 52 q 488 -15 335 -15 m 348 888 l 543 1192 l 739 888 l 825 954 l 608 1279 l 478 1279 l 261 954 l 348 888 "},"ȕ":{"ha":1086,"x_min":84,"x_max":996,"o":"m 488 -15 q 678 -2 606 -15 q 794 38 751 12 q 866 104 838 64 l 866 0 l 996 0 l 996 781 l 866 781 l 866 311 q 834 186 866 234 q 724 116 802 138 q 511 94 647 94 q 362 104 420 94 q 272 143 304 115 q 228 220 240 170 q 215 347 215 270 l 215 781 l 84 781 l 84 347 q 121 131 84 210 q 247 19 159 52 q 488 -15 335 -15 "},"ü":{"ha":1086,"x_min":84,"x_max":996,"o":"m 488 -15 q 678 -2 606 -15 q 794 38 751 12 q 866 104 838 64 l 866 0 l 996 0 l 996 781 l 866 781 l 866 311 q 834 186 866 234 q 724 116 802 138 q 511 94 647 94 q 362 104 420 94 q 272 143 304 115 q 228 220 240 170 q 215 347 215 270 l 215 781 l 84 781 l 84 347 q 121 131 84 210 q 247 19 159 52 q 488 -15 335 -15 m 718 911 l 848 911 l 848 1042 l 718 1042 l 718 911 m 238 911 l 368 911 l 368 1042 l 238 1042 l 238 911 "},"ù":{"ha":1086,"x_min":84,"x_max":996,"o":"m 488 -15 q 678 -2 606 -15 q 794 38 751 12 q 866 104 838 64 l 866 0 l 996 0 l 996 781 l 866 781 l 866 311 q 834 186 866 234 q 724 116 802 138 q 511 94 647 94 q 362 104 420 94 q 272 143 304 115 q 228 220 240 170 q 215 347 215 270 l 215 781 l 84 781 l 84 347 q 121 131 84 210 q 247 19 159 52 q 488 -15 335 -15 m 781 909 l 824 974 l 433 1299 l 353 1183 l 781 909 "},"ű":{"ha":1086,"x_min":84,"x_max":1163,"o":"m 488 -15 q 678 -2 606 -15 q 794 38 751 12 q 866 104 838 64 l 866 0 l 996 0 l 996 781 l 866 781 l 866 311 q 834 186 866 234 q 724 116 802 138 q 511 94 647 94 q 362 104 420 94 q 272 143 304 115 q 228 220 240 170 q 215 347 215 270 l 215 781 l 84 781 l 84 347 q 121 131 84 210 q 247 19 159 52 q 488 -15 335 -15 m 729 884 l 1163 1145 l 1076 1275 l 686 949 l 729 884 m 354 884 l 788 1145 l 701 1275 l 311 949 l 354 884 "},"ȗ":{"ha":1086,"x_min":84,"x_max":996,"o":"m 488 -15 q 678 -2 606 -15 q 794 38 751 12 q 866 104 838 64 l 866 0 l 996 0 l 996 781 l 866 781 l 866 311 q 834 186 866 234 q 724 116 802 138 q 511 94 647 94 q 362 104 420 94 q 272 143 304 115 q 228 220 240 170 q 215 347 215 270 l 215 781 l 84 781 l 84 347 q 121 131 84 210 q 247 19 159 52 q 488 -15 335 -15 m 543 1151 q 403 1128 461 1151 q 314 1048 345 1105 q 283 886 283 990 l 391 886 q 438 1043 391 1015 q 543 1057 462 1057 q 652 1041 625 1057 q 695 886 695 1015 l 804 886 q 773 1048 804 990 q 684 1128 742 1105 q 543 1151 626 1151 "},"ū":{"ha":1086,"x_min":84,"x_max":996,"o":"m 488 -15 q 678 -2 606 -15 q 794 38 751 12 q 866 104 838 64 l 866 0 l 996 0 l 996 781 l 866 781 l 866 311 q 834 186 866 234 q 724 116 802 138 q 511 94 647 94 q 362 104 420 94 q 272 143 304 115 q 228 220 240 170 q 215 347 215 270 l 215 781 l 84 781 l 84 347 q 121 131 84 210 q 247 19 159 52 q 488 -15 335 -15 m 283 885 l 804 885 l 804 994 l 283 994 l 283 885 "},"ų":{"ha":1086,"x_min":84,"x_max":996,"o":"m 488 -15 q 678 -2 606 -15 q 794 38 751 12 q 866 104 838 64 l 866 0 l 996 0 l 996 781 l 866 781 l 866 311 q 834 186 866 234 q 724 116 802 138 q 511 94 647 94 q 362 104 420 94 q 272 143 304 115 q 228 220 240 170 q 215 347 215 270 l 215 781 l 84 781 l 84 347 q 121 131 84 210 q 247 19 159 52 q 488 -15 335 -15 m 957 -377 l 957 -269 q 863 -252 899 -269 q 827 -182 827 -235 q 957 14 827 -73 l 870 14 q 724 -115 770 -41 q 704 -158 711 -136 q 696 -216 696 -180 q 719 -286 696 -252 q 957 -377 781 -377 "},"ů":{"ha":1086,"x_min":84,"x_max":996,"o":"m 488 -15 q 678 -2 606 -15 q 794 38 751 12 q 866 104 838 64 l 866 0 l 996 0 l 996 781 l 866 781 l 866 311 q 834 186 866 234 q 724 116 802 138 q 511 94 647 94 q 362 104 420 94 q 272 143 304 115 q 228 220 240 170 q 215 347 215 270 l 215 781 l 84 781 l 84 347 q 121 131 84 210 q 247 19 159 52 q 488 -15 335 -15 m 543 909 q 716 965 650 909 q 782 1126 782 1021 q 719 1284 782 1226 q 543 1343 656 1343 q 371 1286 437 1343 q 304 1126 304 1230 q 368 967 304 1025 q 543 909 431 909 m 543 996 q 444 1028 475 996 q 413 1126 413 1061 q 432 1208 413 1185 q 543 1256 469 1256 q 643 1223 612 1256 q 673 1126 673 1191 q 654 1043 673 1067 q 543 996 617 996 "},"ũ":{"ha":1086,"x_min":84,"x_max":996,"o":"m 488 -15 q 678 -2 606 -15 q 794 38 751 12 q 866 104 838 64 l 866 0 l 996 0 l 996 781 l 866 781 l 866 311 q 834 186 866 234 q 724 116 802 138 q 511 94 647 94 q 362 104 420 94 q 272 143 304 115 q 228 220 240 170 q 215 347 215 270 l 215 781 l 84 781 l 84 347 q 121 131 84 210 q 247 19 159 52 q 488 -15 335 -15 m 239 910 l 370 910 q 379 963 370 950 q 422 975 388 975 q 476 964 450 975 q 525 943 503 952 q 673 910 602 910 q 785 947 736 910 q 847 1084 847 994 l 717 1084 q 707 1031 717 1044 q 664 1019 696 1019 q 610 1030 637 1019 q 562 1051 584 1042 q 413 1084 484 1084 q 289 1039 339 1084 q 239 910 239 994 "},"v":{"ha":1077,"x_min":43,"x_max":1034,"o":"m 452 0 l 625 0 l 1034 781 l 888 781 l 540 98 l 538 98 l 197 781 l 43 781 l 452 0 "},"w":{"ha":1519,"x_min":47,"x_max":1472,"o":"m 347 0 l 521 0 l 759 633 l 760 633 l 998 0 l 1172 0 l 1472 781 l 1324 781 l 1083 105 l 1082 105 l 825 781 l 694 781 l 435 105 l 433 105 l 195 781 l 47 781 l 347 0 "},"ẃ":{"ha":1519,"x_min":47,"x_max":1472,"o":"m 347 0 l 521 0 l 759 633 l 760 633 l 998 0 l 1172 0 l 1472 781 l 1324 781 l 1083 105 l 1082 105 l 825 781 l 694 781 l 435 105 l 433 105 l 195 781 l 47 781 l 347 0 m 608 910 l 1035 1184 l 955 1301 l 564 975 l 608 910 "},"ŵ":{"ha":1519,"x_min":47,"x_max":1472,"o":"m 347 0 l 521 0 l 759 633 l 760 633 l 998 0 l 1172 0 l 1472 781 l 1324 781 l 1083 105 l 1082 105 l 825 781 l 694 781 l 435 105 l 433 105 l 195 781 l 47 781 l 347 0 m 564 888 l 760 1192 l 955 888 l 1042 954 l 825 1279 l 694 1279 l 477 954 l 564 888 "},"ẅ":{"ha":1519,"x_min":47,"x_max":1472,"o":"m 347 0 l 521 0 l 759 633 l 760 633 l 998 0 l 1172 0 l 1472 781 l 1324 781 l 1083 105 l 1082 105 l 825 781 l 694 781 l 435 105 l 433 105 l 195 781 l 47 781 l 347 0 m 935 911 l 1065 911 l 1065 1042 l 935 1042 l 935 911 m 454 911 l 585 911 l 585 1042 l 454 1042 l 454 911 "},"ẁ":{"ha":1519,"x_min":47,"x_max":1472,"o":"m 347 0 l 521 0 l 759 633 l 760 633 l 998 0 l 1172 0 l 1472 781 l 1324 781 l 1083 105 l 1082 105 l 825 781 l 694 781 l 435 105 l 433 105 l 195 781 l 47 781 l 347 0 m 997 909 l 1040 974 l 650 1299 l 570 1183 l 997 909 "},"x":{"ha":1104,"x_min":65,"x_max":1039,"o":"m 65 0 l 239 0 l 552 327 l 865 0 l 1039 0 l 639 398 l 1020 781 l 846 781 l 555 479 l 258 781 l 84 781 l 465 397 l 65 0 "},"y":{"ha":1063,"x_min":31,"x_max":1017,"o":"m 209 -260 q 385 -247 317 -260 q 496 -207 454 -234 q 567 -139 538 -180 q 621 -43 595 -98 l 1017 781 l 865 781 l 552 97 l 180 781 l 31 781 l 465 0 l 509 0 q 457 -87 481 -56 q 401 -132 432 -118 q 325 -149 370 -146 q 209 -152 279 -152 l 209 -260 "},"ý":{"ha":1063,"x_min":31,"x_max":1017,"o":"m 209 -260 q 385 -247 317 -260 q 496 -207 454 -234 q 567 -139 538 -180 q 621 -43 595 -98 l 1017 781 l 865 781 l 552 97 l 180 781 l 31 781 l 465 0 l 509 0 q 457 -87 481 -56 q 401 -132 432 -118 q 325 -149 370 -146 q 209 -152 279 -152 l 209 -260 m 380 910 l 807 1184 l 727 1301 l 336 975 l 380 910 "},"ŷ":{"ha":1063,"x_min":31,"x_max":1017,"o":"m 209 -260 q 385 -247 317 -260 q 496 -207 454 -234 q 567 -139 538 -180 q 621 -43 595 -98 l 1017 781 l 865 781 l 552 97 l 180 781 l 31 781 l 465 0 l 509 0 q 457 -87 481 -56 q 401 -132 432 -118 q 325 -149 370 -146 q 209 -152 279 -152 l 209 -260 m 336 888 l 532 1192 l 727 888 l 814 954 l 597 1279 l 467 1279 l 250 954 l 336 888 "},"ÿ":{"ha":1063,"x_min":31,"x_max":1017,"o":"m 209 -260 q 385 -247 317 -260 q 496 -207 454 -234 q 567 -139 538 -180 q 621 -43 595 -98 l 1017 781 l 865 781 l 552 97 l 180 781 l 31 781 l 465 0 l 509 0 q 457 -87 481 -56 q 401 -132 432 -118 q 325 -149 370 -146 q 209 -152 279 -152 l 209 -260 m 707 911 l 837 911 l 837 1042 l 707 1042 l 707 911 m 227 911 l 357 911 l 357 1042 l 227 1042 l 227 911 "},"ỳ":{"ha":1063,"x_min":31,"x_max":1017,"o":"m 209 -260 q 385 -247 317 -260 q 496 -207 454 -234 q 567 -139 538 -180 q 621 -43 595 -98 l 1017 781 l 865 781 l 552 97 l 180 781 l 31 781 l 465 0 l 509 0 q 457 -87 481 -56 q 401 -132 432 -118 q 325 -149 370 -146 q 209 -152 279 -152 l 209 -260 m 769 909 l 812 974 l 422 1299 l 342 1183 l 769 909 "},"ȳ":{"ha":1063,"x_min":31,"x_max":1017,"o":"m 209 -260 q 385 -247 317 -260 q 496 -207 454 -234 q 567 -139 538 -180 q 621 -43 595 -98 l 1017 781 l 865 781 l 552 97 l 180 781 l 31 781 l 465 0 l 509 0 q 457 -87 481 -56 q 401 -132 432 -118 q 325 -149 370 -146 q 209 -152 279 -152 l 209 -260 m 271 885 l 792 885 l 792 994 l 271 994 l 271 885 "},"ỹ":{"ha":1063,"x_min":31,"x_max":1017,"o":"m 209 -260 q 385 -247 317 -260 q 496 -207 454 -234 q 567 -139 538 -180 q 621 -43 595 -98 l 1017 781 l 865 781 l 552 97 l 180 781 l 31 781 l 465 0 l 509 0 q 457 -87 481 -56 q 401 -132 432 -118 q 325 -149 370 -146 q 209 -152 279 -152 l 209 -260 m 228 910 l 358 910 q 367 963 358 950 q 411 975 376 975 q 465 964 438 975 q 513 943 491 952 q 662 910 591 910 q 773 947 724 910 q 836 1084 836 994 l 705 1084 q 695 1031 705 1044 q 652 1019 685 1019 q 599 1030 625 1019 q 550 1051 572 1042 q 401 1084 472 1084 q 278 1039 328 1084 q 228 910 228 994 "},"z":{"ha":998,"x_min":87,"x_max":911,"o":"m 87 0 l 911 0 l 911 102 l 261 102 l 911 673 l 911 781 l 130 781 l 130 681 l 747 681 l 87 109 l 87 0 "},"ź":{"ha":998,"x_min":87,"x_max":911,"o":"m 87 0 l 911 0 l 911 102 l 261 102 l 911 673 l 911 781 l 130 781 l 130 681 l 747 681 l 87 109 l 87 0 m 347 910 l 774 1184 l 694 1301 l 304 975 l 347 910 "},"ž":{"ha":998,"x_min":87,"x_max":911,"o":"m 87 0 l 911 0 l 911 102 l 261 102 l 911 673 l 911 781 l 130 781 l 130 681 l 747 681 l 87 109 l 87 0 m 434 892 l 564 892 l 781 1218 l 694 1283 l 499 979 l 304 1283 l 217 1218 l 434 892 "},"ż":{"ha":998,"x_min":87,"x_max":911,"o":"m 87 0 l 911 0 l 911 102 l 261 102 l 911 673 l 911 781 l 130 781 l 130 681 l 747 681 l 87 109 l 87 0 m 434 911 l 564 911 l 564 1042 l 434 1042 l 434 911 "},"ﬁ":{"ha":1020,"x_min":87,"x_max":933,"o":"m 217 0 l 347 0 l 347 682 l 716 682 l 716 781 l 347 781 l 347 815 q 361 924 347 888 q 421 972 375 960 q 564 985 467 985 l 716 985 l 716 1090 l 565 1090 q 367 1068 444 1090 q 253 986 290 1046 q 217 815 217 926 l 217 781 l 87 781 l 87 682 l 217 682 l 217 0 m 803 0 l 933 0 l 933 738 l 803 738 l 803 0 m 803 911 l 933 911 l 933 1042 l 803 1042 l 803 911 "},"ﬂ":{"ha":1107,"x_min":87,"x_max":977,"o":"m 217 0 l 347 0 l 347 682 l 716 682 l 716 781 l 347 781 l 347 815 q 361 924 347 888 q 421 972 375 960 q 564 985 467 985 l 716 985 l 716 1090 l 565 1090 q 367 1068 444 1090 q 253 986 290 1046 q 217 815 217 926 l 217 781 l 87 781 l 87 682 l 217 682 l 217 0 m 846 0 l 977 0 l 977 1042 l 846 1042 l 846 0 "},"ǀ":{"ha":304,"x_min":87,"x_max":217,"o":"m 87 -87 l 217 -87 l 217 1085 l 87 1085 l 87 -87 "},"ǁ":{"ha":608,"x_min":87,"x_max":521,"o":"m 391 -87 l 521 -87 l 521 1085 l 391 1085 l 391 -87 m 87 -87 l 217 -87 l 217 1085 l 87 1085 l 87 -87 "},"ª":{"ha":1058,"x_min":87,"x_max":941,"o":"m 484 282 q 649 289 584 282 q 754 310 715 296 q 815 348 793 324 l 815 296 l 941 296 l 941 658 q 926 861 941 782 q 869 985 911 941 q 747 1046 827 1029 q 534 1063 666 1063 q 331 1055 411 1063 q 204 1025 250 1047 q 138 959 157 1002 q 119 846 119 916 l 244 846 q 251 903 244 881 q 284 937 258 925 q 370 954 311 949 q 534 958 429 958 q 680 951 625 958 q 764 920 735 944 q 803 846 793 897 q 815 710 814 796 q 676 728 753 722 q 484 733 598 733 q 255 719 342 733 q 127 656 168 705 q 87 506 87 608 q 130 358 87 406 q 261 296 173 311 q 484 282 349 282 m 484 384 q 341 387 395 384 q 260 402 288 391 q 222 438 232 414 q 213 506 213 463 q 222 575 213 550 q 260 613 232 601 q 341 629 288 626 q 484 631 395 633 l 815 627 l 815 512 q 805 439 815 465 q 761 401 794 413 q 662 387 728 389 q 484 384 595 384 "},"º":{"ha":1128,"x_min":87,"x_max":1042,"o":"m 564 282 q 785 300 695 282 q 982 418 923 328 q 1042 673 1042 507 q 1016 862 1042 786 q 925 989 987 945 q 770 1048 862 1032 q 564 1063 679 1063 q 343 1045 434 1063 q 146 928 206 1018 q 87 673 87 839 q 113 484 87 559 q 204 357 141 400 q 358 298 267 313 q 564 282 450 282 m 534 391 q 339 411 408 391 q 277 442 301 422 q 224 543 232 479 q 217 692 217 606 q 235 827 217 770 q 300 916 254 889 q 413 949 346 943 q 564 955 481 955 q 654 953 613 955 q 728 947 695 951 q 842 906 802 939 q 897 815 882 873 q 911 673 911 758 q 896 530 911 589 q 842 439 881 472 q 728 398 802 406 q 647 393 695 395 q 534 391 598 391 "},"Δ":{"ha":1128,"x_min":87,"x_max":1042,"o":"m 87 -1 l 1042 -1 l 651 1042 l 477 1042 l 87 -1 m 260 108 l 564 955 l 868 108 l 260 108 "},"Ω":{"ha":998,"x_min":87,"x_max":911,"o":"m 130 0 l 391 0 l 391 152 q 321 162 349 152 q 271 199 292 173 q 217 455 217 268 q 241 699 217 627 q 330 789 266 770 q 499 802 371 802 q 663 791 625 802 q 723 758 701 779 q 757 699 744 737 q 781 489 781 627 q 766 291 781 350 q 717 188 750 224 q 608 152 684 152 l 608 0 l 868 0 l 868 109 l 738 109 q 911 455 911 172 q 825 815 911 721 q 692 890 776 869 q 499 910 608 910 q 254 873 345 910 q 123 730 163 836 q 87 455 87 633 q 260 109 87 172 l 130 109 l 130 0 "},"μ":{"ha":1086,"x_min":87,"x_max":999,"o":"m 87 -260 l 218 -260 l 218 22 q 468 -22 308 -22 q 730 16 628 -22 q 813 62 778 35 q 869 130 848 89 l 869 0 l 999 0 l 999 738 l 869 738 l 869 304 q 854 215 869 255 q 522 87 808 87 q 272 144 332 87 q 228 228 237 177 q 218 347 218 279 l 218 738 l 87 738 l 87 -260 "},"⁄":{"ha":513,"x_min":-47,"x_max":560,"o":"m -47 0 l 83 0 l 560 1042 l 430 1042 l -47 0 "},"½":{"ha":2060,"x_min":43,"x_max":1973,"o":"m 391 303 l 521 303 l 521 1041 l 347 1041 l 43 759 l 109 672 l 391 932 l 391 303 m 589 0 l 719 0 l 1196 1042 l 1066 1042 l 589 0 m 1236 0 l 1953 0 l 1953 109 l 1366 109 q 1370 173 1366 151 q 1389 207 1375 195 q 1431 227 1402 218 q 1583 261 1463 237 l 1758 296 q 1918 367 1863 317 q 1973 524 1973 416 q 1954 656 1973 608 q 1883 728 1935 703 q 1764 755 1835 751 q 1622 760 1693 760 q 1576 760 1598 760 q 1532 760 1554 760 q 1370 746 1436 760 q 1270 685 1303 731 q 1236 543 1236 638 l 1366 543 q 1377 618 1366 600 q 1434 643 1389 636 q 1577 651 1482 651 q 1661 650 1626 651 q 1720 648 1697 650 q 1813 624 1782 646 q 1843 538 1843 603 q 1830 460 1843 487 q 1789 420 1817 433 q 1714 398 1761 407 l 1453 349 q 1337 318 1386 336 q 1262 261 1289 299 q 1236 152 1236 223 l 1236 0 "},"¼":{"ha":1979,"x_min":43,"x_max":1926,"o":"m 391 303 l 521 303 l 521 1041 l 347 1041 l 43 759 l 109 672 l 391 932 l 391 303 m 589 0 l 719 0 l 1196 1042 l 1066 1042 l 589 0 m 1632 0 l 1762 0 l 1762 164 l 1926 164 l 1926 273 l 1762 273 l 1762 760 l 1588 760 l 1067 294 l 1067 164 l 1632 164 l 1632 0 m 1198 273 l 1632 660 l 1632 273 l 1198 273 "},"¾":{"ha":2355,"x_min":68,"x_max":2302,"o":"m 364 303 q 421 303 398 303 q 490 304 445 304 q 632 308 565 304 q 752 329 699 311 q 834 386 804 346 q 865 500 865 427 q 856 593 865 560 q 824 646 848 627 q 756 684 801 666 q 838 736 811 701 q 865 838 865 770 q 845 967 865 919 q 770 1038 825 1016 q 693 1057 739 1052 q 603 1063 648 1062 q 523 1063 557 1063 q 449 1064 477 1063 q 400 1064 421 1064 q 350 1064 378 1064 q 216 1054 278 1064 q 118 1009 155 1044 q 68 848 68 961 l 198 848 q 218 929 198 912 q 290 951 238 946 q 353 954 314 953 q 432 955 392 955 q 539 955 498 955 q 612 956 581 956 q 705 936 675 956 q 734 853 734 916 q 705 761 734 785 q 604 738 676 738 l 339 738 l 339 629 l 604 629 q 702 609 671 629 q 734 528 734 589 q 724 459 734 482 q 682 425 714 435 q 577 413 651 414 q 409 412 503 412 q 358 413 390 412 q 290 416 326 414 q 219 432 240 420 q 198 498 198 444 l 68 498 q 118 354 68 397 q 364 303 177 303 m 904 0 l 1034 0 l 1512 1042 l 1381 1042 l 904 0 m 2007 0 l 2138 0 l 2138 164 l 2302 164 l 2302 273 l 2138 273 l 2138 760 l 1964 760 l 1443 294 l 1443 164 l 2007 164 l 2007 0 m 1573 273 l 2007 660 l 2007 273 l 1573 273 "},"¹":{"ha":636,"x_min":43,"x_max":521,"o":"m 391 304 l 521 304 l 521 1042 l 347 1042 l 43 760 l 109 673 l 391 933 l 391 304 "},"²":{"ha":911,"x_min":87,"x_max":825,"o":"m 87 304 l 804 304 l 804 413 l 217 413 q 221 478 217 456 q 240 511 226 500 q 282 531 254 522 q 434 566 314 542 l 609 600 q 769 671 714 621 q 825 828 825 721 q 806 960 825 913 q 734 1033 787 1008 q 615 1060 686 1055 q 473 1064 545 1064 q 427 1064 450 1064 q 383 1065 405 1065 q 221 1050 287 1065 q 121 989 155 1036 q 87 847 87 943 l 217 847 q 229 923 217 905 q 285 947 240 941 q 429 956 333 956 q 512 955 477 956 q 571 953 548 954 q 664 929 633 950 q 694 843 694 907 q 682 764 694 791 q 641 724 669 737 q 566 703 612 711 l 304 653 q 189 622 237 641 q 113 566 140 604 q 87 456 87 528 l 87 304 "},"³":{"ha":951,"x_min":68,"x_max":865,"o":"m 364 303 q 421 303 398 303 q 490 304 445 304 q 632 308 565 304 q 752 329 699 311 q 834 386 804 346 q 865 500 865 427 q 856 593 865 560 q 824 646 848 627 q 756 684 801 666 q 838 736 811 701 q 865 838 865 770 q 845 967 865 919 q 770 1038 825 1016 q 693 1057 739 1052 q 603 1063 648 1062 q 523 1063 557 1063 q 449 1064 477 1063 q 400 1064 421 1064 q 350 1064 378 1064 q 216 1054 278 1064 q 118 1009 155 1044 q 68 848 68 961 l 198 848 q 218 929 198 912 q 290 951 238 946 q 353 954 314 953 q 432 955 392 955 q 539 955 498 955 q 612 956 581 956 q 705 936 675 956 q 734 853 734 916 q 705 761 734 785 q 604 738 676 738 l 339 738 l 339 629 l 604 629 q 702 609 671 629 q 734 528 734 589 q 724 459 734 482 q 682 425 714 435 q 577 413 651 414 q 409 412 503 412 q 358 413 390 412 q 290 416 326 414 q 219 432 240 420 q 198 498 198 444 l 68 498 q 118 354 68 397 q 364 303 177 303 "},"⁴":{"ha":966,"x_min":54,"x_max":913,"o":"m 618 303 l 749 303 l 749 467 l 913 467 l 913 576 l 749 576 l 749 1063 l 575 1063 l 54 597 l 54 467 l 618 467 l 618 303 m 184 576 l 618 963 l 618 576 l 184 576 "}," ":{"ha":395,"x_min":0,"x_max":0,"o":""}," ":{"ha":395,"x_min":0,"x_max":0,"o":""},".":{"ha":304,"x_min":87,"x_max":217,"o":"m 87 0 l 217 0 l 217 130 l 87 130 l 87 0 "},",":{"ha":304,"x_min":43,"x_max":217,"o":"m 43 -174 l 130 -174 l 217 87 l 87 87 l 43 -174 "},":":{"ha":304,"x_min":87,"x_max":217,"o":"m 87 521 l 217 521 l 217 651 l 87 651 l 87 521 m 87 130 l 217 130 l 217 260 l 87 260 l 87 130 "},";":{"ha":304,"x_min":43,"x_max":217,"o":"m 87 521 l 217 521 l 217 651 l 87 651 l 87 521 m 43 87 l 130 87 l 217 347 l 87 347 l 43 87 "},"…":{"ha":911,"x_min":87,"x_max":825,"o":"m 694 0 l 825 0 l 825 130 l 694 130 l 694 0 m 391 0 l 521 0 l 521 130 l 391 130 l 391 0 m 87 0 l 217 0 l 217 130 l 87 130 l 87 0 "},"!":{"ha":385,"x_min":127,"x_max":258,"o":"m 160 304 l 225 304 l 258 1042 l 127 1042 l 160 304 m 127 0 l 258 0 l 258 130 l 127 130 l 127 0 "},"¡":{"ha":385,"x_min":127,"x_max":258,"o":"m 160 543 l 127 -195 l 258 -195 l 225 543 l 160 543 m 127 847 l 127 717 l 258 717 l 258 847 l 127 847 "},"?":{"ha":1259,"x_min":148,"x_max":1124,"o":"m 464 218 l 594 218 l 594 321 q 597 420 594 384 q 612 473 600 456 q 649 494 623 490 q 721 499 675 499 l 823 499 q 984 518 924 499 q 1074 574 1044 537 q 1114 663 1104 610 q 1124 782 1124 715 q 1092 938 1124 881 q 1002 1022 1061 995 q 859 1056 943 1048 q 670 1063 775 1063 q 433 1057 532 1063 q 271 1024 334 1051 q 178 934 208 996 q 148 761 148 872 l 278 761 q 290 866 278 827 q 339 924 301 905 q 456 949 377 943 q 670 955 535 955 q 827 950 765 955 q 926 929 890 946 q 978 878 963 913 q 994 782 994 843 q 981 673 994 711 q 931 621 968 635 q 823 607 895 607 l 721 607 q 584 596 635 607 q 507 556 533 586 q 472 470 481 527 q 464 321 464 414 l 464 218 m 464 0 l 594 0 l 594 130 l 464 130 l 464 0 "},"¿":{"ha":1259,"x_min":148,"x_max":1124,"o":"m 808 604 l 677 604 l 677 500 q 674 401 677 437 q 660 349 671 366 q 623 327 648 332 q 551 322 597 322 l 448 322 q 288 303 348 322 q 198 248 228 284 q 158 159 168 211 q 148 39 148 106 q 179 -117 148 -60 q 270 -200 211 -174 q 413 -235 329 -227 q 602 -242 497 -242 q 838 -236 739 -242 q 1000 -202 937 -230 q 1094 -113 1063 -175 q 1124 60 1124 -51 l 994 60 q 982 -44 994 -5 q 932 -102 970 -83 q 815 -127 895 -121 q 602 -134 736 -134 q 445 -129 507 -134 q 345 -108 382 -125 q 293 -57 309 -92 q 278 39 278 -22 q 291 149 278 111 q 341 200 304 186 q 448 214 378 214 l 551 214 q 687 225 636 214 q 765 265 739 235 q 799 351 791 294 q 808 500 808 408 l 808 604 m 808 821 l 677 821 l 677 691 l 808 691 l 808 821 "},"·":{"ha":304,"x_min":87,"x_max":217,"o":"m 87 477 l 217 477 l 217 608 l 87 608 l 87 477 "},"•":{"ha":868,"x_min":260,"x_max":608,"o":"m 434 174 q 563 217 518 174 q 608 347 608 261 q 434 521 608 521 q 260 347 260 521 q 434 174 260 174 "}}}
